<svg width="60" height="60" viewBox="0 0 60 60" fill="none" xmlns="http://www.w3.org/2000/svg">
<rect opacity="0.1" width="60" height="60" rx="30" fill="#5B93FF"/>
<path d="M34.3637 27.3823H26.2185C25.8972 27.3823 25.6367 27.1218 25.6367 26.8005C25.6367 26.4793 25.8972 26.2188 26.2185 26.2188H34.3637C34.685 26.2188 34.9455 26.4793 34.9455 26.8005C34.9455 27.1218 34.685 27.3823 34.3637 27.3823Z" fill="#5B93FF"/>
<path d="M34.3637 33.2007H26.2185C25.8972 33.2007 25.6367 32.9402 25.6367 32.6189C25.6367 32.2976 25.8972 32.0371 26.2185 32.0371H34.3637C34.685 32.0371 34.9455 32.2976 34.9455 32.6189C34.9455 32.9402 34.685 33.2007 34.3637 33.2007Z" fill="#5B93FF"/>
<path d="M26.8005 17.2007C27.1219 17.2007 27.3823 16.9402 27.3823 16.6189C27.3823 16.2976 27.1219 16.0371 26.8005 16.0371C26.4792 16.0371 26.2188 16.2976 26.2188 16.6189C26.2188 16.9402 26.4792 17.2007 26.8005 17.2007Z" fill="#5B93FF"/>
<path d="M19.937 27.7178L19.0831 26.7065C18.878 26.459 18.9124 26.0921 19.1599 25.887C19.4041 25.6846 19.7654 25.715 19.9723 25.9554L20.5845 26.681L23.1916 24.1072C23.4225 23.8836 23.791 23.8896 24.0145 24.1205C24.235 24.3483 24.2326 24.7106 24.0092 24.9355L21.1334 27.7746C20.8175 28.0907 20.3053 28.0908 19.9891 27.775C19.9708 27.7567 19.9534 27.7377 19.937 27.7178Z" fill="#5B93FF"/>
<path d="M19.937 33.5362L19.0831 32.5249C18.878 32.2774 18.9124 31.9105 19.1599 31.7054C19.4041 31.503 19.7654 31.5334 19.9723 31.7738L20.5845 32.4993L23.1916 29.9255C23.4225 29.702 23.791 29.708 24.0145 29.9389C24.235 30.1667 24.2326 30.529 24.0092 30.7539L21.1334 33.593C20.8175 33.909 20.3053 33.9092 19.9891 33.5933C19.9708 33.5751 19.9534 33.556 19.937 33.5362Z" fill="#5B93FF"/>
<path d="M20.5191 39.9356L19.6651 38.9243C19.4601 38.6768 19.4944 38.3099 19.7419 38.1048C19.9862 37.9024 20.3474 37.9328 20.5544 38.1732L21.1666 38.8987L23.7736 36.3249C24.0046 36.1014 24.373 36.1074 24.5966 36.3384C24.817 36.5662 24.8146 36.9285 24.5912 37.1533L21.7155 39.9925C21.3996 40.3085 20.8873 40.3087 20.5712 39.9928C20.5528 39.9745 20.5354 39.9554 20.5191 39.9356Z" fill="#5B93FF"/>
<path d="M37.2725 40.7638C35.9872 40.7638 34.9453 39.7218 34.9453 38.4366C34.9453 37.1513 35.9872 36.1094 37.2725 36.1094C38.5578 36.1094 39.5997 37.1513 39.5997 38.4366C39.5983 39.7213 38.5572 40.7625 37.2725 40.7638ZM37.2725 37.273C36.6298 37.273 36.1089 37.7939 36.1089 38.4366C36.1089 39.0792 36.6298 39.6002 37.2725 39.6002C37.9152 39.6002 38.4361 39.0792 38.4361 38.4366C38.4354 37.7943 37.9148 37.2737 37.2725 37.273Z" fill="#5B93FF"/>
<path d="M43.6726 39.6001C43.6686 36.0673 40.8057 33.2043 37.2728 33.2003V19.8189C37.2718 18.8554 36.491 18.0746 35.5274 18.0735H33.2002V17.4917C33.1995 16.8494 32.679 16.3289 32.0366 16.3281H30.4687C29.5147 14.3022 27.099 13.4333 25.0731 14.3873C24.2202 14.789 23.5339 15.4753 23.1323 16.3281H21.5643C20.922 16.3289 20.4015 16.8494 20.4007 17.4917V18.0735H18.0735C17.11 18.0746 16.3291 18.8554 16.3281 19.8189V43.0909C16.3291 44.0545 17.11 44.8353 18.0735 44.8363H33.6048C35.9959 46.5227 39.2286 46.3619 41.4406 44.4465C41.4443 44.444 41.4486 44.4434 41.4523 44.4408C41.4699 44.4289 41.4792 44.4106 41.495 44.3971C42.8779 43.1866 43.6716 41.4383 43.6726 39.6001ZM42.509 39.6001C42.5086 40.8871 42.0317 42.1284 41.1703 43.0846C39.2385 40.9321 35.9275 40.7531 33.775 42.685C33.6347 42.8109 33.5013 42.9443 33.3754 43.0846C31.4491 40.9302 31.634 37.6222 33.7884 35.6958C35.9428 33.7696 39.2509 33.9545 41.1772 36.1089C42.0356 37.0691 42.5098 38.3122 42.509 39.6001ZM21.5642 17.4917H23.5085C23.7509 17.4788 23.9644 17.3275 24.057 17.1031C24.5938 15.5879 26.2573 14.7948 27.7724 15.3316C28.6 15.6248 29.2511 16.276 29.5441 17.1037C29.6327 17.3312 29.8486 17.484 30.0927 17.4917H32.0366V19.8189H21.5642V17.4917ZM17.4917 43.0909V19.8189C17.4919 19.4978 17.7523 19.2374 18.0735 19.2371H20.4007V19.8189C20.4014 20.4612 20.9219 20.9818 21.5642 20.9825H32.0366C32.679 20.9818 33.1995 20.4612 33.2002 19.8189V19.2371H35.5274C35.8486 19.2374 36.1089 19.4978 36.1092 19.8189V33.3115C33.5064 33.7975 31.4701 35.8337 30.9842 38.4365H26.2186C25.8973 38.4365 25.6368 38.697 25.6368 39.0183C25.6368 39.3396 25.8973 39.6001 26.2186 39.6001H30.873C30.8717 41.0873 31.3906 42.528 32.34 43.6727H18.0735C17.7522 43.6724 17.4919 43.4122 17.4917 43.0909ZM34.2411 43.8614C35.7447 42.187 38.3209 42.0486 39.9953 43.5522C40.1039 43.6497 40.2071 43.7529 40.3046 43.8614C38.4924 45.1613 36.0532 45.1613 34.2411 43.8614Z" fill="#5B93FF"/>
</svg>
