<svg width="60" height="60" viewBox="0 0 60 60" fill="none" xmlns="http://www.w3.org/2000/svg">
<rect opacity="0.1" width="60" height="60" rx="30" fill="#5B93FF"/>
<path d="M20.6875 20.1562H21.625V23.9062H22.5625V20.1562H23.5V19.2188H20.6875V20.1562Z" fill="#5B93FF"/>
<path d="M31.9375 20.1562H32.875V23.9062H33.8125V20.1562H34.75V19.2188H31.9375V20.1562Z" fill="#5B93FF"/>
<path d="M24.4375 19.6875V23.4375C24.4375 23.5618 24.4869 23.681 24.5748 23.769C24.6627 23.8569 24.7819 23.9062 24.9062 23.9062H27.25V22.9688H25.375V22.0312H27.25V21.0938H25.375V20.1562H27.25V19.2188H24.9062C24.7819 19.2188 24.6627 19.2681 24.5748 19.356C24.4869 19.444 24.4375 19.5632 24.4375 19.6875Z" fill="#5B93FF"/>
<path d="M28.1875 20.625C28.1875 20.998 28.3357 21.3556 28.5994 21.6194C28.8631 21.8831 29.2208 22.0312 29.5938 22.0312C29.7181 22.0312 29.8373 22.0806 29.9252 22.1685C30.0131 22.2565 30.0625 22.3757 30.0625 22.5C30.0625 22.6243 30.0131 22.7435 29.9252 22.8315C29.8373 22.9194 29.7181 22.9688 29.5938 22.9688H28.1875V23.9062H29.5938C29.9667 23.9062 30.3244 23.7581 30.5881 23.4944C30.8518 23.2306 31 22.873 31 22.5C31 22.127 30.8518 21.7694 30.5881 21.5056C30.3244 21.2419 29.9667 21.0938 29.5938 21.0938C29.4694 21.0938 29.3502 21.0444 29.2623 20.9565C29.1744 20.8685 29.125 20.7493 29.125 20.625C29.125 20.5007 29.1744 20.3815 29.2623 20.2935C29.3502 20.2056 29.4694 20.1562 29.5938 20.1562H31V19.2188H29.5938C29.2208 19.2188 28.8631 19.3669 28.5994 19.6306C28.3357 19.8944 28.1875 20.252 28.1875 20.625Z" fill="#5B93FF"/>
<path d="M19.2812 25.7812H36.1562C36.2806 25.7812 36.3998 25.7319 36.4877 25.644C36.5756 25.556 36.625 25.4368 36.625 25.3125V17.8125C36.625 17.6882 36.5756 17.569 36.4877 17.481C36.3998 17.3931 36.2806 17.3438 36.1562 17.3438H19.2812C19.1569 17.3438 19.0377 17.3931 18.9498 17.481C18.8619 17.569 18.8125 17.6882 18.8125 17.8125V25.3125C18.8125 25.4368 18.8619 25.556 18.9498 25.644C19.0377 25.7319 19.1569 25.7812 19.2812 25.7812ZM19.75 18.2812H35.6875V24.8438H19.75V18.2812Z" fill="#5B93FF"/>
<path d="M18.8125 31.4061H21.625C21.7493 31.4061 21.8685 31.3567 21.9565 31.2688C22.0444 31.1809 22.0937 31.0616 22.0937 30.9373V28.317L23.3641 27.0514L22.6984 26.3857L21.4328 27.6561H18.8125C18.6882 27.6561 18.569 27.7054 18.481 27.7933C18.3931 27.8813 18.3438 28.0005 18.3438 28.1248V30.9373C18.3438 31.0616 18.3931 31.1809 18.481 31.2688C18.569 31.3567 18.6882 31.4061 18.8125 31.4061ZM21.1562 30.4686H19.9422L21.1562 29.2545V30.4686ZM20.4953 28.5936L19.2812 29.8076V28.5936H20.4953Z" fill="#5B93FF"/>
<path d="M21.625 37.0312H18.8125C18.6882 37.0312 18.569 37.0806 18.481 37.1685C18.3931 37.2565 18.3438 37.3757 18.3438 37.5V40.3125C18.3438 40.4368 18.3931 40.556 18.481 40.644C18.569 40.7319 18.6882 40.7812 18.8125 40.7812H21.625C21.7493 40.7812 21.8685 40.7319 21.9565 40.644C22.0444 40.556 22.0938 40.4368 22.0938 40.3125V37.5C22.0938 37.3757 22.0444 37.2565 21.9565 37.1685C21.8685 37.0806 21.7493 37.0312 21.625 37.0312ZM21.1562 39.8438H19.2812V37.9688H21.1562V39.8438Z" fill="#5B93FF"/>
<path d="M22.2297 31.542L21.4328 32.3436H18.8125C18.6882 32.3436 18.569 32.3929 18.481 32.4808C18.3931 32.5688 18.3438 32.688 18.3438 32.8123V35.6248C18.3438 35.7491 18.3931 35.8684 18.481 35.9563C18.569 36.0442 18.6882 36.0936 18.8125 36.0936H21.625C21.7493 36.0936 21.8685 36.0442 21.9565 35.9563C22.0444 35.8684 22.0937 35.7491 22.0937 35.6248V33.0045L22.8953 32.2076L22.2297 31.542ZM20.4953 33.2811L19.2812 34.4951V33.2811H20.4953ZM21.1562 35.1561H19.9422L21.1562 33.942V35.1561Z" fill="#5B93FF"/>
<path d="M23.0312 28.125H36.625V29.0625H23.0312V28.125Z" fill="#5B93FF"/>
<path d="M23.0312 37.5H29.125V38.4375H23.0312V37.5Z" fill="#5B93FF"/>
<path d="M23.0312 39.375H36.625V40.3125H23.0312V39.375Z" fill="#5B93FF"/>
<path d="M45.3953 25.4484L43.5203 23.5734C43.4767 23.5295 43.4249 23.4946 43.3678 23.4708C43.3106 23.447 43.2494 23.4348 43.1875 23.4348C43.1256 23.4348 43.0644 23.447 43.0072 23.4708C42.9501 23.4946 42.8983 23.5295 42.8547 23.5734L38.9688 27.4641V15.9375C38.9688 15.8132 38.9194 15.694 38.8315 15.606C38.7435 15.5181 38.6243 15.4688 38.5 15.4688H16.9375C16.8132 15.4688 16.694 15.5181 16.606 15.606C16.5181 15.694 16.4688 15.8132 16.4688 15.9375V44.0625C16.4688 44.1868 16.5181 44.306 16.606 44.394C16.694 44.4819 16.8132 44.5312 16.9375 44.5312H38.5C38.6243 44.5312 38.7435 44.4819 38.8315 44.394C38.9194 44.306 38.9688 44.1868 38.9688 44.0625V32.5359L45.3953 26.1141C45.4392 26.0705 45.4741 26.0186 45.4979 25.9615C45.5217 25.9044 45.534 25.8431 45.534 25.7812C45.534 25.7194 45.5217 25.6581 45.4979 25.601C45.4741 25.5439 45.4392 25.492 45.3953 25.4484ZM32.0969 35.9766L32.9922 36.8719L31.4219 37.5469L32.0969 35.9766ZM32.5984 35.1562L41.3125 26.4422L42.5266 27.6562L33.8125 36.3703L32.5984 35.1562ZM38.0312 43.5938H17.4062V16.4062H38.0312V28.4016L36.4328 30H23.0312V30.9375H35.4953L33.6203 32.8125H23.0312V33.75H32.6828L31.7453 34.6875H23.0312V35.625H31.225L30.1 38.2547C30.0698 38.3259 30.0578 38.4035 30.0649 38.4806C30.072 38.5576 30.098 38.6317 30.1407 38.6962C30.1834 38.7607 30.2415 38.8137 30.3096 38.8503C30.3777 38.887 30.4539 38.9062 30.5312 38.9062C30.5941 38.9061 30.6563 38.8934 30.7141 38.8687L33.9953 37.4625C34.0506 37.4386 34.1014 37.4053 34.1453 37.3641L38.0312 33.4734V43.5938ZM43.1875 26.9953L41.9734 25.7812L43.1875 24.5672L44.4016 25.7812L43.1875 26.9953Z" fill="#5B93FF"/>
</svg>
