<svg width="60" height="60" viewBox="0 0 60 60" fill="none" xmlns="http://www.w3.org/2000/svg">
<rect opacity="0.1" width="60" height="60" rx="30" fill="#5B93FF"/>
<g clip-path="url(#clip0_276_2070)">
<path d="M44.8957 36.3653L45.7141 36.3653C46.1995 36.3653 46.593 35.9718 46.593 35.4864C46.593 35.0009 46.1995 34.6075 45.7141 34.6075H16.7117C16.2263 34.6075 15.8328 35.0009 15.8328 35.4864C15.8328 35.9718 16.2263 36.3653 16.7117 36.3653L17.5301 36.3653C18.2743 38.0233 19.3066 39.5198 20.6062 40.8195C23.4394 43.6526 27.2062 45.2129 31.2128 45.2129C35.2195 45.2129 38.9863 43.6526 41.8195 40.8195C43.1191 39.5198 44.1514 38.0232 44.8957 36.3653ZM37.6762 36.6763C34.1123 40.2402 28.3134 40.2402 24.7495 36.6763C24.6482 36.5751 24.55 36.471 24.4538 36.3653L37.9726 36.3653C37.8762 36.4711 37.7776 36.5749 37.6762 36.6763ZM21.8492 39.5765C20.8931 38.6204 20.1018 37.5437 19.4844 36.3652L22.2167 36.3652C22.5969 36.92 23.0288 37.4415 23.5065 37.9193C27.7558 42.1686 34.6699 42.1685 38.9192 37.9193C39.3969 37.4415 39.8287 36.92 40.209 36.3652H42.9434C42.3256 37.5439 41.5328 38.6202 40.5765 39.5765C35.4134 44.7397 27.0123 44.7397 21.8492 39.5765Z" fill="#5B93FF"/>
<path d="M46.593 24.9398C46.593 24.4544 46.1995 24.0609 45.7141 24.0609L44.8957 24.0609C44.1514 22.4028 43.1192 20.9063 41.8195 19.6066C38.9864 16.7735 35.2195 15.2132 31.2129 15.2131C27.2062 15.2132 23.4394 16.7735 20.6063 19.6066C19.3066 20.9063 18.2743 22.4029 17.5301 24.0608L17.5303 24.0608L16.7116 24.0608C16.2262 24.0608 15.8327 24.4543 15.8327 24.9397C15.8327 25.4252 16.2262 25.8186 16.7116 25.8186L45.7141 25.8186C46.1995 25.8187 46.593 25.4252 46.593 24.9398ZM40.5765 20.8496C41.5327 21.8058 42.3245 22.8823 42.9421 24.0609L40.209 24.0609C39.8288 23.5061 39.397 22.9846 38.9192 22.5068C34.67 18.2576 27.7558 18.2576 23.5065 22.5068C23.0289 22.9845 22.597 23.5061 22.2168 24.0609L19.4835 24.0609C20.1011 22.8823 20.893 21.8058 21.8493 20.8496C27.0123 15.6865 35.4134 15.6864 40.5765 20.8496ZM24.4529 24.0609C24.5493 23.955 24.6481 23.8512 24.7495 23.7498C28.3134 20.1859 34.1124 20.1859 37.6763 23.7498C37.7775 23.8511 37.8758 23.9551 37.9721 24.0608L28.7362 24.0609H24.4529Z" fill="#5B93FF"/>
<path d="M19.068 31.1377C18.8821 30.9817 18.6049 31.006 18.4489 31.192C18.4182 31.2286 18.3852 31.2627 18.3507 31.2934C18.1735 31.4512 17.9473 31.5312 17.6782 31.5311C17.3261 31.5311 16.995 31.394 16.746 31.145C16.497 30.896 16.3599 30.565 16.3599 30.2128C16.3599 29.4859 16.9513 28.8945 17.6782 28.8945C17.9424 28.8945 18.1973 28.9723 18.4151 29.1193C18.6162 29.2552 18.8894 29.2023 19.0252 29.0012C19.1611 28.8002 19.108 28.5272 18.9071 28.3911C18.5435 28.1454 18.1185 28.0156 17.6783 28.0156C16.4667 28.0156 15.481 29.0013 15.481 30.2128C15.481 30.7997 15.7096 31.3515 16.1246 31.7665C16.5397 32.1816 17.0914 32.4101 17.6783 32.4101C18.1625 32.4101 18.5971 32.251 18.9353 31.9498C19.0015 31.8909 19.0644 31.8259 19.1225 31.7568C19.2783 31.5708 19.2539 31.2936 19.068 31.1377Z" fill="#5B93FF"/>
<path d="M31.6978 31.1377C31.5118 30.9818 31.2346 31.0061 31.0787 31.192C31.048 31.2286 31.015 31.2628 30.9805 31.2935C30.8033 31.4512 30.577 31.5312 30.3079 31.5312C29.9559 31.5312 29.6248 31.3941 29.3758 31.1451C29.1268 30.8961 28.9897 30.565 28.9897 30.2129C28.9897 29.486 29.5811 28.8946 30.308 28.8945C30.5722 28.8945 30.827 28.9723 31.0448 29.1194C31.2459 29.2553 31.5191 29.2024 31.655 29.0013C31.7908 28.8003 31.7384 28.5273 31.5369 28.3911C31.1733 28.1455 30.7484 28.0156 30.3081 28.0156C29.0965 28.0157 28.1108 29.0013 28.1108 30.2128C28.1108 30.7997 28.3394 31.3515 28.7544 31.7665C29.1694 32.1816 29.7212 32.4101 30.3081 32.4101C30.7923 32.4101 31.227 32.251 31.5651 31.9498C31.6313 31.8909 31.6942 31.8259 31.7523 31.7568C31.9081 31.5709 31.8834 31.2932 31.6978 31.1377Z" fill="#5B93FF"/>
<path d="M34.3558 31.531L33.314 31.531L33.314 30.6521H34.2467C34.4894 30.6521 34.6861 30.4553 34.6861 30.2127C34.6861 29.9699 34.4893 29.7732 34.2466 29.7732L33.314 29.7732L33.314 28.8944L34.3559 28.8944C34.5986 28.8944 34.7954 28.6976 34.7954 28.4549C34.7953 28.2122 34.5986 28.0155 34.3559 28.0155H32.8745C32.758 28.0155 32.6462 28.0618 32.5638 28.1442C32.4814 28.2266 32.4351 28.3384 32.4351 28.4549L32.4351 31.9706C32.4351 32.0871 32.4814 32.1988 32.5639 32.2813C32.6463 32.3637 32.758 32.41 32.8746 32.41L34.3559 32.41C34.5986 32.41 34.7954 32.2133 34.7953 31.9706C34.7954 31.7278 34.5986 31.531 34.3558 31.531Z" fill="#5B93FF"/>
<path d="M42.8521 31.531L41.8102 31.531V30.6521L42.7428 30.6521C42.9856 30.6521 43.1823 30.4554 43.1823 30.2127C43.1823 29.97 42.9856 29.7733 42.7429 29.7733L41.8102 29.7733L41.8102 28.8944L42.8521 28.8944C43.0948 28.8944 43.2915 28.6977 43.2915 28.455C43.2915 28.2123 43.0947 28.0155 42.8521 28.0155L41.3707 28.0153C41.2542 28.0153 41.1425 28.0617 41.06 28.1441C40.9776 28.2265 40.9313 28.3383 40.9313 28.4548L40.9313 30.2121L40.9313 30.2126C40.9313 30.2126 40.9313 30.2128 40.9313 30.213L40.9313 31.9704C40.9314 32.0918 40.9805 32.2017 41.06 32.2812C41.1396 32.3607 41.2494 32.4099 41.3708 32.4099L42.8522 32.4099C43.0949 32.4099 43.2917 32.2132 43.2916 31.9705C43.2915 31.7277 43.0948 31.531 42.8521 31.531Z" fill="#5B93FF"/>
<path d="M23.4032 31.8152L22.0951 28.3489C22.0936 28.3449 22.0921 28.3408 22.0904 28.3368C22.0099 28.1412 21.8212 28.0149 21.6097 28.0153C21.3981 28.0156 21.2098 28.1422 21.1298 28.3381C21.1284 28.3414 21.1272 28.3446 21.1259 28.3479L19.8057 31.8139C19.7421 31.981 19.7871 32.1627 19.9058 32.2814C19.9483 32.3239 20.0002 32.3583 20.06 32.3811C20.2867 32.4675 20.5407 32.3536 20.627 32.1268L20.848 31.5466L22.3624 31.5466L22.5809 32.1256C22.6666 32.3526 22.9202 32.4672 23.1472 32.3816C23.3744 32.2958 23.4889 32.0423 23.4032 31.8152ZM21.1829 30.6677L21.6088 29.5494L22.0308 30.6677H21.1829Z" fill="#5B93FF"/>
<path d="M27.4025 28.4513C27.4001 28.2087 27.2015 28.0138 26.9588 28.0161C26.7161 28.0185 26.5213 28.2172 26.5236 28.4598L26.5444 30.6022L24.894 28.2124C24.7844 28.0543 24.5852 27.9854 24.4015 28.0426C24.218 28.0999 24.0929 28.2699 24.0929 28.4622L24.0929 31.9712C24.0929 32.0926 24.1421 32.2024 24.2217 32.2819C24.3012 32.3614 24.411 32.4107 24.5324 32.4107C24.7751 32.4107 24.9719 32.2139 24.9719 31.9712L24.9718 29.8719L26.5434 32.1477C26.6729 32.3343 26.8879 32.4136 27.0922 32.3499C27.3007 32.2848 27.4354 32.0897 27.4354 31.8486L27.4025 28.4513Z" fill="#5B93FF"/>
<path d="M37.1583 31.5287C36.9167 31.53 36.6119 31.5313 36.3692 31.5316L36.3692 28.4555C36.3691 28.2127 36.1724 28.016 35.9297 28.016C35.687 28.016 35.4902 28.2128 35.4903 28.4554L35.4903 31.9681C35.4903 32.0885 35.5389 32.1989 35.6191 32.279C35.6815 32.3414 35.7629 32.3854 35.8551 32.4013C35.9015 32.4092 35.9323 32.4145 37.1632 32.4076C37.4059 32.4062 37.6016 32.2084 37.6002 31.9657C37.5988 31.723 37.4009 31.5273 37.1583 31.5287Z" fill="#5B93FF"/>
<path d="M39.8536 31.5286C39.5827 31.5302 39.2925 31.5313 39.0645 31.5316L39.0645 28.4555C39.0644 28.2127 38.8677 28.016 38.625 28.016C38.3823 28.016 38.1855 28.2128 38.1856 28.4554L38.1856 31.9681C38.1856 32.0885 38.2343 32.1989 38.3144 32.279C38.3769 32.3415 38.4585 32.3855 38.551 32.4014C38.5973 32.4093 38.6279 32.4145 39.8585 32.4076C40.1012 32.4063 40.2969 32.2084 40.2955 31.9657C40.2942 31.723 40.0964 31.5273 39.8536 31.5286Z" fill="#5B93FF"/>
<path d="M47.2969 30.2127C47.2969 28.8983 46.5497 28.0153 45.4378 28.0153L44.4421 28.0153C44.3254 28.0153 44.2135 28.0618 44.1311 28.1443C44.0486 28.2269 44.0024 28.3389 44.0027 28.4556C44.0027 28.4556 44.0027 28.4569 44.0027 28.4575C44.0027 28.4578 44.0026 28.458 44.0026 28.4584L44.0026 31.9132C44.0026 31.9427 44.0057 31.9715 44.0112 31.9995C44.0182 32.1054 44.063 32.2056 44.1384 32.2811L44.1396 32.2822C44.2223 32.3643 44.3343 32.4102 44.4508 32.4098C44.4809 32.4096 45.1909 32.4069 45.4746 32.402C46.5305 32.3836 47.2969 31.4628 47.2969 30.2127ZM45.4592 31.5232C45.3278 31.5255 45.0958 31.5274 44.8871 31.5287C44.8858 31.1134 44.8841 30.5107 44.8841 30.2086C44.884 29.9561 44.8831 29.3263 44.8823 28.8942L45.4377 28.8942C46.1605 28.8941 46.4179 29.5753 46.4179 30.2125C46.418 30.8566 46.1215 31.5117 45.4592 31.5232Z" fill="#5B93FF"/>
</g>
<defs>
<clipPath id="clip0_276_2070">
<rect width="30" height="30" fill="white" transform="translate(31.2129 9) rotate(45)"/>
</clipPath>
</defs>
</svg>
