<svg width="56" height="48" viewBox="0 0 56 48" fill="none" xmlns="http://www.w3.org/2000/svg">
<rect opacity="0.5" x="0.5" y="0.5" width="55" height="47" stroke="#0500A3"/>
<path d="M36.2035 22.9055H34.3051C34.1972 22.9055 34.0941 22.9523 34.0215 23.0344L28.891 28.9477V15.75C28.891 15.6469 28.8066 15.5625 28.7035 15.5625H27.2972C27.1941 15.5625 27.1097 15.6469 27.1097 15.75V28.9477L21.9793 23.0344C21.909 22.9523 21.8058 22.9055 21.6957 22.9055H19.7972C19.6379 22.9055 19.5511 23.0953 19.6566 23.2148L27.4355 32.1797C27.5058 32.2608 27.5928 32.3259 27.6904 32.3705C27.7881 32.415 27.8942 32.4381 28.0015 32.4381C28.1089 32.4381 28.215 32.415 28.3126 32.3705C28.4103 32.3259 28.4972 32.2608 28.5676 32.1797L36.3441 23.2148C36.4496 23.093 36.3629 22.9055 36.2035 22.9055Z" fill="#0500A3"/>
</svg>
