<svg width="60" height="60" viewBox="0 0 60 60" fill="none" xmlns="http://www.w3.org/2000/svg">
<rect opacity="0.1" width="60" height="60" rx="30" fill="#5B93FF"/>
<path d="M42.9492 28.1324H40.0832L32.5404 20.6391C32.6027 20.4158 32.6367 20.1809 32.6367 19.9382C32.6367 18.4915 31.4539 17.3145 30 17.3145C28.5461 17.3145 27.3633 18.4915 27.3633 19.9382C27.3633 20.1809 27.3973 20.4158 27.4596 20.6391L19.9168 28.1324H17.0508C15.92 28.1324 15 29.0524 15 30.1832V40.6348C15 41.7656 15.92 42.6855 17.0508 42.6855H42.9492C44.08 42.6855 45 41.7656 45 40.6348V30.1832C45 29.0524 44.08 28.1324 42.9492 28.1324ZM43.2422 40.6348C43.2422 40.7963 43.1108 40.9277 42.9492 40.9277H17.0508C16.8892 40.9277 16.7578 40.7963 16.7578 40.6348V30.1832C16.7578 30.0216 16.8892 29.8902 17.0508 29.8902H42.9492C43.1108 29.8902 43.2422 30.0216 43.2422 30.1832V40.6348ZM30 20.8041C29.5154 20.8041 29.1211 20.4156 29.1211 19.9382C29.1211 19.4608 29.5154 19.0723 30 19.0723C30.4846 19.0723 30.8789 19.4607 30.8789 19.9382C30.8789 20.4156 30.4846 20.8041 30 20.8041ZM28.4934 22.0896C28.9208 22.3869 29.4401 22.5619 30 22.5619C30.5599 22.5619 31.0791 22.3869 31.5066 22.0896L37.5943 28.1324H22.4057L28.4934 22.0896Z" fill="#5B93FF"/>
<path d="M24.6194 36.7536C24.3593 36.755 24.0852 36.7561 23.8545 36.7565V33.4756C23.8545 33.152 23.5922 32.8896 23.2686 32.8896C22.9449 32.8896 22.6826 33.152 22.6826 33.4756V37.3395C22.6826 37.6249 22.8882 37.8688 23.1695 37.917C23.2116 37.9242 24.1837 37.9279 24.6259 37.9254C24.9496 37.9236 25.2104 37.6598 25.2086 37.3362C25.2068 37.0126 24.9414 36.754 24.6194 36.7536Z" fill="#5B93FF"/>
<path d="M21.8983 36.3479C21.6503 36.14 21.2808 36.1724 21.0728 36.4204C21.0423 36.4568 21.0095 36.4908 20.9752 36.5213C20.7997 36.6776 20.5738 36.7568 20.3037 36.7568C19.5606 36.7568 18.956 36.1523 18.956 35.4092C18.956 34.666 19.5606 34.0615 20.3037 34.0615C20.5737 34.0615 20.8342 34.141 21.0568 34.2914C21.3249 34.4725 21.6892 34.402 21.8703 34.1338C22.0514 33.8656 21.9809 33.5014 21.7128 33.3203C21.2957 33.0385 20.8084 32.8896 20.3037 32.8896C18.9145 32.8896 17.7842 34.0199 17.7842 35.4092C17.7842 36.7984 18.9145 37.9287 20.3037 37.9287C20.8619 37.9287 21.3636 37.7447 21.7547 37.3964C21.8313 37.3282 21.904 37.2532 21.9709 37.1734C22.1787 36.9254 22.1462 36.5559 21.8983 36.3479Z" fill="#5B93FF"/>
<path d="M27.752 32.8896C26.3627 32.8896 25.2324 34.0199 25.2324 35.4092C25.2324 36.7984 26.3627 37.9287 27.752 37.9287C29.1412 37.9287 30.2715 36.7984 30.2715 35.4092C30.2715 34.0199 29.1413 32.8896 27.752 32.8896ZM27.752 36.7568C27.0089 36.7568 26.4043 36.1523 26.4043 35.4092C26.4043 34.666 27.0089 34.0615 27.752 34.0615C28.495 34.0615 29.0996 34.666 29.0996 35.4092C29.0996 36.1523 28.495 36.7568 27.752 36.7568Z" fill="#5B93FF"/>
<path d="M37.3148 34.0635C37.6384 34.0635 37.9007 33.8011 37.9007 33.4775C37.9007 33.154 37.6384 32.8916 37.3148 32.8916H35.7002C35.3766 32.8916 35.1143 33.154 35.1143 33.4775V37.3094C35.1143 37.6329 35.3766 37.8953 35.7002 37.8953H37.3148C37.6384 37.8953 37.9007 37.6329 37.9007 37.3094C37.9007 36.9858 37.6384 36.7235 37.3148 36.7235H36.2861V35.9794H37.1957C37.5194 35.9794 37.7817 35.7171 37.7817 35.3935C37.7817 35.0699 37.5194 34.8076 37.1957 34.8076H36.2861V34.0635H37.3148Z" fill="#5B93FF"/>
<path d="M40.1146 32.9307H39.0518C38.8962 32.9307 38.747 32.9925 38.637 33.1027C38.5271 33.2129 38.4655 33.3621 38.4658 33.5177V33.5204V33.5205V37.2084C38.4658 37.244 38.4695 37.2787 38.4756 37.3127C38.486 37.453 38.5461 37.5855 38.6466 37.6852C38.7564 37.7942 38.9047 37.8553 39.0594 37.8553H39.0616C39.0937 37.8552 39.8524 37.8522 40.156 37.8469C41.3496 37.8261 42.2161 36.794 42.2161 35.3929C42.2161 33.9201 41.3715 32.9307 40.1146 32.9307ZM40.1355 36.6753C40.0199 36.6773 39.831 36.679 39.6434 36.6803C39.642 36.2471 39.6405 35.6837 39.6405 35.3888C39.6405 35.1412 39.6395 34.5541 39.6388 34.1025H40.1146C40.9771 34.1025 41.0442 35.0903 41.0442 35.3929C41.0442 36.0233 40.7632 36.6643 40.1355 36.6753Z" fill="#5B93FF"/>
<path d="M33.1655 34.8895C32.7099 34.7215 32.2859 34.5399 32.1204 34.4677C32.0625 34.4151 32.0626 34.3454 32.0679 34.3081C32.0752 34.2571 32.1136 34.1322 32.312 34.0724C32.8128 33.9216 33.2795 34.2876 33.2987 34.3029C33.5442 34.5067 33.911 34.4737 34.1164 34.2294C34.2164 34.1106 34.264 33.9597 34.2506 33.8045C34.2372 33.6494 34.1643 33.5088 34.0455 33.4089C34.0071 33.3766 33.0928 32.621 31.9762 32.957C31.4017 33.1302 30.995 33.5844 30.9149 34.1425C30.8394 34.6687 31.0675 35.1747 31.5104 35.4634C31.5366 35.4804 31.5641 35.4954 31.5923 35.5079C31.6499 35.5336 32.1729 35.7649 32.7625 35.9824C32.8452 36.013 33.2554 36.1767 33.214 36.4087C33.1826 36.5847 32.9485 36.7746 32.6251 36.7746C32.2634 36.7746 31.9162 36.6298 31.6963 36.3873C31.4807 36.1494 31.1116 36.1312 30.8736 36.3469C30.6357 36.5626 30.6176 36.9316 30.8332 37.1696C31.2702 37.6517 31.94 37.9395 32.6251 37.9395C33.4936 37.9395 34.2236 37.3818 34.3608 36.6134C34.4645 36.0315 34.2052 35.273 33.1655 34.8895Z" fill="#5B93FF"/>
</svg>
