<svg width="60" height="60" viewBox="0 0 60 60" fill="none" xmlns="http://www.w3.org/2000/svg">
<rect opacity="0.1" width="60" height="60" rx="30" fill="#5B93FF"/>
<g clip-path="url(#clip0_276_2876)">
<path d="M22.4836 31.5145C18.1008 31.0771 14.7884 27.3196 14.9427 22.9603C15.1046 18.3866 18.9976 14.799 23.6188 14.9625C25.6703 15.0351 27.6196 15.8493 29.1076 17.2547C29.5482 17.671 30.192 16.9893 29.7513 16.5732C28.0975 15.0111 25.9314 14.1063 23.652 14.0256C18.5136 13.8416 14.186 17.8368 14.0058 22.9271C13.834 27.7792 17.517 31.961 22.3905 32.4474C22.9781 32.5061 23.0716 31.5732 22.4836 31.5145V31.5145Z" fill="#5B93FF"/>
<path d="M23.5611 16.6C22.9551 16.5791 22.9224 17.5154 23.5279 17.5368C24.6337 17.576 25.6972 17.9236 26.6037 18.5422C27.087 18.872 27.6435 18.1169 27.1321 17.7678C26.079 17.0493 24.8442 16.6454 23.5611 16.6V16.6Z" fill="#5B93FF"/>
<path d="M21.2592 17.9075C21.8262 17.6934 21.4949 16.8162 20.9279 17.0305C18.3972 17.9865 16.7006 20.3373 16.6057 23.0194C16.5516 24.547 17.0341 26.0582 17.9643 27.2748C18.8804 28.4728 20.1896 29.3373 21.6506 29.709C22.2177 29.8536 22.4621 28.9481 21.8817 28.8004C20.6242 28.4805 19.4975 27.7365 18.709 26.7053C17.9103 25.6608 17.4961 24.3636 17.5425 23.0526C17.6241 20.7492 19.083 18.7296 21.2592 17.9075V17.9075Z" fill="#5B93FF"/>
<path d="M45.0031 29.4688C44.9715 29.4559 44.9393 29.4438 44.9065 29.4326L24.5568 22.4746C23.2332 22.0218 21.913 23.3231 22.3725 24.6521L29.3693 44.8889C29.8703 46.3388 31.998 46.355 32.4819 44.8781L33.7909 40.8819C33.9797 40.306 33.0888 40.014 32.9 40.59L31.591 44.5863C31.3816 45.2254 30.4772 45.2242 30.2553 44.5825L23.2585 24.3456C23.0487 23.7387 23.653 23.1563 24.2535 23.3616L44.6033 30.3196C45.2412 30.538 45.1855 31.455 44.5657 31.6529L35.0341 34.6989C34.8908 34.7447 34.7782 34.8565 34.7313 34.9995L33.6928 38.1699C33.5042 38.7458 34.3952 39.038 34.5837 38.4618L35.5477 35.5191L44.8511 32.5461C46.2534 32.0979 46.3907 30.0352 45.0031 29.4688V29.4688Z" fill="#5B93FF"/>
<path d="M33.5585 22.8892C33.5918 22.8949 34.4013 22.898 34.7664 22.8959C35.3719 22.8925 35.3683 21.9516 34.7611 21.9584C34.5378 21.9597 34.3021 21.9606 34.1064 21.961V19.2143C34.1064 18.6083 33.1689 18.6083 33.1689 19.2143V22.4272C33.169 22.6556 33.3334 22.8506 33.5585 22.8892Z" fill="#5B93FF"/>
<path d="M41.9209 22.8987C42.1798 22.8987 42.3896 22.6889 42.3896 22.4299V21.7546L43.4393 22.7672C43.8737 23.1865 44.5275 22.5144 44.0902 22.0926L42.7075 20.7585L43.9678 19.6C44.4141 19.1899 43.7796 18.4996 43.3335 18.9098L42.3896 19.7773V19.2143C42.3896 18.6083 41.4521 18.6083 41.4521 19.2143V22.4299C41.4521 22.6889 41.662 22.8987 41.9209 22.8987Z" fill="#5B93FF"/>
<path d="M36.2764 22.8986C36.5353 22.8986 36.7451 22.6888 36.7451 22.4299V19.2143C36.7451 18.6083 35.8076 18.6083 35.8076 19.2143V22.4299C35.8076 22.6888 36.0174 22.8986 36.2764 22.8986Z" fill="#5B93FF"/>
<path d="M45.5312 18.7461C45.2723 18.7461 45.0625 18.9559 45.0625 19.2148V20.9389C45.0625 21.545 46 21.545 46 20.9389V19.2148C46 18.956 45.7901 18.7461 45.5312 18.7461V18.7461Z" fill="#5B93FF"/>
<path d="M29.0371 20.8227C29.0371 21.9677 29.9686 22.8993 31.1137 22.8993C31.6404 22.8993 32.146 22.6835 32.4859 22.2777C32.8751 21.8132 32.1566 21.2113 31.7672 21.6757C31.6115 21.8615 31.3513 21.9618 31.1137 21.9618C30.4856 21.9618 29.9746 21.4508 29.9746 20.8227C29.9746 20.1947 30.4856 19.6837 31.1137 19.6837C31.3419 19.6837 31.562 19.7508 31.7502 19.8779C32.2525 20.217 32.7773 19.4403 32.275 19.101C31.9313 18.8688 31.5297 18.7461 31.1137 18.7461C29.9686 18.7462 29.0371 19.6777 29.0371 20.8227V20.8227Z" fill="#5B93FF"/>
<path d="M39.3959 22.8993C39.9226 22.8993 40.4277 22.6834 40.7678 22.278C41.1575 21.8138 40.4391 21.211 40.0497 21.6754C39.8935 21.8613 39.6341 21.9618 39.3959 21.9618C38.7678 21.9618 38.2568 21.4508 38.2568 20.8227C38.2568 20.1947 38.7678 19.6837 39.3959 19.6837C39.6241 19.6837 39.8443 19.7508 40.0325 19.8779C40.5345 20.2175 41.0594 19.4402 40.5572 19.101C40.2135 18.8688 39.8119 18.7461 39.396 18.7461C38.251 18.7461 37.3193 19.6776 37.3193 20.8227C37.3193 21.9677 38.2509 22.8993 39.3959 22.8993V22.8993Z" fill="#5B93FF"/>
<path d="M45.5309 21.8945C44.9277 21.8945 44.9267 22.832 45.5309 22.832C46.1341 22.832 46.1351 21.8945 45.5309 21.8945V21.8945Z" fill="#5B93FF"/>
</g>
<defs>
<clipPath id="clip0_276_2876">
<rect width="32" height="32" fill="white" transform="translate(14 14)"/>
</clipPath>
</defs>
</svg>
