<svg width="24" height="24" viewBox="0 0 24 24" fill="none" xmlns="http://www.w3.org/2000/svg">
<path d="M11.3755 18.2741V24.0003C13.7257 23.8466 15.9285 22.9342 17.699 21.381L13.6501 17.332C12.9815 17.8341 12.2033 18.1565 11.3755 18.2741Z" fill="white"/>
<path d="M10.1136 8.3801L10.6612 8.31978L11.4866 2.65039H10.6629C8.04723 2.65039 5.57536 3.58436 3.62695 5.29358L7.67609 9.34276C8.38517 8.80928 9.21555 8.47903 10.1136 8.3801Z" fill="white"/>
<path d="M15.6157 13.9241C15.5118 14.8078 15.1833 15.6249 14.6572 16.3241L18.7064 20.3733C20.4157 18.4249 21.3496 15.953 21.3496 13.3373V12.5137L15.6156 13.3482V13.9241H15.6157Z" fill="white"/>
<path d="M6.66829 10.3497L2.61934 6.30078C1.06611 8.07131 0.153652 10.2741 0 12.6243H5.72615C5.8438 11.7965 6.16611 11.0183 6.66829 10.3497Z" fill="white"/>
<path d="M3.62695 21.381C5.39744 22.9342 7.60024 23.8466 9.95046 24.0003V18.2742C9.12265 18.1565 8.34451 17.8341 7.6759 17.332L3.62695 21.381Z" fill="white"/>
<path d="M5.72615 14.0488H0C0.153652 16.399 1.06611 18.6018 2.6193 20.3723L6.66824 16.3234C6.16611 15.6548 5.8438 14.8766 5.72615 14.0488Z" fill="white"/>
<path d="M16.2227 2.74219L18.2374 0.727413L23.2713 5.76127L21.2565 7.77605L16.2227 2.74219Z" fill="white"/>
<path d="M23.5825 0.417365L23.5824 0.417317C23.026 -0.139106 22.1238 -0.139106 21.5673 0.417317L20.7568 1.2278L22.772 3.24294L23.5825 2.43241C24.1389 1.87599 24.1389 0.973788 23.5825 0.417365Z" fill="white"/>
<path d="M9.44678 14.5536H11.4619L18.7386 7.27686L16.7235 5.26172L9.44678 12.5385V14.5536Z" fill="white"/>
</svg>
