<svg width="30" height="30" viewBox="0 0 30 30" fill="none" xmlns="http://www.w3.org/2000/svg">
<path d="M13.3337 3.00033C13.3337 1.71233 12.2883 0.666992 11.0003 0.666992H3.00033C1.71233 0.666992 0.666992 1.71233 0.666992 3.00033V11.0003C0.666992 12.2883 1.71233 13.3337 3.00033 13.3337H11.0003C12.2883 13.3337 13.3337 12.2883 13.3337 11.0003V3.00033Z" fill="#8A62CC"/>
<path d="M13.3337 19.0003C13.3337 17.7123 12.2883 16.667 11.0003 16.667H3.00033C1.71233 16.667 0.666992 17.7123 0.666992 19.0003V27.0003C0.666992 28.2883 1.71233 29.3337 3.00033 29.3337H11.0003C12.2883 29.3337 13.3337 28.2883 13.3337 27.0003V19.0003Z" fill="#8A62CC"/>
<path d="M29.3337 3.00033C29.3337 1.71233 28.2883 0.666992 27.0003 0.666992H19.0003C17.7123 0.666992 16.667 1.71233 16.667 3.00033V11.0003C16.667 12.2883 17.7123 13.3337 19.0003 13.3337H27.0003C28.2883 13.3337 29.3337 12.2883 29.3337 11.0003V3.00033Z" fill="#8A62CC"/>
<path d="M22 17.667V28.3337C22 28.8857 22.448 29.3337 23 29.3337C23.552 29.3337 24 28.8857 24 28.3337V17.667C24 17.115 23.552 16.667 23 16.667C22.448 16.667 22 17.115 22 17.667Z" fill="#8A62CC"/>
<path d="M17.667 24H28.3337C28.8857 24 29.3337 23.552 29.3337 23C29.3337 22.448 28.8857 22 28.3337 22H17.667C17.115 22 16.667 22.448 16.667 23C16.667 23.552 17.115 24 17.667 24Z" fill="#8A62CC"/>
</svg>
