<svg width="56" height="48" viewBox="0 0 56 48" fill="none" xmlns="http://www.w3.org/2000/svg">
<rect opacity="0.5" x="55.5" y="47.5" width="55" height="47" transform="rotate(-180 55.5 47.5)" stroke="#0500A3"/>
<path d="M19.797 25.0945L21.6954 25.0945C21.8033 25.0945 21.9064 25.0477 21.979 24.9656L27.1095 19.0523L27.1095 32.25C27.1095 32.3531 27.1939 32.4375 27.297 32.4375L28.7032 32.4375C28.8064 32.4375 28.8907 32.3531 28.8907 32.25L28.8908 19.0523L34.0212 24.9656C34.0915 25.0477 34.1947 25.0945 34.3048 25.0945L36.2032 25.0945C36.3626 25.0945 36.4493 24.9047 36.3439 24.7852L28.565 15.8203C28.4947 15.7392 28.4077 15.6741 28.3101 15.6295C28.2124 15.585 28.1063 15.5619 27.999 15.5619C27.8916 15.5619 27.7855 15.585 27.6878 15.6295C27.5902 15.6741 27.5033 15.7392 27.4329 15.8203L19.6564 24.7852C19.5509 24.907 19.6376 25.0945 19.797 25.0945Z" fill="#0500A3"/>
</svg>
