<svg width="144" height="25" viewBox="0 0 144 25" fill="none" xmlns="http://www.w3.org/2000/svg">
<path d="M30.056 18.162C28.808 18.162 27.74 17.898 26.852 17.37C25.964 16.842 25.28 16.092 24.8 15.12C24.332 14.148 24.098 12.99 24.098 11.646C24.098 10.314 24.332 9.162 24.8 8.19C25.28 7.218 25.964 6.468 26.852 5.94C27.74 5.412 28.808 5.148 30.056 5.148C30.8 5.148 31.508 5.256 32.18 5.472C32.852 5.688 33.434 5.994 33.926 6.39C34.13 6.534 34.244 6.702 34.268 6.894C34.304 7.086 34.274 7.26 34.178 7.416C34.082 7.56 33.944 7.656 33.764 7.704C33.596 7.74 33.404 7.68 33.188 7.524C32.336 6.84 31.304 6.498 30.092 6.498C28.664 6.498 27.572 6.948 26.816 7.848C26.06 8.748 25.682 10.014 25.682 11.646C25.682 13.29 26.06 14.562 26.816 15.462C27.572 16.362 28.664 16.812 30.092 16.812C31.304 16.812 32.348 16.464 33.224 15.768C33.44 15.624 33.632 15.57 33.8 15.606C33.98 15.642 34.112 15.732 34.196 15.876C34.292 16.02 34.328 16.182 34.304 16.362C34.28 16.542 34.178 16.704 33.998 16.848C33.482 17.28 32.888 17.61 32.216 17.838C31.544 18.054 30.824 18.162 30.056 18.162ZM39.1433 18.162C38.2793 18.162 37.6193 17.904 37.1633 17.388C36.7073 16.86 36.4793 16.098 36.4793 15.102V5.922C36.4793 5.43 36.7193 5.184 37.1993 5.184C37.6913 5.184 37.9373 5.43 37.9373 5.922V14.994C37.9373 16.278 38.4473 16.92 39.4673 16.92C39.5753 16.92 39.6713 16.914 39.7553 16.902C39.8393 16.89 39.9233 16.884 40.0073 16.884C40.1393 16.872 40.2293 16.902 40.2773 16.974C40.3373 17.046 40.3673 17.19 40.3673 17.406C40.3673 17.814 40.1633 18.048 39.7553 18.108C39.6593 18.132 39.5573 18.144 39.4493 18.144C39.3413 18.156 39.2393 18.162 39.1433 18.162ZM42.5255 7.146C41.8895 7.146 41.5715 6.846 41.5715 6.246C41.5715 5.658 41.8895 5.364 42.5255 5.364C43.1615 5.364 43.4795 5.658 43.4795 6.246C43.4795 6.846 43.1615 7.146 42.5255 7.146ZM42.5255 18.09C42.0455 18.09 41.8055 17.826 41.8055 17.298V9.936C41.8055 9.42 42.0455 9.162 42.5255 9.162C43.0175 9.162 43.2635 9.42 43.2635 9.936V17.298C43.2635 17.826 43.0175 18.09 42.5255 18.09ZM49.6971 18.162C48.8211 18.162 48.0651 17.976 47.4291 17.604C46.7931 17.22 46.3011 16.686 45.9531 16.002C45.6171 15.306 45.4491 14.496 45.4491 13.572C45.4491 12.18 45.8271 11.088 46.5831 10.296C47.3391 9.492 48.3771 9.09 49.6971 9.09C50.1291 9.09 50.5791 9.162 51.0471 9.306C51.5151 9.438 51.9411 9.66 52.3251 9.972C52.5291 10.116 52.6131 10.296 52.5771 10.512C52.5531 10.728 52.4511 10.89 52.2711 10.998C52.1031 11.106 51.9051 11.082 51.6771 10.926C51.3531 10.686 51.0291 10.518 50.7051 10.422C50.3931 10.326 50.0871 10.278 49.7871 10.278C48.8751 10.278 48.1731 10.566 47.6811 11.142C47.1891 11.706 46.9431 12.522 46.9431 13.59C46.9431 14.634 47.1891 15.462 47.6811 16.074C48.1731 16.674 48.8751 16.974 49.7871 16.974C50.0871 16.974 50.3931 16.926 50.7051 16.83C51.0291 16.734 51.3531 16.566 51.6771 16.326C51.9051 16.17 52.1031 16.152 52.2711 16.272C52.4391 16.38 52.5291 16.542 52.5411 16.758C52.5651 16.974 52.4811 17.148 52.2891 17.28C51.9051 17.592 51.4851 17.82 51.0291 17.964C50.5731 18.096 50.1291 18.162 49.6971 18.162ZM55.0411 18.126C54.5611 18.126 54.3211 17.874 54.3211 17.37V5.922C54.3211 5.43 54.5611 5.184 55.0411 5.184C55.5331 5.184 55.7791 5.43 55.7791 5.922V13.14H55.8151L59.5051 9.612C59.6611 9.456 59.8051 9.336 59.9371 9.252C60.0691 9.168 60.2431 9.126 60.4591 9.126C60.7471 9.126 60.9331 9.24 61.0171 9.468C61.1131 9.684 61.0531 9.906 60.8371 10.134L57.3271 13.464L61.1791 17.082C61.4311 17.322 61.4971 17.556 61.3771 17.784C61.2691 18.012 61.0831 18.126 60.8191 18.126C60.6031 18.126 60.4231 18.084 60.2791 18C60.1471 17.904 59.9911 17.766 59.8111 17.586L55.8151 13.896H55.7791V17.37C55.7791 17.874 55.5331 18.126 55.0411 18.126ZM71.4718 18.162C70.4398 18.162 69.6658 17.892 69.1498 17.352C68.6338 16.8 68.3758 16.008 68.3758 14.976V10.386H67.1698C66.7498 10.386 66.5397 10.194 66.5397 9.81C66.5397 9.438 66.7498 9.252 67.1698 9.252H68.3758V7.182C68.3758 6.69 68.6218 6.444 69.1138 6.444C69.5938 6.444 69.8338 6.69 69.8338 7.182V9.252H72.1018C72.5218 9.252 72.7318 9.438 72.7318 9.81C72.7318 10.194 72.5218 10.386 72.1018 10.386H69.8338V14.832C69.8338 15.516 69.9778 16.038 70.2658 16.398C70.5538 16.746 71.0218 16.92 71.6698 16.92C71.8978 16.92 72.0898 16.896 72.2458 16.848C72.4018 16.8 72.5398 16.776 72.6598 16.776C72.7678 16.764 72.8578 16.8 72.9298 16.884C73.0018 16.968 73.0378 17.112 73.0378 17.316C73.0378 17.46 73.0078 17.592 72.9478 17.712C72.8998 17.832 72.8098 17.916 72.6778 17.964C72.5338 18.012 72.3418 18.054 72.1018 18.09C71.8738 18.138 71.6638 18.162 71.4718 18.162ZM77.8028 18.162C76.9508 18.162 76.2128 17.976 75.5888 17.604C74.9648 17.232 74.4788 16.71 74.1308 16.038C73.7948 15.354 73.6268 14.55 73.6268 13.626C73.6268 12.702 73.7948 11.904 74.1308 11.232C74.4788 10.548 74.9648 10.02 75.5888 9.648C76.2128 9.276 76.9508 9.09 77.8028 9.09C78.6428 9.09 79.3748 9.276 79.9988 9.648C80.6348 10.02 81.1208 10.548 81.4568 11.232C81.8048 11.904 81.9788 12.702 81.9788 13.626C81.9788 14.55 81.8048 15.354 81.4568 16.038C81.1208 16.71 80.6348 17.232 79.9988 17.604C79.3748 17.976 78.6428 18.162 77.8028 18.162ZM77.8028 16.992C78.6188 16.992 79.2728 16.704 79.7648 16.128C80.2568 15.54 80.5028 14.706 80.5028 13.626C80.5028 12.534 80.2568 11.7 79.7648 11.124C79.2728 10.548 78.6188 10.26 77.8028 10.26C76.9748 10.26 76.3148 10.548 75.8228 11.124C75.3428 11.7 75.1028 12.534 75.1028 13.626C75.1028 14.706 75.3428 15.54 75.8228 16.128C76.3148 16.704 76.9748 16.992 77.8028 16.992ZM91.9054 18.162C89.8054 18.162 88.7554 17.004 88.7554 14.688V9.864C88.7554 9.372 88.9954 9.126 89.4754 9.126C89.9674 9.126 90.2134 9.372 90.2134 9.864V14.67C90.2134 15.45 90.3694 16.026 90.6814 16.398C91.0054 16.77 91.5094 16.956 92.1934 16.956C92.9374 16.956 93.5434 16.71 94.0114 16.218C94.4794 15.714 94.7134 15.048 94.7134 14.22V9.864C94.7134 9.372 94.9594 9.126 95.4514 9.126C95.9314 9.126 96.1714 9.372 96.1714 9.864V17.37C96.1714 17.874 95.9374 18.126 95.4694 18.126C94.9894 18.126 94.7494 17.874 94.7494 17.37V16.524C94.4734 17.052 94.0834 17.46 93.5794 17.748C93.0874 18.024 92.5294 18.162 91.9054 18.162ZM99.6193 21.366C99.1393 21.366 98.8993 21.12 98.8993 20.628V9.864C98.8993 9.372 99.1333 9.126 99.6013 9.126C100.093 9.126 100.339 9.372 100.339 9.864V10.8C100.591 10.272 100.981 9.858 101.509 9.558C102.037 9.246 102.643 9.09 103.327 9.09C104.107 9.09 104.785 9.276 105.361 9.648C105.949 10.008 106.399 10.53 106.711 11.214C107.035 11.886 107.197 12.69 107.197 13.626C107.197 14.55 107.035 15.354 106.711 16.038C106.399 16.71 105.949 17.232 105.361 17.604C104.785 17.976 104.107 18.162 103.327 18.162C102.655 18.162 102.055 18.012 101.527 17.712C100.999 17.412 100.609 16.998 100.357 16.47V20.628C100.357 21.12 100.111 21.366 99.6193 21.366ZM103.021 16.992C103.837 16.992 104.491 16.704 104.983 16.128C105.475 15.54 105.721 14.706 105.721 13.626C105.721 12.534 105.475 11.7 104.983 11.124C104.491 10.548 103.837 10.26 103.021 10.26C102.205 10.26 101.551 10.548 101.059 11.124C100.567 11.7 100.321 12.534 100.321 13.626C100.321 14.706 100.567 15.54 101.059 16.128C101.551 16.704 102.205 16.992 103.021 16.992ZM112.057 18.162C111.193 18.162 110.533 17.904 110.077 17.388C109.621 16.86 109.393 16.098 109.393 15.102V5.922C109.393 5.43 109.633 5.184 110.113 5.184C110.605 5.184 110.851 5.43 110.851 5.922V14.994C110.851 16.278 111.361 16.92 112.381 16.92C112.489 16.92 112.585 16.914 112.669 16.902C112.753 16.89 112.837 16.884 112.921 16.884C113.053 16.872 113.143 16.902 113.191 16.974C113.251 17.046 113.281 17.19 113.281 17.406C113.281 17.814 113.077 18.048 112.669 18.108C112.573 18.132 112.471 18.144 112.363 18.144C112.255 18.156 112.153 18.162 112.057 18.162ZM118.268 18.162C117.416 18.162 116.678 17.976 116.054 17.604C115.43 17.232 114.944 16.71 114.596 16.038C114.26 15.354 114.092 14.55 114.092 13.626C114.092 12.702 114.26 11.904 114.596 11.232C114.944 10.548 115.43 10.02 116.054 9.648C116.678 9.276 117.416 9.09 118.268 9.09C119.108 9.09 119.84 9.276 120.464 9.648C121.1 10.02 121.586 10.548 121.922 11.232C122.27 11.904 122.444 12.702 122.444 13.626C122.444 14.55 122.27 15.354 121.922 16.038C121.586 16.71 121.1 17.232 120.464 17.604C119.84 17.976 119.108 18.162 118.268 18.162ZM118.268 16.992C119.084 16.992 119.738 16.704 120.23 16.128C120.722 15.54 120.968 14.706 120.968 13.626C120.968 12.534 120.722 11.7 120.23 11.124C119.738 10.548 119.084 10.26 118.268 10.26C117.44 10.26 116.78 10.548 116.288 11.124C115.808 11.7 115.568 12.534 115.568 13.626C115.568 14.706 115.808 15.54 116.288 16.128C116.78 16.704 117.44 16.992 118.268 16.992ZM127.388 18.162C126.788 18.162 126.248 18.048 125.768 17.82C125.3 17.58 124.928 17.256 124.652 16.848C124.376 16.44 124.238 15.984 124.238 15.48C124.238 14.844 124.4 14.34 124.724 13.968C125.06 13.596 125.606 13.332 126.362 13.176C127.13 13.008 128.174 12.924 129.494 12.924H130.07V12.366C130.07 11.622 129.914 11.088 129.602 10.764C129.302 10.428 128.816 10.26 128.144 10.26C127.724 10.26 127.298 10.314 126.866 10.422C126.446 10.53 126.008 10.704 125.552 10.944C125.348 11.052 125.174 11.076 125.03 11.016C124.898 10.944 124.802 10.836 124.742 10.692C124.694 10.536 124.694 10.38 124.742 10.224C124.802 10.056 124.922 9.93 125.102 9.846C125.618 9.582 126.134 9.39 126.65 9.27C127.178 9.15 127.676 9.09 128.144 9.09C129.272 9.09 130.106 9.366 130.646 9.918C131.198 10.47 131.474 11.328 131.474 12.492V17.37C131.474 17.874 131.252 18.126 130.808 18.126C130.34 18.126 130.106 17.874 130.106 17.37V16.488C129.878 17.004 129.524 17.412 129.044 17.712C128.576 18.012 128.024 18.162 127.388 18.162ZM127.622 17.064C128.342 17.064 128.93 16.818 129.386 16.326C129.842 15.822 130.07 15.186 130.07 14.418V13.878H129.512C128.54 13.878 127.772 13.926 127.208 14.022C126.656 14.106 126.266 14.262 126.038 14.49C125.822 14.706 125.714 15.006 125.714 15.39C125.714 15.882 125.882 16.284 126.218 16.596C126.566 16.908 127.034 17.064 127.622 17.064ZM137.509 18.162C136.729 18.162 136.045 17.976 135.457 17.604C134.881 17.232 134.431 16.71 134.107 16.038C133.795 15.354 133.639 14.55 133.639 13.626C133.639 12.69 133.795 11.886 134.107 11.214C134.431 10.53 134.881 10.008 135.457 9.648C136.045 9.276 136.729 9.09 137.509 9.09C138.193 9.09 138.793 9.24 139.309 9.54C139.837 9.84 140.227 10.254 140.479 10.782V5.922C140.479 5.43 140.725 5.184 141.217 5.184C141.697 5.184 141.937 5.43 141.937 5.922V17.37C141.937 17.874 141.697 18.126 141.217 18.126C140.737 18.126 140.497 17.874 140.497 17.37V16.434C140.233 16.974 139.837 17.4 139.309 17.712C138.793 18.012 138.193 18.162 137.509 18.162ZM137.815 16.992C138.631 16.992 139.285 16.704 139.777 16.128C140.269 15.54 140.515 14.706 140.515 13.626C140.515 12.534 140.269 11.7 139.777 11.124C139.285 10.548 138.631 10.26 137.815 10.26C136.987 10.26 136.327 10.548 135.835 11.124C135.355 11.7 135.115 12.534 135.115 13.626C135.115 14.706 135.355 15.54 135.835 16.128C136.327 16.704 136.987 16.992 137.815 16.992Z" fill="#0500A3"/>
<path d="M2.4 10.9999H3.99V15.9999C3.99 16.5499 4.44 16.9999 4.99 16.9999H8.99C9.54 16.9999 9.99 16.5499 9.99 15.9999V10.9999H11.58C12.47 10.9999 12.92 9.91991 12.29 9.28991L7.7 4.69991C7.60749 4.60721 7.4976 4.53366 7.37662 4.48348C7.25565 4.4333 7.12597 4.40747 6.995 4.40747C6.86403 4.40747 6.73435 4.4333 6.61338 4.48348C6.4924 4.53366 6.38251 4.60721 6.29 4.69991L1.7 9.28991C1.07 9.91991 1.51 10.9999 2.4 10.9999ZM0 19.9999C0 20.5499 0.45 20.9999 1 20.9999H13C13.55 20.9999 14 20.5499 14 19.9999C14 19.4499 13.55 18.9999 13 18.9999H1C0.45 18.9999 0 19.4499 0 19.9999Z" fill="#0500A3"/>
</svg>
