<svg width="125" height="32" viewBox="0 0 125 32" fill="none" xmlns="http://www.w3.org/2000/svg">
<path d="M44.2 23.02L47.48 23L50.22 13.06L52.84 23H56.14L60.04 9.04H57.02L54.54 19.82L51.86 9.04H48.74L45.9 19.88L43.44 9.04H40.44L44.2 23.02ZM61.8683 23H64.6683V11.92H61.8683V23ZM63.2883 10.6C64.2683 10.6 65.0083 9.88 65.0083 8.96C65.0083 8.04 64.2683 7.32 63.2883 7.32C62.2883 7.32 61.5683 8.04 61.5683 8.96C61.5683 9.88 62.2883 10.6 63.2883 10.6ZM66.7147 17.42C66.7147 20.88 68.9547 23.18 71.7747 23.18C73.5147 23.18 74.7547 22.38 75.4147 21.36V23H78.2547V8.2H75.4147V13.46C74.6547 12.42 73.2547 11.74 71.7947 11.74C68.9547 11.74 66.7147 13.96 66.7147 17.42ZM75.4347 17.46C75.4347 19.56 74.0347 20.72 72.4947 20.72C70.9947 20.72 69.5747 19.52 69.5747 17.42C69.5747 15.32 70.9947 14.2 72.4947 14.2C74.0347 14.2 75.4347 15.36 75.4347 17.46ZM80.2694 17.42C80.2694 20.88 82.5094 23.18 85.3294 23.18C87.0694 23.18 88.3294 22.32 88.9894 21.36V23.08C88.9894 25.14 87.7894 26.02 86.2494 26.02C84.8494 26.02 83.8094 25.36 83.5294 24.36H80.7494C81.0294 26.9 83.2094 28.46 86.3294 28.46C89.9694 28.46 91.8094 26.08 91.8094 23.08V11.92H88.9894V13.5C88.3294 12.54 87.0694 11.74 85.3294 11.74C82.5094 11.74 80.2694 13.96 80.2694 17.42ZM88.9894 17.46C88.9894 19.56 87.5894 20.72 86.0494 20.72C84.5494 20.72 83.1294 19.52 83.1294 17.42C83.1294 15.32 84.5494 14.2 86.0494 14.2C87.5894 14.2 88.9894 15.36 88.9894 17.46ZM99.3041 14.04C100.744 14.04 101.904 14.96 101.944 16.42H96.6841C96.9041 14.9 97.9641 14.04 99.3041 14.04ZM104.564 19.52H101.544C101.184 20.26 100.524 20.86 99.3241 20.86C97.9241 20.86 96.8041 19.94 96.6641 18.3H104.764C104.824 17.94 104.844 17.58 104.844 17.22C104.844 13.92 102.584 11.74 99.3841 11.74C96.1041 11.74 93.8241 13.96 93.8241 17.46C93.8241 20.94 96.1641 23.18 99.3841 23.18C102.124 23.18 103.964 21.56 104.564 19.52ZM107.328 19.56C107.328 22.1 108.748 23 110.868 23H112.628V20.64H111.328C110.448 20.64 110.148 20.32 110.148 19.58V14.22H112.628V11.92H110.148V9.18H107.328V11.92H106.008V14.22H107.328V19.56ZM123.242 19.84C123.162 15.78 117.022 17.04 117.022 15.02C117.022 14.38 117.562 13.96 118.602 13.96C119.702 13.96 120.382 14.54 120.462 15.4H123.142C122.982 13.2 121.362 11.74 118.682 11.74C115.942 11.74 114.302 13.22 114.302 15.06C114.302 19.12 120.562 17.86 120.562 19.84C120.562 20.48 119.962 20.98 118.862 20.98C117.742 20.98 116.962 20.34 116.862 19.5H114.042C114.162 21.56 116.102 23.18 118.882 23.18C121.582 23.18 123.242 21.74 123.242 19.84Z" fill="#8A62CC"/>
<path d="M14.3337 4.00033C14.3337 2.71233 13.2883 1.66699 12.0003 1.66699H4.00033C2.71233 1.66699 1.66699 2.71233 1.66699 4.00033V12.0003C1.66699 13.2883 2.71233 14.3337 4.00033 14.3337H12.0003C13.2883 14.3337 14.3337 13.2883 14.3337 12.0003V4.00033Z" fill="#8A62CC"/>
<path d="M14.3337 20.0003C14.3337 18.7123 13.2883 17.667 12.0003 17.667H4.00033C2.71233 17.667 1.66699 18.7123 1.66699 20.0003V28.0003C1.66699 29.2883 2.71233 30.3337 4.00033 30.3337H12.0003C13.2883 30.3337 14.3337 29.2883 14.3337 28.0003V20.0003Z" fill="#8A62CC"/>
<path d="M30.3337 4.00033C30.3337 2.71233 29.2883 1.66699 28.0003 1.66699H20.0003C18.7123 1.66699 17.667 2.71233 17.667 4.00033V12.0003C17.667 13.2883 18.7123 14.3337 20.0003 14.3337H28.0003C29.2883 14.3337 30.3337 13.2883 30.3337 12.0003V4.00033Z" fill="#8A62CC"/>
<path d="M23 18.667V29.3337C23 29.8857 23.448 30.3337 24 30.3337C24.552 30.3337 25 29.8857 25 29.3337V18.667C25 18.115 24.552 17.667 24 17.667C23.448 17.667 23 18.115 23 18.667Z" fill="#8A62CC"/>
<path d="M18.667 25H29.3337C29.8857 25 30.3337 24.552 30.3337 24C30.3337 23.448 29.8857 23 29.3337 23H18.667C18.115 23 17.667 23.448 17.667 24C17.667 24.552 18.115 25 18.667 25Z" fill="#8A62CC"/>
</svg>
