<svg width="60" height="60" viewBox="0 0 60 60" fill="none" xmlns="http://www.w3.org/2000/svg">
<rect opacity="0.1" width="60" height="60" rx="30" fill="#5B93FF"/>
<path d="M41.4844 21.0312H39.7266V17.5156H37.9688V14H30.7601L29.5882 15.7578H22.0312V19.2734H20.2734V22.7891H18.5156V25.1596L15 30.433V44H45V30.433L41.4844 25.1596V21.0312ZM23.7891 17.5156H30.5289L31.7008 15.7578H36.2109V17.5156H32.5179L31.3461 19.2734H23.7891V17.5156ZM22.0312 21.0312H32.2868L33.4586 19.2734H37.9688V21.0312H34.2757L33.1039 22.7891H22.0312V21.0312ZM20.2734 24.5469H34.0446L35.2164 22.7891H39.7266V29.8203H33.5266L32.9407 31.5781H27.0593L26.4734 29.8203H20.2734V24.5469ZM18.5156 28.3287V29.8203H17.5211L18.5156 28.3287ZM43.2422 42.2422H16.7578V31.5781H25.2063L25.7922 33.3359H34.2078L34.7937 31.5781H43.2422V42.2422ZM42.4789 29.8203H41.4844V28.3287L42.4789 29.8203Z" fill="#5B93FF"/>
<path d="M25.5469 35.0938H34.4531V36.8516H25.5469V35.0938Z" fill="#5B93FF"/>
</svg>
