<svg width="30" height="28" viewBox="0 0 30 28" fill="none" xmlns="http://www.w3.org/2000/svg">
<path d="M12.3747 11.9924C12.2932 11.7947 12.1025 11.667 11.8889 11.667C11.8887 11.667 11.8884 11.667 11.8883 11.667C11.6743 11.6672 11.4837 11.7953 11.4026 11.9934C11.4013 11.9967 11.3999 12 11.3987 12.0034L9.97618 15.7384C9.88975 15.9651 10.0037 16.2191 10.2305 16.3054C10.4569 16.3919 10.7112 16.278 10.7975 16.0512L11.044 15.404H12.7229L12.9666 16.05C13.033 16.2259 13.2003 16.3344 13.3778 16.3344C13.4294 16.3344 13.4818 16.3253 13.533 16.306C13.76 16.2203 13.8747 15.9668 13.7889 15.7396L12.3793 12.0046C12.3779 12.0004 12.3763 11.9963 12.3747 11.9924ZM11.3788 14.5251L11.8873 13.1899L12.3912 14.5251H11.3788Z" fill="#5B93FF"/>
<path d="M15.1699 11.667C14.9272 11.667 14.7305 11.8637 14.7305 12.1064V15.8915C14.7305 16.1343 14.9272 16.331 15.1699 16.331H16.4965C16.7392 16.331 16.9359 16.1342 16.9359 15.8915C16.9359 15.6488 16.7392 15.4521 16.4965 15.4521H15.6094V12.1064C15.6094 11.8637 15.4126 11.667 15.1699 11.667Z" fill="#5B93FF"/>
<path d="M18.2861 11.667C18.0434 11.667 17.8467 11.8637 17.8467 12.1064V15.8915C17.8467 16.1343 18.0434 16.331 18.2861 16.331H19.6127C19.8554 16.331 20.0521 16.1342 20.0521 15.8915C20.0521 15.6488 19.8554 15.4521 19.6127 15.4521H18.7256V12.1064C18.7256 11.8637 18.5289 11.667 18.2861 11.667Z" fill="#5B93FF"/>
<path d="M20.6036 9.23928C20.7788 9.07135 20.7847 8.79309 20.6168 8.61789C19.1353 7.07207 17.1405 6.2207 15 6.2207C10.7105 6.2207 7.2207 9.71049 7.2207 14C7.2207 18.2896 10.7104 21.7793 15 21.7793C19.2895 21.7793 22.7793 18.2895 22.7793 14C22.7793 12.7383 22.4701 11.4851 21.8854 10.3759C21.7722 10.1612 21.5064 10.0789 21.2916 10.1921C21.077 10.3053 20.9946 10.5711 21.1078 10.7858C21.6263 11.7691 21.9003 12.8805 21.9003 13.9999C21.9003 17.8047 18.8048 20.9003 15 20.9003C11.1951 20.9003 8.09961 17.8048 8.09961 14C8.09961 10.1951 11.1951 7.09961 15 7.09961C16.8986 7.09961 18.668 7.85477 19.9822 9.22603C20.1502 9.40129 20.4284 9.40715 20.6036 9.23928Z" fill="#5B93FF"/>
<path d="M5.50707 13.9953C5.3586 13.7273 5.07594 13.5609 4.76955 13.5609H4.20178C4.43334 7.80496 9.18828 3.19334 15 3.19334C17.7208 3.19334 20.3223 4.21199 22.325 6.06145C22.6849 6.3942 23.2395 6.38219 23.5875 6.03432L24.2614 5.36043C24.4382 5.18359 24.533 4.94846 24.5284 4.69832C24.5238 4.45123 24.4173 4.21311 24.2361 4.04488C21.7179 1.70729 18.4378 0.419922 15 0.419922C11.9172 0.419922 8.89836 1.48152 6.49942 3.40908C6.31022 3.56113 6.2801 3.83775 6.43215 4.02695C6.58414 4.21615 6.8607 4.24609 7.05002 4.09422C9.32592 2.26551 12.0749 1.29889 15 1.29889C18.2153 1.29889 21.283 2.50287 23.6381 4.689C23.6409 4.69158 23.6492 4.69937 23.6495 4.71455C23.6498 4.72896 23.6423 4.73647 23.6398 4.73887L22.966 5.41275C22.9536 5.42523 22.9333 5.4267 22.9215 5.41592C20.7557 3.41588 17.9424 2.31438 15 2.31438C8.55635 2.31438 3.31402 7.5567 3.31402 14.0003C3.31402 14.2431 3.51078 14.4398 3.75348 14.4398H4.70481L2.80625 17.4781L0.907697 14.4398H1.85908C2.10184 14.4398 2.29854 14.243 2.29854 14.0003C2.29854 10.8299 3.47317 7.79383 5.60598 5.4516C5.7694 5.27213 5.75645 4.99416 5.57697 4.8308C5.3975 4.66732 5.11953 4.68033 4.95617 4.8598C2.77426 7.25594 1.5302 10.3306 1.42666 13.5609H0.843068C0.536681 13.5609 0.254142 13.7273 0.105607 13.9953C-0.0428697 14.2632 -0.0342564 14.5911 0.128107 14.8508L2.09117 17.9922C2.24633 18.2404 2.51363 18.3886 2.80631 18.3886C3.09899 18.3886 3.36635 18.2404 3.52156 17.9922L5.48451 14.8509C5.64688 14.5912 5.65549 14.2633 5.50707 13.9953Z" fill="#5B93FF"/>
<path d="M29.8722 13.1501L27.9091 10.0086C27.7539 9.76043 27.4866 9.6123 27.194 9.6123C26.9013 9.6123 26.6339 9.76043 26.4787 10.0087L24.5157 13.15C24.3533 13.4098 24.3447 13.7377 24.4931 14.0056C24.6415 14.2736 24.9242 14.44 25.2306 14.44H25.7984C25.7143 16.5446 25.0265 18.5524 23.7962 20.2719C23.6549 20.4693 23.7005 20.7438 23.8978 20.885C24.0954 21.0264 24.3699 20.9806 24.5109 20.7833C25.9339 18.7945 26.6861 16.449 26.6861 14.0005C26.6861 13.7578 26.4893 13.5611 26.2466 13.5611H25.2953L27.1938 10.5227L29.0924 13.5611H28.1411C27.8983 13.5611 27.7016 13.7578 27.7016 14.0005C27.7016 21.0041 22.0038 26.7019 15.0002 26.7019C11.7848 26.7019 8.71711 25.4979 6.36206 23.3118C6.35924 23.3092 6.35092 23.3014 6.35063 23.2863C6.35034 23.2719 6.35784 23.2644 6.3603 23.262L7.03418 22.5881C7.04661 22.5756 7.06688 22.5742 7.07866 22.5849C9.24446 24.585 12.0578 25.6865 15.0002 25.6865C18.0453 25.6865 20.9299 24.5174 23.1227 22.3945C23.2971 22.2257 23.3016 21.9474 23.1328 21.773C22.9639 21.5987 22.6857 21.5941 22.5114 21.7629C20.4834 23.7263 17.8159 24.8075 15.0002 24.8075C12.2794 24.8075 9.67793 23.7889 7.6752 21.9394C7.3152 21.6067 6.76067 21.6186 6.41268 21.9666L5.73879 22.6405C5.56202 22.8173 5.46721 23.0524 5.47184 23.3026C5.47641 23.5496 5.58294 23.7878 5.76411 23.956C8.28229 26.2936 11.5624 27.5809 15.0002 27.5809C18.6275 27.5809 22.0378 26.1682 24.6029 23.6032C27.0642 21.1419 28.4644 17.9027 28.5737 14.44H29.1572C29.4636 14.44 29.7461 14.2736 29.8947 14.0056C30.0431 13.7377 30.0345 13.4098 29.8722 13.1501Z" fill="#5B93FF"/>
</svg>
