<svg width="32" height="30" viewBox="0 0 32 30" fill="none" xmlns="http://www.w3.org/2000/svg">
<path d="M29.2503 17.9247C29.0393 17.7739 28.7461 17.8228 28.5954 18.0338C28.4446 18.2447 28.4934 18.538 28.7044 18.6887C30.18 19.7432 31.061 21.4538 31.061 23.2648C31.061 24.616 30.5816 25.8572 29.7843 26.8276C29.1268 25.5643 28.2083 24.7523 27.4886 24.268C27.8789 23.7956 28.1004 23.1962 28.1004 22.5725C28.1004 21.106 26.9073 19.9128 25.4408 19.9128C23.9742 19.9128 22.781 21.1059 22.781 22.5725C22.781 23.1962 23.0026 23.7956 23.3929 24.268C22.6732 24.7523 21.7547 25.5644 21.0972 26.8276C20.2999 25.8572 19.8205 24.616 19.8205 23.2649C19.8205 20.1659 22.3418 17.6447 25.4408 17.6447C26.0367 17.6447 26.6232 17.7374 27.1842 17.9202C27.4305 18.0004 27.6957 17.8658 27.7761 17.6193C27.8564 17.3728 27.7217 17.1078 27.4752 17.0275C26.8201 16.814 26.1356 16.7057 25.4408 16.7057C23.3019 16.7057 21.399 17.7348 20.2009 19.3238L16.4757 16.9193V13.2772C19.8742 13.0357 22.5655 10.1938 22.5655 6.73503C22.5655 3.11828 19.6231 0.175781 16.0063 0.175781C14.6653 0.175781 13.3756 0.577906 12.2768 1.33859C12.0636 1.48616 12.0104 1.77859 12.1581 1.99184C12.3056 2.20491 12.5981 2.25822 12.8113 2.11053C13.7524 1.45909 14.8572 1.11472 16.0063 1.11472C19.1053 1.11472 21.6266 3.63597 21.6266 6.73497C21.6266 8.08609 21.1472 9.32728 20.3498 10.2977C19.6923 9.03447 18.7739 8.22234 18.0541 7.73803C18.4445 7.26566 18.666 6.66622 18.666 6.04253C18.666 4.57603 17.4729 3.38284 16.0063 3.38284C14.5398 3.38284 13.3466 4.57597 13.3466 6.04253C13.3466 6.66622 13.5681 7.26572 13.9585 7.73803C13.2387 8.22234 12.3204 9.03447 11.6628 10.2977C10.8654 9.32728 10.3861 8.08609 10.3861 6.73497C10.3861 5.48278 10.7888 4.29797 11.5508 3.30859C11.709 3.10322 11.6707 2.80841 11.4654 2.65022C11.2599 2.49191 10.9651 2.53022 10.8069 2.73566C9.91731 3.89066 9.44713 5.27359 9.44713 6.73491C9.44713 10.1938 12.1384 13.0356 15.5368 13.2771V16.9192L11.7968 19.3333C10.5985 17.746 8.69675 16.7182 6.55925 16.7182C2.94244 16.7182 0 19.6607 0 23.2775C0 24.7797 0.520813 26.2478 1.46656 27.4115C2.39856 28.5584 3.70219 29.3647 5.13719 29.682C5.39031 29.7378 5.64094 29.5781 5.69694 29.325C5.75287 29.0718 5.59306 28.8212 5.33988 28.7652C4.44669 28.5677 3.6135 28.1478 2.91775 27.5563C3.63619 25.971 4.83975 25.1303 5.51675 24.7622C5.81588 24.6108 5.84475 24.1568 5.56706 23.9689C5.11869 23.6455 4.851 23.1235 4.851 22.5725C4.851 21.6237 5.62294 20.8517 6.57175 20.8517C7.52056 20.8517 8.2925 21.6237 8.2925 22.5725C8.2925 23.1235 8.02481 23.6455 7.5765 23.9689C7.29881 24.1568 7.32775 24.6108 7.62681 24.7622C8.30169 25.1292 9.49981 25.9655 10.2191 27.5411C9.33675 28.2997 8.24256 28.7682 7.07538 28.8744C6.81713 28.8979 6.62687 29.1263 6.65031 29.3845C6.6725 29.6282 6.87725 29.8115 7.11731 29.8115C7.13156 29.8115 7.14594 29.8108 7.16038 29.8095C8.78319 29.6619 10.2861 28.917 11.3923 27.712C12.5053 26.4995 13.1184 24.9246 13.1184 23.2775C13.1184 22.1342 12.824 21.0583 12.3076 20.1214L16.0063 17.734L19.6906 20.1121C19.1753 21.0483 18.8816 22.1228 18.8816 23.2649C18.8816 26.8817 21.824 29.8242 25.4408 29.8242C29.0575 29.8242 32 26.8816 32 23.2648C32 21.1513 30.9721 19.155 29.2503 17.9247ZM10.9152 26.8274C10.2577 25.5643 9.33937 24.7523 8.61969 24.268C9.01 23.7956 9.23156 23.1962 9.23156 22.5725C9.23156 21.106 8.03844 19.9128 6.57188 19.9128C5.10531 19.9128 3.91219 21.1059 3.91219 22.5725C3.91219 23.1962 4.13375 23.7956 4.52406 24.268C3.80075 24.7547 2.87663 25.5726 2.21844 26.8467C2.21081 26.8375 2.20281 26.8287 2.19525 26.8194C1.38513 25.8226 0.938937 24.5647 0.938937 23.2775C0.938937 20.1785 3.46019 17.6573 6.55919 17.6573C9.65819 17.6573 12.1794 20.1785 12.1794 23.2775C12.1794 24.5785 11.7322 25.8263 10.9152 26.8274ZM14.9513 8.23222C15.2504 8.08084 15.2793 7.62684 15.0016 7.43897C14.5533 7.11566 14.2856 6.59359 14.2856 6.04253C14.2856 5.09372 15.0576 4.32184 16.0064 4.32184C16.9552 4.32184 17.7271 5.09372 17.7271 6.04253C17.7271 6.59359 17.4595 7.11566 17.0111 7.43897C16.7334 7.62684 16.7623 8.08084 17.0614 8.23222C17.7359 8.59903 18.9331 9.43466 19.6525 11.0083C18.6703 11.8476 17.3966 12.3552 16.0065 12.3552C14.6163 12.3552 13.3427 11.8476 12.3604 11.0083C13.0797 9.43466 14.2769 8.59909 14.9513 8.23222ZM25.4408 28.8851C24.0506 28.8851 22.7769 28.3775 21.7948 27.5382C22.5141 25.9645 23.7113 25.1289 24.3857 24.7622C24.6849 24.6108 24.7137 24.1568 24.4361 23.9689C23.9877 23.6455 23.72 23.1235 23.72 22.5725C23.72 21.6237 24.4919 20.8517 25.4408 20.8517C26.3896 20.8517 27.1615 21.6237 27.1615 22.5725C27.1615 23.1235 26.8938 23.6455 26.4454 23.9689C26.1678 24.1568 26.1967 24.6108 26.4958 24.7622C27.1702 25.129 28.3674 25.9645 29.0868 27.5383C28.1046 28.3775 26.8309 28.8851 25.4408 28.8851Z" fill="#5B93FF"/>
</svg>
