<svg width="60" height="60" viewBox="0 0 60 60" fill="none" xmlns="http://www.w3.org/2000/svg">
<rect opacity="0.1" width="60" height="60" rx="30" fill="#5B93FF"/>
<path d="M41.1026 29.0195H17.9349C16.3165 29.0195 15 30.3361 15 31.9545V42.0656C15 43.6838 16.3165 45.0003 17.9349 45.0003H41.1026C42.721 45.0003 44.0375 43.6838 44.0375 42.0656V31.9545C44.0375 30.3361 42.721 29.0195 41.1026 29.0195ZM42.2797 42.0656C42.2797 42.7144 41.7517 43.2425 41.1026 43.2425H17.9349C17.2858 43.2425 16.7578 42.7144 16.7578 42.0656V31.9545C16.7578 31.3054 17.2858 30.7773 17.9349 30.7773H41.1026C41.7517 30.7773 42.2797 31.3054 42.2797 31.9545V42.0656Z" fill="#5B93FF"/>
<path d="M29.521 24.4127C30.2193 24.4127 30.9176 24.1475 31.4493 23.6167C31.965 23.1022 32.2488 22.4178 32.2488 21.6897C32.2488 20.9617 31.965 20.2773 31.4493 19.7628C30.386 18.7015 28.6558 18.7015 27.5925 19.7628C27.0768 20.2773 26.793 20.9617 26.793 21.6897C26.793 22.4178 27.0768 23.1022 27.5925 23.6167C28.1241 24.1475 28.8225 24.4127 29.521 24.4127ZM28.8341 21.0068C29.0236 20.8177 29.2722 20.7234 29.521 20.7234C29.7696 20.7234 30.0181 20.8179 30.2074 21.0068C30.3903 21.1892 30.491 21.4318 30.491 21.6897C30.491 21.9477 30.3903 22.1901 30.2077 22.3727C29.8289 22.7506 29.2129 22.7504 28.8341 22.3727C28.6513 22.1901 28.5508 21.9477 28.5508 21.6897C28.5508 21.4318 28.6515 21.1894 28.8341 21.0068Z" fill="#5B93FF"/>
<path d="M32.7323 25.5329C32.904 25.705 33.1292 25.791 33.3544 25.791C33.5792 25.791 33.8037 25.7054 33.9754 25.5342C35.0042 24.5072 35.5709 23.142 35.5709 21.6895C35.5709 20.237 35.0042 18.8715 33.9754 17.8447C33.6318 17.5019 33.0752 17.5023 32.7323 17.8459C32.3894 18.1894 32.3901 18.7461 32.7337 19.0889C33.4297 19.7836 33.8131 20.7071 33.8131 21.6895C33.8131 22.6716 33.4297 23.5954 32.7337 24.29C32.3901 24.6329 32.3894 25.1893 32.7323 25.5329Z" fill="#5B93FF"/>
<path d="M25.0623 25.5344C25.234 25.7056 25.4585 25.7912 25.6833 25.7912C25.9085 25.7912 26.1337 25.7052 26.3054 25.5331C26.6483 25.1895 26.6476 24.6331 26.304 24.2902C25.608 23.5953 25.2246 22.6718 25.2246 21.6895C25.2246 20.7073 25.608 19.7838 26.304 19.0889C26.6476 18.746 26.6483 18.1896 26.3054 17.8461C25.9625 17.5023 25.4059 17.5018 25.0623 17.8447C24.0335 18.8717 23.467 20.237 23.4668 21.6895C23.4668 23.1419 24.0335 24.5074 25.0623 25.5344Z" fill="#5B93FF"/>
<path d="M22.6406 39.7251H20.2812V33.415C20.2812 32.9296 19.8878 32.5361 19.4023 32.5361C18.9169 32.5361 18.5234 32.9296 18.5234 33.415V40.604C18.5234 41.0894 18.9169 41.4829 19.4023 41.4829H22.6406C23.1258 41.4829 23.5195 41.0894 23.5195 40.604C23.5195 40.1188 23.1258 39.7251 22.6406 39.7251Z" fill="#5B93FF"/>
<path d="M25.3633 32.5361C24.8778 32.5361 24.4844 32.9296 24.4844 33.415V40.604C24.4844 41.0894 24.8778 41.4829 25.3633 41.4829C25.8485 41.4829 26.2422 41.0894 26.2422 40.604V33.415C26.2422 32.9296 25.8485 32.5361 25.3633 32.5361Z" fill="#5B93FF"/>
<path d="M33.0491 32.5739C32.5847 32.4336 32.094 32.6966 31.9537 33.1612L30.6248 37.5633L29.2957 33.1612C29.1554 32.6963 28.6649 32.4336 28.2003 32.5739C27.7356 32.7142 27.4726 33.2047 27.6129 33.6693L29.7834 40.8583C29.7837 40.859 29.7839 40.8596 29.7841 40.8603C30.0233 41.6257 31.2016 41.6722 31.4655 40.8603C31.4657 40.8596 31.4659 40.8592 31.4662 40.8583L33.6366 33.6693C33.777 33.2045 33.5137 32.7142 33.0491 32.5739Z" fill="#5B93FF"/>
<path d="M39.6358 34.2939C40.1213 34.2939 40.5147 33.9005 40.5147 33.415C40.5147 32.9296 40.1213 32.5361 39.6358 32.5361H35.6709C35.1854 32.5361 34.792 32.9296 34.792 33.415V40.604C34.792 41.0894 35.1854 41.4829 35.6709 41.4829H39.5175C40.0029 41.4829 40.3964 41.0894 40.3964 40.604C40.3964 40.1188 40.0029 39.7251 39.5175 39.7251H36.5498V37.4358H39.0439C39.5294 37.4358 39.9228 37.0424 39.9228 36.5569C39.9228 36.0714 39.5294 35.678 39.0439 35.678H36.5498V34.2939H39.6358Z" fill="#5B93FF"/>
<path d="M36.8753 21.6893C36.8753 23.649 36.1106 25.4917 34.722 26.8776C34.3784 27.2205 34.3777 27.7771 34.7206 28.1207C34.8925 28.2926 35.1175 28.3786 35.3427 28.3786C35.5674 28.3786 35.792 28.293 35.9636 28.1218C37.6851 26.4038 38.6331 24.1194 38.6331 21.6893C38.6331 19.2595 37.6851 16.9748 35.9636 15.2568C35.6201 14.914 35.0637 14.9144 34.7206 15.258C34.3777 15.6015 34.3784 16.1582 34.722 16.501C36.1106 17.8869 36.8753 19.7294 36.8753 21.6893Z" fill="#5B93FF"/>
<path d="M23.6947 28.3788C23.9199 28.3788 24.1451 28.2928 24.3168 28.1209C24.6597 27.7773 24.6592 27.2207 24.3154 26.8778C22.9268 25.4919 22.1621 23.6492 22.1621 21.6893C22.1621 19.7296 22.9268 17.8869 24.3154 16.501C24.659 16.1581 24.6597 15.6015 24.3168 15.2582C23.9737 14.9144 23.4173 14.9139 23.0737 15.2568C21.3523 16.975 20.4043 19.2595 20.4043 21.6893C20.4043 24.1193 21.3523 26.4038 23.0737 28.122C23.2454 28.2932 23.4699 28.3788 23.6947 28.3788Z" fill="#5B93FF"/>
</svg>
