<svg width="56" height="48" viewBox="0 0 56 48" fill="none" xmlns="http://www.w3.org/2000/svg">
<rect opacity="0.5" x="55.5" y="47.5" width="55" height="47" transform="rotate(-180 55.5 47.5)" stroke="#D00000"/>
<path d="M36.3599 17.8716H33.3599V15.9966C33.3599 15.1692 32.6872 14.4966 31.8599 14.4966H24.3599C23.5325 14.4966 22.8599 15.1692 22.8599 15.9966V17.8716H19.8599C19.445 17.8716 19.1099 18.2067 19.1099 18.6216V19.3716C19.1099 19.4747 19.1942 19.5591 19.2974 19.5591H20.713L21.2919 31.8169C21.3294 32.6161 21.9903 33.2466 22.7896 33.2466H33.4302C34.2317 33.2466 34.8903 32.6185 34.9278 31.8169L35.5067 19.5591H36.9224C37.0255 19.5591 37.1099 19.4747 37.1099 19.3716V18.6216C37.1099 18.2067 36.7747 17.8716 36.3599 17.8716ZM31.6724 17.8716H24.5474V16.1841H31.6724V17.8716Z" fill="#D00000"/>
</svg>
