<svg width="233" height="96" viewBox="0 0 233 96" fill="none" xmlns="http://www.w3.org/2000/svg">
<rect width="233" height="96" rx="11" fill="white"/>
<path d="M88.7659 49.5281C88.768 45.2532 88.7659 40.9782 88.768 36.7053C88.768 35.5931 88.9521 35.3777 90.0323 35.388C94.5312 35.4315 99.0424 35.3156 103.527 35.6014C108.193 35.8976 111.8 38.0785 113.373 42.7325C113.77 43.9069 113.687 45.2656 113.706 46.5414C113.747 49.3293 112.442 51.5144 110.44 53.3267C109.973 53.7492 109.4 54.0765 108.835 54.3685C108.177 54.7123 108.127 55.1866 108.491 55.7127C109.855 57.6845 111.252 59.6335 112.63 61.5949C113.033 62.1707 113.42 62.7589 113.807 63.3451C114.159 63.8794 113.95 64.2398 113.375 64.2481C111.481 64.275 109.565 64.4035 107.707 64.1404C107.026 64.0451 106.405 63.024 105.894 62.326C104.665 60.6463 103.51 58.9127 102.341 57.1915C101.832 56.4438 101.211 56.0503 100.249 56.1145C99.032 56.1953 97.807 56.1642 96.586 56.1311C95.6921 56.1083 95.3858 56.564 95.3879 57.3738C95.392 59.2047 95.3941 61.0378 95.3796 62.8687C95.3713 64.1425 95.2658 64.246 93.9952 64.2626C92.677 64.2792 91.3588 64.246 90.0406 64.2813C89.2667 64.302 88.9211 63.9084 88.8176 63.2167C88.7742 62.9329 88.77 62.6409 88.77 62.353C88.7638 58.078 88.7638 53.8031 88.7659 49.5281ZM95.3361 45.6467C95.3341 45.6467 95.332 45.6467 95.3299 45.6467C95.3299 46.995 95.3279 48.3434 95.3299 49.6917C95.3299 50.3276 95.5576 50.7273 96.2881 50.7211C98.3429 50.7025 100.4 50.7315 102.455 50.7046C104.429 50.6797 105.958 49.6151 106.633 47.9395C107.338 46.1852 107.388 44.2093 105.931 42.5917C104.905 41.4525 103.496 40.9741 102.082 40.827C100.174 40.6282 98.2333 40.7524 96.3067 40.7193C95.6114 40.7069 95.3175 41.0031 95.3299 41.6969C95.3506 43.0142 95.3361 44.3315 95.3361 45.6467Z" fill="#313131"/>
<path d="M165.983 41.9725C165.983 44.2881 165.969 46.6016 166 48.9152C166.004 49.2507 166.236 49.5841 166.362 49.9176C166.678 49.7623 167.055 49.6711 167.303 49.4412C169.82 47.1174 172.297 44.7541 174.834 42.4551C175.142 42.1755 175.728 42.1216 176.189 42.1113C177.892 42.0761 179.6 42.0843 181.303 42.1196C181.617 42.1258 181.928 42.3287 182.24 42.4406C182.112 42.7513 182.062 43.1386 181.845 43.3643C180.382 44.8701 178.879 46.3365 177.398 47.8236C176.425 48.8012 175.471 49.7954 174.511 50.7834C174.054 51.2556 174.205 51.7175 174.554 52.1628C177.027 55.3089 179.504 58.453 181.977 61.5992C182.432 62.177 182.921 62.7363 183.322 63.3493C183.687 63.9044 183.618 64.329 182.803 64.3269C180.808 64.3228 178.807 64.4284 176.827 64.2731C176.235 64.2254 175.618 63.5295 175.152 63.0076C173.607 61.274 172.115 59.4886 170.618 57.7115C170.254 57.2786 170.02 56.7049 169.592 56.3652C169.344 56.1685 168.735 56.1643 168.448 56.3363C167.852 56.6925 167.268 57.1544 166.85 57.7032C166.445 58.2335 166.082 58.9045 166.006 59.5508C165.869 60.692 165.983 61.8622 165.954 63.0179C165.929 64.0059 165.584 64.3228 164.586 64.329C163.299 64.3373 162.012 64.3394 160.727 64.329C159.493 64.3186 159.438 64.2586 159.438 63.0138C159.436 58.8983 159.436 54.7829 159.436 50.6674C159.436 45.6696 159.438 40.6718 159.438 35.674C159.438 33.7084 159.436 33.7043 161.449 33.6836C162.511 33.6732 163.572 33.6753 164.634 33.6856C165.627 33.696 165.954 34.0067 165.962 35.0216C165.981 37.3372 165.969 39.6507 165.969 41.9663C165.973 41.9725 165.979 41.9725 165.983 41.9725Z" fill="#313131"/>
<path d="M153.622 55.5351C153.622 58.006 153.639 60.479 153.616 62.9499C153.606 64.1222 153.345 64.3314 152.171 64.3397C150.886 64.348 149.601 64.377 148.316 64.3853C147.344 64.3915 147.193 64.1616 147.184 63.1529C147.162 59.8452 147.114 56.5396 147.048 53.234C147.031 52.4179 146.94 51.5977 146.835 50.7858C146.514 48.3169 145.051 47.5257 142.923 47.4553C140.382 47.3704 138.615 48.5924 138.015 51.0841C137.742 52.217 137.582 53.4017 137.555 54.5678C137.485 57.4592 137.508 60.3527 137.52 63.2461C137.524 64.0725 137.191 64.3894 136.359 64.3604C134.946 64.3128 133.528 64.3066 132.115 64.3604C131.349 64.3894 131.047 64.0435 131.014 63.3663C130.985 62.7573 131.004 62.1442 131.004 61.5353C131.002 56.3283 131.002 51.1193 131.002 45.9123C131.002 44.9844 130.981 44.0565 130.998 43.1286C131.012 42.3436 131.302 41.8942 132.227 41.9439C133.541 42.0164 134.863 41.9749 136.179 41.9522C136.887 41.9397 137.231 42.2297 137.326 42.9422C137.444 43.8349 137.603 43.8514 138.429 43.3688C141.078 41.8155 143.877 41.3764 146.936 41.9356C149.307 42.3685 150.87 43.7707 152.277 45.5105C153.51 47.0369 153.51 48.9114 153.618 50.7195C153.713 52.3206 153.639 53.932 153.639 55.5413C153.63 55.5351 153.626 55.5351 153.622 55.5351Z" fill="#313131"/>
<path d="M208.862 53.201C208.862 56.285 208.868 59.3711 208.86 62.4551C208.856 63.9691 208.55 64.2674 207.06 64.2715C205.998 64.2736 204.937 64.2363 203.877 64.2777C203.087 64.3088 202.689 64.0478 202.629 63.2111C202.559 62.2252 202.114 62.0388 201.336 62.6332C197.601 65.479 192.276 64.9529 189.052 62.1568C187.233 60.5786 186.29 58.3541 186.244 55.9225C186.161 51.6496 186.221 47.3747 186.207 43.1018C186.205 42.4515 186.501 42.1387 187.124 42.1304C188.634 42.1118 190.145 42.089 191.655 42.1139C192.374 42.1263 192.717 42.4991 192.709 43.2882C192.674 46.6622 192.64 50.0383 192.717 53.4102C192.746 54.6632 192.818 55.9267 193.611 57.0824C194.6 58.526 195.995 58.9278 197.535 58.8429C200.14 58.7021 202.112 56.7117 202.197 54.0874C202.311 50.5561 202.257 47.0205 202.267 43.485C202.271 42.35 202.453 42.1263 203.581 42.1076C204.835 42.0869 206.089 42.0994 207.343 42.1139C208.589 42.1284 208.875 42.4245 208.875 43.6548C208.875 46.8362 208.875 50.0175 208.875 53.1989C208.868 53.201 208.864 53.201 208.862 53.201Z" fill="#313131"/>
<path d="M66.9443 36.439C66.8243 36.6689 66.7084 36.9672 66.5304 37.2178C64.728 39.7488 62.9111 42.2715 61.1087 44.8025C60.5706 45.5585 60.403 45.5937 59.9746 44.7673C59.3331 43.5329 58.7744 42.2549 58.1826 40.9936C57.3693 39.2579 56.5995 37.5015 55.7117 35.8052C55.542 35.4821 54.9274 35.2646 54.4949 35.2232C51.2709 34.9125 48.0406 34.6495 44.8124 34.3885C43.8046 34.3077 43.6866 34.1793 44.2412 33.3446C46.0519 30.6272 47.8874 27.9243 49.7602 25.2483C49.9278 25.0081 50.4286 24.8693 50.7618 24.8921C53.5761 25.0868 56.4091 25.6501 59.1966 25.472C62.1433 25.2835 62.6897 27.3112 63.6085 29.1608C64.699 31.3563 65.7296 33.5828 66.7787 35.799C66.8553 35.9688 66.8739 36.1656 66.9443 36.439Z" fill="#8960CF"/>
<path d="M32.6942 33.9406C35.2809 34.1477 37.8656 34.359 40.4523 34.5557C40.8993 34.5889 41.3525 34.5392 41.7995 34.564C42.381 34.5972 42.5341 34.7877 42.143 35.3366C40.3281 37.8883 38.5568 40.4711 36.7502 43.0269C36.1521 43.8741 36.0942 44.7833 36.5019 45.6615C37.7104 48.2671 38.9872 50.8436 40.235 53.4326C40.3033 53.5756 40.3861 53.7122 40.4461 53.8593C40.831 54.8038 40.6034 55.1062 39.5811 54.9923C38.4988 54.8742 37.4207 54.7126 36.3363 54.6298C34.5153 54.491 32.6922 54.3792 30.867 54.3005C29.9089 54.259 29.3025 53.9732 28.9528 52.9459C28.5348 51.7218 27.8167 50.6013 27.2497 49.4249C26.6289 48.1387 26.0329 46.84 25.4287 45.5476C25.3873 45.4606 25.3852 45.3467 25.3273 45.2783C24.036 43.7995 24.8658 42.6583 25.8032 41.3948C27.4028 39.2408 28.8742 36.9935 30.3827 34.7711C30.9663 33.9157 31.7961 33.8681 32.6942 33.9406Z" fill="#8960CF"/>
<path d="M57.1028 66.782C53.9967 66.6308 50.8885 66.5004 47.7845 66.316C46.7994 66.258 46.4601 65.3985 46.1103 64.6466C44.8853 62.0183 43.6726 59.3837 42.4744 56.7409C42.3255 56.4095 42.2882 56.0284 42.1992 55.6701C42.5365 55.6804 42.8738 55.6742 43.2091 55.7073C45.1191 55.8896 47.0271 56.0802 48.935 56.2707C50.0815 56.3846 51.2362 56.4509 52.3723 56.6311C53.1193 56.7492 53.7629 56.629 54.1788 56.0305C55.6563 53.9116 57.0842 51.7576 58.5328 49.616C58.9798 48.9552 59.4164 48.2862 59.8882 47.6442C60.0082 47.4805 60.2524 47.3293 60.4428 47.3252C60.5504 47.3231 60.6849 47.6214 60.776 47.7995C61.4506 49.1313 62.1273 50.4631 62.7791 51.8073C63.0005 52.2609 63.1185 52.7662 63.3482 53.2157C63.9152 54.3259 64.5546 55.3987 65.0823 56.5255C65.2437 56.8672 65.3079 57.4534 65.1217 57.7288C63.7331 59.7917 62.2721 61.805 60.8298 63.8306C60.3497 64.5058 59.7868 65.1334 59.3854 65.8521C58.8515 66.809 58.0527 66.9581 57.1028 66.782Z" fill="#8960CF"/>
<path d="M77.9685 48.0543C77.9685 39.987 77.9974 31.9197 77.9395 23.8524C77.9312 22.591 79.0094 23.173 79.4129 22.6904C79.7067 23.0529 80.1041 23.3781 80.2634 23.7923C80.4021 24.1527 80.2613 24.6146 80.2613 25.033C80.2593 40.5255 80.2593 56.0181 80.2593 71.5106C80.2593 71.7364 80.2448 71.9621 80.2717 72.1858C80.3607 72.9584 80.251 73.5114 79.2577 73.4824C78.0719 73.4472 77.9643 73.3705 77.9643 72.161C77.9664 64.1247 77.9664 56.0905 77.9664 48.0543C77.9643 48.0543 77.9664 48.0543 77.9685 48.0543Z" fill="#313131"/>
<path d="M125.092 53.2011C125.094 56.3162 125.1 59.4292 125.09 62.5443C125.084 64.0728 125.009 64.1267 123.525 64.1184C122.373 64.1122 121.218 64.0894 120.067 64.1412C119.124 64.1847 118.811 63.7248 118.815 62.8674C118.826 60.8127 118.815 58.7581 118.815 56.7035C118.818 52.3043 118.822 47.9071 118.826 43.5079C118.828 42.3377 118.993 42.1844 120.161 42.1823C121.348 42.1802 122.536 42.1533 123.724 42.143C124.868 42.1326 125.082 42.3232 125.084 43.4727C125.096 46.7162 125.09 49.9576 125.092 53.2011Z" fill="#313131"/>
<path d="M121.975 31.9046C124.475 32.0247 125.992 33.4352 125.874 35.5312C125.769 37.4223 123.873 39.102 121.775 38.8824C119.37 38.6298 117.864 37.8241 117.922 34.972C117.961 33.1162 119.741 31.7969 121.975 31.9046Z" fill="#313131"/>
</svg>
