<svg width="32" height="24" viewBox="0 0 32 24" fill="none" xmlns="http://www.w3.org/2000/svg">
<path d="M5.33301 8C7.54215 8 9.33301 6.20914 9.33301 4C9.33301 1.79086 7.54215 0 5.33301 0C3.12387 0 1.33301 1.79086 1.33301 4C1.33301 6.20914 3.12387 8 5.33301 8Z" fill="#8A62CC"/>
<path d="M9.72 10.7597C8.378 11.5971 7.27118 12.7623 6.50376 14.1455C5.73634 15.5287 5.33356 17.0845 5.33333 18.6663H2.66667C1.96007 18.6642 1.28302 18.3826 0.78338 17.883C0.28374 17.3833 0.0021103 16.7063 0 15.9997L0 13.333C0.00316545 12.2731 0.425609 11.2575 1.17507 10.5081C1.92453 9.75862 2.94011 9.33617 4 9.33301H6.66667C7.24876 9.33432 7.82355 9.46266 8.35092 9.70907C8.87829 9.95549 9.34552 10.314 9.72 10.7597Z" fill="#8A62CC"/>
<path d="M26.667 8C28.8761 8 30.667 6.20914 30.667 4C30.667 1.79086 28.8761 0 26.667 0C24.4579 0 22.667 1.79086 22.667 4C22.667 6.20914 24.4579 8 26.667 8Z" fill="#8A62CC"/>
<path d="M32.0003 13.333V15.9997C31.9982 16.7063 31.7165 17.3833 31.2169 17.883C30.7173 18.3826 30.0402 18.6642 29.3336 18.6663H26.6669C26.6667 17.0845 26.2639 15.5287 25.4965 14.1455C24.7291 12.7623 23.6223 11.5971 22.2803 10.7597C22.6548 10.314 23.122 9.95549 23.6494 9.70907C24.1767 9.46266 24.7515 9.33432 25.3336 9.33301H28.0003C29.0602 9.33617 30.0757 9.75862 30.8252 10.5081C31.5747 11.2575 31.9971 12.2731 32.0003 13.333Z" fill="#8A62CC"/>
<path d="M16.0003 10.6667C18.9458 10.6667 21.3337 8.27885 21.3337 5.33333C21.3337 2.38781 18.9458 0 16.0003 0C13.0548 0 10.667 2.38781 10.667 5.33333C10.667 8.27885 13.0548 10.6667 16.0003 10.6667Z" fill="#8A62CC"/>
<path d="M24 18.6667V20C23.9968 21.0599 23.5744 22.0755 22.8249 22.8249C22.0755 23.5744 21.0599 23.9968 20 24H12C10.9401 23.9968 9.92453 23.5744 9.17507 22.8249C8.42561 22.0755 8.00317 21.0599 8 20V18.6667C8 16.8986 8.70238 15.2029 9.95262 13.9526C11.2029 12.7024 12.8986 12 14.6667 12H17.3333C19.1014 12 20.7971 12.7024 22.0474 13.9526C23.2976 15.2029 24 16.8986 24 18.6667Z" fill="#8A62CC"/>
</svg>
