<svg width="32" height="30" viewBox="0 0 32 30" fill="none" xmlns="http://www.w3.org/2000/svg">
<path d="M6.11003 9.42077C6.18548 9.87553 6.36086 10.1631 6.5342 10.3446C6.94613 13.0894 9.24029 15.6364 11.3387 15.6364C13.7838 15.6364 16.0106 12.8793 16.4389 10.3507C16.6163 10.1712 16.7937 9.88164 16.8712 9.42077C17.0099 8.90688 17.1893 8.01369 16.8753 7.5936C16.8589 7.57321 16.8406 7.55077 16.8243 7.53446C17.12 6.45569 17.4932 4.22475 16.1574 2.7055C16.0392 2.5546 15.2887 1.65936 13.6879 1.18626L12.9232 0.923193C11.6629 0.533695 10.8717 0.446007 10.837 0.441929C10.7799 0.43785 10.7208 0.441929 10.6657 0.456203C10.6229 0.468439 10.472 0.509224 10.3558 0.49291C10.054 0.450086 9.60124 0.605069 9.52171 0.635658C9.4177 0.678482 6.97672 1.65529 6.23647 3.92906C6.16713 4.11259 5.87144 5.0792 6.26501 7.44881C6.20588 7.4896 6.15286 7.53854 6.10799 7.59768C5.78987 8.01368 5.96932 8.90688 6.11003 9.42077Z" fill="#8A62CC"/>
<path d="M15.8736 26.7216C15.4229 26.4687 14.9335 26.226 14.4114 25.9956C14.1586 25.8834 13.9016 25.7774 13.6467 25.6775C13.4469 25.602 13.2103 25.5041 13.0451 25.4613L10.6266 24.8087L15.1517 15.5954L17.091 16.8189C17.5009 17.0759 17.8027 17.2941 18.1331 17.5368L18.2024 17.5877C18.5307 17.8304 18.8529 18.0792 19.169 18.3362C19.8562 18.8908 20.4639 19.4333 21.0288 19.9941C21.0716 20.0369 21.1124 20.0756 21.1552 20.1185C21.3449 19.9084 21.5305 19.7208 21.716 19.5189C21.4795 18.8154 21.1919 18.1649 20.8412 17.6428C20.8412 17.6428 20.3436 16.9637 19.1629 16.511C19.1629 16.511 19.063 16.4804 18.91 16.4294C17.8598 15.938 16.8626 15.6219 16.8626 15.6219C16.6485 15.5444 16.4609 15.469 16.2916 15.3955C15.5779 15.0428 14.9845 14.6451 14.8621 14.2699C14.8621 14.2699 15.274 18.2566 11.7889 18.3504L11.3036 18.328C8.14479 18.0466 7.93474 14.2617 7.93474 14.2617C7.60438 15.2997 3.63191 16.5069 3.63191 16.5069C2.45119 16.9597 1.95157 17.6408 1.95157 17.6408C0.205965 20.2306 0 25.9936 0 25.9936C0.0224318 27.3109 0.591384 27.4475 0.591384 27.4475C4.60668 29.2401 10.9059 29.5561 10.9059 29.5561C11.2465 29.5643 11.5626 29.5459 11.8787 29.5276L11.8868 29.5602C11.8868 29.5602 14.962 29.4032 18.1861 28.6976L17.7925 28.1817C17.4723 27.7596 16.7566 27.2151 15.8736 26.7216Z" fill="#8A62CC"/>
<path d="M14.7275 14.4392C14.7704 14.3842 14.8173 14.3291 14.8621 14.268C14.8519 14.2312 14.8499 14.2129 14.8499 14.2129C14.8111 14.2924 14.7663 14.3597 14.7275 14.4392Z" fill="#8A62CC"/>
<path d="M7.95292 14.2557L7.94273 14.2129L7.93457 14.2578C7.93661 14.2496 7.94477 14.2414 7.94681 14.2333C7.94884 14.2353 7.95088 14.2435 7.95292 14.2557Z" fill="#8A62CC"/>
<path d="M28.3085 16.1056C27.1645 16.9131 26.0979 17.8267 25.0824 18.7872C24.0648 19.7538 23.1002 20.7714 22.1724 21.8216C21.8277 22.2131 21.4933 22.6088 21.1609 23.0064C21.1568 23.0003 21.1527 22.9942 21.1507 22.9881C20.6613 22.3355 20.1311 21.7543 19.5805 21.2098C19.0299 20.6674 18.4589 20.1657 17.8716 19.6886C17.5759 19.452 17.2781 19.2195 16.9743 18.9911C16.6582 18.7627 16.3809 18.5568 15.9934 18.3121L13.583 23.2165C13.8032 23.2756 14.1234 23.4 14.3946 23.506C14.6822 23.6162 14.9636 23.7344 15.245 23.8588C15.8078 24.1076 16.3564 24.3788 16.8805 24.6705C17.9164 25.2496 18.881 25.9552 19.4316 26.675L21.2853 29.1058L22.3518 26.7933C22.8881 25.635 23.5305 24.4237 24.1892 23.2695C24.854 22.1071 25.5636 20.9672 26.3324 19.868C27.1012 18.7688 27.9251 17.7064 28.8468 16.7276C29.7686 15.7548 30.7862 14.8494 31.9995 14.207C30.6822 14.5986 29.4505 15.3062 28.3085 16.1056Z" fill="#8A62CC"/>
</svg>
