<svg width="387" height="499" viewBox="0 0 387 499" fill="none" xmlns="http://www.w3.org/2000/svg">
<g filter="url(#filter0_d_276_5303)">
<rect x="12" y="8" width="363" height="475" fill="white"/>
</g>
<path d="M106.152 37.656C106.152 33.896 100.6 34.776 100.6 32.824C100.6 32.12 101.096 31.784 101.752 31.8C102.488 31.816 103 32.248 103.048 32.968H106.008C105.896 30.824 104.248 29.608 101.8 29.608C99.448 29.608 97.704 30.792 97.704 32.92C97.672 36.904 103.288 35.784 103.288 37.864C103.288 38.52 102.776 38.92 101.976 38.92C101.208 38.92 100.664 38.504 100.584 37.64H97.672C97.752 39.912 99.64 41.112 102.056 41.112C104.68 41.112 106.152 39.544 106.152 37.656ZM107.292 36.536C107.292 39.368 109.148 41.128 111.772 41.128C114.012 41.128 115.596 39.832 116.06 37.768H113.148C112.908 38.424 112.476 38.792 111.724 38.792C110.748 38.792 110.076 38.024 110.076 36.536C110.076 35.048 110.748 34.28 111.724 34.28C112.476 34.28 112.924 34.68 113.148 35.304H116.06C115.596 33.176 114.012 31.944 111.772 31.944C109.148 31.944 107.292 33.72 107.292 36.536ZM120.259 36.856C120.259 35.32 121.011 34.872 122.307 34.872H123.059V31.976C121.859 31.976 120.883 32.616 120.259 33.56V32.072H117.523V41H120.259V36.856ZM124.367 41H127.103V32.072H124.367V41ZM125.743 31.144C126.703 31.144 127.359 30.488 127.359 29.672C127.359 28.84 126.703 28.184 125.743 28.184C124.767 28.184 124.111 28.84 124.111 29.672C124.111 30.488 124.767 31.144 125.743 31.144ZM131.822 33.336V32.072H129.086V45.256H131.822V39.752C132.318 40.504 133.262 41.128 134.574 41.128C136.766 41.128 138.51 39.336 138.51 36.52C138.51 33.704 136.766 31.944 134.574 31.944C133.262 31.944 132.318 32.552 131.822 33.336ZM135.726 36.52C135.726 37.944 134.798 38.744 133.758 38.744C132.734 38.744 131.806 37.96 131.806 36.536C131.806 35.112 132.734 34.328 133.758 34.328C134.798 34.328 135.726 35.096 135.726 36.52ZM140.377 37.896C140.377 40.216 141.673 41 143.529 41H144.921V38.68H143.945C143.337 38.68 143.113 38.456 143.113 37.928V34.344H144.905V32.072H143.113V29.896H140.377V32.072H139.289V34.344H140.377V37.896ZM146.285 36.52H153.325V34.248H146.285V36.52ZM166.782 35.352C166.782 31.976 164.238 29.608 161.038 29.608C157.854 29.608 155.262 31.976 155.262 35.352C155.262 38.728 157.854 41.112 161.038 41.112C164.222 41.112 166.782 38.728 166.782 35.352ZM158.062 35.352C158.062 33.352 159.214 32.088 161.038 32.088C162.83 32.088 163.998 33.352 163.998 35.352C163.998 37.32 162.83 38.616 161.038 38.616C159.214 38.616 158.062 37.32 158.062 35.352ZM174.465 41H177.185V35.784C177.185 33.384 175.809 31.976 173.745 31.976C172.545 31.976 171.585 32.504 171.041 33.256V32.072H168.305V41H171.041V36.152C171.041 34.936 171.713 34.264 172.753 34.264C173.793 34.264 174.465 34.936 174.465 36.152V41ZM179.086 41H181.822V29.16H179.086V41ZM187.917 37.656L185.853 32.072H182.796L186.429 40.696L184.381 45.24H187.325L192.925 32.072H189.965L187.917 37.656ZM197.305 41H200.041V32.072H197.305V41ZM198.681 31.144C199.641 31.144 200.297 30.488 200.297 29.672C200.297 28.84 199.641 28.184 198.681 28.184C197.705 28.184 197.049 28.84 197.049 29.672C197.049 30.488 197.705 31.144 198.681 31.144ZM208.183 41H210.903V35.784C210.903 33.384 209.527 31.976 207.463 31.976C206.263 31.976 205.303 32.504 204.759 33.256V32.072H202.023V41H204.759V36.152C204.759 34.936 205.431 34.264 206.471 34.264C207.511 34.264 208.183 34.936 208.183 36.152V41ZM220.053 38.408C220.005 35.08 215.173 36.088 215.173 34.664C215.173 34.232 215.525 33.976 216.165 33.976C216.933 33.976 217.397 34.376 217.477 34.984H220.005C219.829 33.224 218.549 31.944 216.245 31.944C213.909 31.944 212.613 33.192 212.613 34.712C212.613 37.992 217.477 36.952 217.477 38.392C217.477 38.792 217.109 39.112 216.405 39.112C215.653 39.112 215.093 38.696 215.029 38.072H212.325C212.453 39.8 214.053 41.128 216.437 41.128C218.677 41.128 220.053 39.96 220.053 38.408ZM222.158 37.896C222.158 40.216 223.454 41 225.31 41H226.702V38.68H225.726C225.118 38.68 224.894 38.456 224.894 37.928V34.344H226.686V32.072H224.894V29.896H222.158V32.072H221.07V34.344H222.158V37.896ZM227.682 36.52C227.682 39.336 229.426 41.128 231.602 41.128C232.93 41.128 233.874 40.52 234.37 39.736V41H237.106V32.072H234.37V33.336C233.89 32.552 232.946 31.944 231.618 31.944C229.426 31.944 227.682 33.704 227.682 36.52ZM234.37 36.536C234.37 37.96 233.458 38.744 232.418 38.744C231.394 38.744 230.466 37.944 230.466 36.52C230.466 35.096 231.394 34.328 232.418 34.328C233.458 34.328 234.37 35.112 234.37 36.536ZM239.086 41H241.822V29.16H239.086V41ZM243.805 41H246.541V29.16H243.805V41ZM247.979 36.52C247.979 39.336 249.723 41.128 251.899 41.128C253.227 41.128 254.171 40.52 254.667 39.736V41H257.403V32.072H254.667V33.336C254.187 32.552 253.243 31.944 251.915 31.944C249.723 31.944 247.979 33.704 247.979 36.52ZM254.667 36.536C254.667 37.96 253.755 38.744 252.715 38.744C251.691 38.744 250.763 37.944 250.763 36.52C250.763 35.096 251.691 34.328 252.715 34.328C253.755 34.328 254.667 35.112 254.667 36.536ZM259.815 37.896C259.815 40.216 261.111 41 262.967 41H264.359V38.68H263.383C262.775 38.68 262.551 38.456 262.551 37.928V34.344H264.343V32.072H262.551V29.896H259.815V32.072H258.727V34.344H259.815V37.896ZM265.883 41H268.619V32.072H265.883V41ZM267.259 31.144C268.219 31.144 268.875 30.488 268.875 29.672C268.875 28.84 268.219 28.184 267.259 28.184C266.283 28.184 265.627 28.84 265.627 29.672C265.627 30.488 266.283 31.144 267.259 31.144ZM279.337 36.536C279.337 33.704 277.321 31.944 274.697 31.944C272.089 31.944 270.057 33.704 270.057 36.536C270.057 39.368 272.041 41.128 274.665 41.128C277.289 41.128 279.337 39.368 279.337 36.536ZM272.841 36.536C272.841 35.016 273.705 34.312 274.697 34.312C275.657 34.312 276.553 35.016 276.553 36.536C276.553 38.04 275.641 38.76 274.665 38.76C273.673 38.76 272.841 38.04 272.841 36.536ZM286.949 41H289.669V35.784C289.669 33.384 288.293 31.976 286.229 31.976C285.029 31.976 284.069 32.504 283.525 33.256V32.072H280.789V41H283.525V36.152C283.525 34.936 284.197 34.264 285.237 34.264C286.277 34.264 286.949 34.936 286.949 36.152V41Z" fill="black"/>
<rect x="27" y="62" width="326" height="391" fill="#F8F9F9"/>
<path d="M48.82 100.78L53.44 96.24H50.56L45.96 100.78L50.56 105.32H53.44L48.82 100.78ZM65.9661 104.92C65.8461 100.94 59.6261 102.18 59.6261 99.96C59.6261 99.22 60.2661 98.72 61.4861 98.72C62.7261 98.72 63.4661 99.38 63.5461 100.34H65.8261C65.7061 98.14 64.0661 96.8 61.5661 96.8C58.9661 96.8 57.3261 98.22 57.3261 99.98C57.3261 104.02 63.7261 102.78 63.7261 104.94C63.7261 105.7 63.0261 106.26 61.7061 106.26C60.4461 106.26 59.5861 105.52 59.5061 104.62H57.1461C57.2461 106.62 59.1061 108.18 61.7461 108.18C64.3461 108.18 65.9661 106.78 65.9661 104.92ZM67.6697 102.48C67.6697 105.94 69.9097 108.18 73.0697 108.18C75.7697 108.18 77.5297 106.68 78.1497 104.52H75.6897C75.2697 105.66 74.4297 106.26 73.0697 106.26C71.2297 106.26 70.0097 104.9 70.0097 102.48C70.0097 100.08 71.2297 98.72 73.0697 98.72C74.4297 98.72 75.3097 99.4 75.6897 100.46H78.1497C77.5297 98.14 75.7697 96.8 73.0697 96.8C69.9097 96.8 67.6697 99.04 67.6697 102.48ZM82.7019 102.2C82.7019 99.86 83.7419 99.16 85.4219 99.16H86.0019V96.8C84.4419 96.8 83.3419 97.48 82.7019 98.58V96.98H80.4219V108H82.7019V102.2ZM88.0977 108H90.3777V96.98H88.0977V108ZM89.2577 95.52C90.0577 95.52 90.6977 94.88 90.6977 94.06C90.6977 93.24 90.0577 92.6 89.2577 92.6C88.4377 92.6 87.7977 93.24 87.7977 94.06C87.7977 94.88 88.4377 95.52 89.2577 95.52ZM95.6511 98.6V96.98H93.3711V113.24H95.6511V106.4C96.3711 107.26 97.6711 108.18 99.4911 108.18C102.391 108.18 104.671 105.84 104.671 102.44C104.671 99.04 102.391 96.8 99.4911 96.8C97.6911 96.8 96.3511 97.68 95.6511 98.6ZM102.351 102.44C102.351 104.82 100.711 106.2 98.9911 106.2C97.2911 106.2 95.6511 104.86 95.6511 102.48C95.6511 100.12 97.2911 98.78 98.9911 98.78C100.711 98.78 102.351 100.06 102.351 102.44ZM107.286 104.94C107.286 107.18 108.506 108 110.466 108H112.266V106.1H110.866C109.906 106.1 109.586 105.76 109.586 104.94V98.84H112.266V96.98H109.586V94.24H107.286V96.98H105.986V98.84H107.286V104.94ZM127.783 104.92C127.663 100.94 121.443 102.18 121.443 99.96C121.443 99.22 122.083 98.72 123.303 98.72C124.543 98.72 125.283 99.38 125.363 100.34H127.643C127.523 98.14 125.883 96.8 123.383 96.8C120.783 96.8 119.143 98.22 119.143 99.98C119.143 104.02 125.543 102.78 125.543 104.94C125.543 105.7 124.843 106.26 123.523 106.26C122.263 106.26 121.403 105.52 121.323 104.62H118.963C119.063 106.62 120.923 108.18 123.563 108.18C126.163 108.18 127.783 106.78 127.783 104.92ZM132.526 102.2C132.526 99.86 133.566 99.16 135.246 99.16H135.826V96.8C134.266 96.8 133.166 97.48 132.526 98.58V96.98H130.246V108H132.526V102.2ZM137.162 102.48C137.162 105.94 139.402 108.18 142.562 108.18C145.262 108.18 147.022 106.68 147.642 104.52H145.182C144.762 105.66 143.922 106.26 142.562 106.26C140.722 106.26 139.502 104.9 139.502 102.48C139.502 100.08 140.722 98.72 142.562 98.72C143.922 98.72 144.802 99.4 145.182 100.46H147.642C147.022 98.14 145.262 96.8 142.562 96.8C139.402 96.8 137.162 99.04 137.162 102.48ZM150.834 104H161.474V102.08H150.834V104ZM150.834 99.46H161.474V97.54H150.834V99.46ZM164.842 96.16H166.402L166.642 92.06H164.582L164.842 96.16ZM167.862 96.16H169.422L169.662 92.06H167.602L167.862 96.16ZM171.867 108H174.147V101.84C174.147 99.82 175.247 98.78 176.927 98.78C178.587 98.78 179.687 99.82 179.687 101.84V108H181.947V101.5C181.947 98.42 180.027 96.8 177.567 96.8C176.147 96.8 174.907 97.34 174.147 98.26V93.2H171.867V108ZM185.215 104.94C185.215 107.18 186.435 108 188.395 108H190.195V106.1H188.795C187.835 106.1 187.515 105.76 187.515 104.94V98.84H190.195V96.98H187.515V94.24H185.215V96.98H183.915V98.84H185.215V104.94ZM192.657 104.94C192.657 107.18 193.877 108 195.837 108H197.637V106.1H196.237C195.277 106.1 194.957 105.76 194.957 104.94V98.84H197.637V96.98H194.957V94.24H192.657V96.98H191.357V98.84H192.657V104.94ZM202.018 98.6V96.98H199.738V113.24H202.018V106.4C202.738 107.26 204.038 108.18 205.858 108.18C208.758 108.18 211.038 105.84 211.038 102.44C211.038 99.04 208.758 96.8 205.858 96.8C204.058 96.8 202.718 97.68 202.018 98.6ZM208.718 102.44C208.718 104.82 207.078 106.2 205.358 106.2C203.658 106.2 202.018 104.86 202.018 102.48C202.018 100.12 203.658 98.78 205.358 98.78C207.078 98.78 208.718 100.06 208.718 102.44ZM221.513 104.92C221.393 100.94 215.173 102.18 215.173 99.96C215.173 99.22 215.813 98.72 217.033 98.72C218.273 98.72 219.013 99.38 219.093 100.34H221.373C221.253 98.14 219.613 96.8 217.113 96.8C214.513 96.8 212.873 98.22 212.873 99.98C212.873 104.02 219.273 102.78 219.273 104.94C219.273 105.7 218.573 106.26 217.253 106.26C215.993 106.26 215.133 105.52 215.053 104.62H212.693C212.793 106.62 214.653 108.18 217.293 108.18C219.893 108.18 221.513 106.78 221.513 104.92ZM226.337 106.68C226.337 105.86 225.697 105.22 224.897 105.22C224.077 105.22 223.437 105.86 223.437 106.68C223.437 107.5 224.077 108.14 224.897 108.14C225.697 108.14 226.337 107.5 226.337 106.68ZM226.337 98.28C226.337 97.46 225.697 96.82 224.897 96.82C224.077 96.82 223.437 97.46 223.437 98.28C223.437 99.1 224.077 99.74 224.897 99.74C225.697 99.74 226.337 99.1 226.337 98.28ZM228.599 111.5H230.839L236.279 89.12H234.019L228.599 111.5ZM238.872 111.5H241.112L246.552 89.12H244.292L238.872 111.5ZM44.74 132.48C44.74 135.94 46.98 138.18 50.14 138.18C52.84 138.18 54.6 136.68 55.22 134.52H52.76C52.34 135.66 51.5 136.26 50.14 136.26C48.3 136.26 47.08 134.9 47.08 132.48C47.08 130.08 48.3 128.72 50.14 128.72C51.5 128.72 52.38 129.4 52.76 130.46H55.22C54.6 128.14 52.84 126.8 50.14 126.8C46.98 126.8 44.74 129.04 44.74 132.48ZM56.7322 132.44C56.7322 135.84 59.0322 138.18 61.9322 138.18C63.7322 138.18 65.0522 137.34 65.7522 136.34V138H68.0522V123.2H65.7522V128.52C64.9122 127.48 63.3922 126.8 61.9522 126.8C59.0322 126.8 56.7322 129.04 56.7322 132.44ZM65.7522 132.48C65.7522 134.86 64.1322 136.2 62.4122 136.2C60.7122 136.2 59.0722 134.82 59.0722 132.44C59.0722 130.06 60.7122 128.78 62.4122 128.78C64.1322 128.78 65.7522 130.12 65.7522 132.48ZM78.8669 138H81.1269V131.5C81.1269 128.42 79.1869 126.8 76.6069 126.8C75.2869 126.8 74.0669 127.34 73.3269 128.24V126.98H71.0469V138H73.3269V131.84C73.3269 129.82 74.4269 128.78 76.1069 128.78C77.7669 128.78 78.8669 129.82 78.8669 131.84V138ZM86.3952 136.68C86.3952 135.86 85.7552 135.22 84.9552 135.22C84.1352 135.22 83.4952 135.86 83.4952 136.68C83.4952 137.5 84.1352 138.14 84.9552 138.14C85.7552 138.14 86.3952 137.5 86.3952 136.68ZM88.8594 138H91.1394V126.98H88.8594V138ZM90.0194 125.52C90.8194 125.52 91.4594 124.88 91.4594 124.06C91.4594 123.24 90.8194 122.6 90.0194 122.6C89.1994 122.6 88.5594 123.24 88.5594 124.06C88.5594 124.88 89.1994 125.52 90.0194 125.52ZM101.953 138H104.213V131.5C104.213 128.42 102.273 126.8 99.6928 126.8C98.3728 126.8 97.1528 127.34 96.4128 128.24V126.98H94.1328V138H96.4128V131.84C96.4128 129.82 97.5128 128.78 99.1928 128.78C100.853 128.78 101.953 129.82 101.953 131.84V138ZM106.361 132.44C106.361 135.84 108.661 138.18 111.561 138.18C113.361 138.18 114.681 137.28 115.381 136.34V138.18C115.381 140.38 114.061 141.46 112.301 141.46C110.721 141.46 109.501 140.68 109.161 139.54H106.901C107.181 141.98 109.361 143.44 112.301 143.44C115.741 143.44 117.681 141.18 117.681 138.18V126.98H115.381V128.58C114.701 127.64 113.361 126.8 111.561 126.8C108.661 126.8 106.361 129.04 106.361 132.44ZM115.381 132.48C115.381 134.86 113.761 136.2 112.041 136.2C110.341 136.2 108.701 134.82 108.701 132.44C108.701 130.06 110.341 128.78 112.041 128.78C113.761 128.78 115.381 130.12 115.381 132.48ZM131.176 132.48C131.176 129.02 128.696 126.8 125.556 126.8C122.416 126.8 119.936 129.02 119.936 132.48C119.936 135.94 122.316 138.18 125.456 138.18C128.616 138.18 131.176 135.94 131.176 132.48ZM122.256 132.48C122.256 129.98 123.796 128.78 125.516 128.78C127.216 128.78 128.836 129.98 128.836 132.48C128.836 134.98 127.156 136.2 125.456 136.2C123.736 136.2 122.256 134.98 122.256 132.48ZM135.79 136.68C135.79 135.86 135.15 135.22 134.35 135.22C133.53 135.22 132.89 135.86 132.89 136.68C132.89 137.5 133.53 138.14 134.35 138.14C135.15 138.14 135.79 137.5 135.79 136.68ZM153.874 138H156.134V131.5C156.134 128.42 154.174 126.8 151.594 126.8C149.994 126.8 148.434 127.64 147.754 128.98C146.994 127.54 145.534 126.8 143.794 126.8C142.474 126.8 141.274 127.34 140.534 128.24V126.98H138.254V138H140.534V131.84C140.534 129.82 141.634 128.78 143.314 128.78C144.974 128.78 146.074 129.82 146.074 131.84V138H148.334V131.84C148.334 129.82 149.434 128.78 151.114 128.78C152.774 128.78 153.874 129.82 153.874 131.84V138ZM163.675 128.72C165.375 128.72 166.715 129.8 166.755 131.5H160.655C160.895 129.76 162.135 128.72 163.675 128.72ZM168.835 134.72H166.375C165.955 135.58 165.175 136.26 163.775 136.26C162.095 136.26 160.795 135.16 160.635 133.34H169.055C169.115 132.96 169.135 132.6 169.135 132.22C169.135 128.98 166.915 126.8 163.775 126.8C160.515 126.8 158.275 129.02 158.275 132.48C158.275 135.94 160.615 138.18 163.775 138.18C166.475 138.18 168.215 136.64 168.835 134.72ZM171.099 141.5H173.339L178.779 119.12H176.519L171.099 141.5ZM47.64 168H50.04L52.26 159.86L54.48 168H56.88L60.3 156.98H58.06L55.78 165.8L53.54 156.98H51.16L48.82 165.84L46.52 156.98H44.2L47.64 168ZM62.0039 168H64.2839V156.98H62.0039V168ZM63.1639 155.52C63.9639 155.52 64.6039 154.88 64.6039 154.06C64.6039 153.24 63.9639 152.6 63.1639 152.6C62.3439 152.6 61.7039 153.24 61.7039 154.06C61.7039 154.88 62.3439 155.52 63.1639 155.52ZM66.5173 162.44C66.5173 165.84 68.8173 168.18 71.7173 168.18C73.5173 168.18 74.8373 167.34 75.5373 166.34V168H77.8373V153.2H75.5373V158.52C74.6973 157.48 73.1773 156.8 71.7373 156.8C68.8173 156.8 66.5173 159.04 66.5173 162.44ZM75.5373 162.48C75.5373 164.86 73.9173 166.2 72.1973 166.2C70.4973 166.2 68.8573 164.82 68.8573 162.44C68.8573 160.06 70.4973 158.78 72.1973 158.78C73.9173 158.78 75.5373 160.12 75.5373 162.48ZM80.072 162.44C80.072 165.84 82.372 168.18 85.272 168.18C87.072 168.18 88.392 167.28 89.092 166.34V168.18C89.092 170.38 87.772 171.46 86.012 171.46C84.432 171.46 83.212 170.68 82.872 169.54H80.612C80.892 171.98 83.072 173.44 86.012 173.44C89.452 173.44 91.392 171.18 91.392 168.18V156.98H89.092V158.58C88.412 157.64 87.072 156.8 85.272 156.8C82.372 156.8 80.072 159.04 80.072 162.44ZM89.092 162.48C89.092 164.86 87.472 166.2 85.752 166.2C84.052 166.2 82.412 164.82 82.412 162.44C82.412 160.06 84.052 158.78 85.752 158.78C87.472 158.78 89.092 160.12 89.092 162.48ZM99.0267 158.72C100.727 158.72 102.067 159.8 102.107 161.5H96.0067C96.2467 159.76 97.4867 158.72 99.0267 158.72ZM104.187 164.72H101.727C101.307 165.58 100.527 166.26 99.1267 166.26C97.4467 166.26 96.1467 165.16 95.9867 163.34H104.407C104.467 162.96 104.487 162.6 104.487 162.22C104.487 158.98 102.267 156.8 99.1267 156.8C95.8667 156.8 93.6267 159.02 93.6267 162.48C93.6267 165.94 95.9667 168.18 99.1267 168.18C101.827 168.18 103.567 166.64 104.187 164.72ZM107.09 164.94C107.09 167.18 108.31 168 110.27 168H112.07V166.1H110.67C109.71 166.1 109.39 165.76 109.39 164.94V158.84H112.07V156.98H109.39V154.24H107.09V156.98H105.79V158.84H107.09V164.94ZM122.392 164.92C122.272 160.94 116.052 162.18 116.052 159.96C116.052 159.22 116.692 158.72 117.912 158.72C119.152 158.72 119.892 159.38 119.972 160.34H122.252C122.132 158.14 120.492 156.8 117.992 156.8C115.392 156.8 113.752 158.22 113.752 159.98C113.752 164.02 120.152 162.78 120.152 164.94C120.152 165.7 119.452 166.26 118.132 166.26C116.872 166.26 116.012 165.52 115.932 164.62H113.572C113.672 166.62 115.532 168.18 118.172 168.18C120.772 168.18 122.392 166.78 122.392 164.92ZM124.575 171.5H126.815L132.255 149.12H129.995L124.575 171.5ZM136.389 168H138.689V153.42H134.529V155.5H136.389V168ZM142.121 168H144.401V161.92H149.001V160.06H144.401V155.96H150.301V154.1H142.121V168ZM152.074 157.02H154.294C154.434 156 155.174 155.04 156.774 155.04C158.334 155.04 159.154 155.88 159.154 157.14C159.154 158.7 157.894 159.3 155.834 159.32H155.294V161.2H155.814C158.194 161.2 159.434 161.86 159.434 163.78C159.434 165.14 158.594 166.18 156.894 166.18C155.174 166.18 154.174 165.14 154.074 163.78H151.874C152.014 166.64 154.154 168.08 156.914 168.08C159.954 168.08 161.594 166.32 161.594 164C161.594 161.98 160.614 160.72 159.094 160.26V160.18C160.234 159.8 161.334 158.62 161.334 156.88C161.334 154.76 159.754 153.08 156.854 153.08C154.194 153.08 152.234 154.5 152.074 157.02ZM170.949 168H173.189V164.96H175.049V162.98H173.189V153.6H170.429L163.709 163.24V164.96H170.949V168ZM166.329 162.98L171.049 155.92V162.98H166.329ZM176.898 157.02H179.118C179.258 156 179.998 155.04 181.598 155.04C183.158 155.04 183.978 155.88 183.978 157.14C183.978 158.7 182.718 159.3 180.658 159.32H180.118V161.2H180.638C183.018 161.2 184.258 161.86 184.258 163.78C184.258 165.14 183.418 166.18 181.718 166.18C179.998 166.18 178.998 165.14 178.898 163.78H176.698C176.838 166.64 178.978 168.08 181.738 168.08C184.778 168.08 186.418 166.32 186.418 164C186.418 161.98 185.438 160.72 183.918 160.26V160.18C185.058 159.8 186.158 158.62 186.158 156.88C186.158 154.76 184.578 153.08 181.678 153.08C179.018 153.08 177.058 154.5 176.898 157.02ZM188.813 160.52C188.813 164.76 189.933 167.96 194.013 167.96C198.093 167.96 199.213 164.76 199.213 160.52C199.213 156.36 198.093 153.16 194.013 153.16C189.933 153.16 188.813 156.36 188.813 160.52ZM196.973 160.52C196.973 163.38 196.673 165.88 194.013 165.88C191.353 165.88 191.053 163.38 191.053 160.52C191.053 157.8 191.353 155.24 194.013 155.24C196.673 155.24 196.973 157.8 196.973 160.52ZM201.586 157.02H203.806C203.946 156 204.686 155.04 206.286 155.04C207.846 155.04 208.666 155.88 208.666 157.14C208.666 158.7 207.406 159.3 205.346 159.32H204.806V161.2H205.326C207.706 161.2 208.946 161.86 208.946 163.78C208.946 165.14 208.106 166.18 206.406 166.18C204.686 166.18 203.686 165.14 203.586 163.78H201.386C201.526 166.64 203.666 168.08 206.426 168.08C209.466 168.08 211.106 166.32 211.106 164C211.106 161.98 210.126 160.72 208.606 160.26V160.18C209.746 159.8 210.846 158.62 210.846 156.88C210.846 154.76 209.266 153.08 206.366 153.08C203.706 153.08 201.746 154.5 201.586 157.02ZM220.461 168H222.701V164.96H224.561V162.98H222.701V153.6H219.941L213.221 163.24V164.96H220.461V168ZM215.841 162.98L220.561 155.92V162.98H215.841ZM233.41 168H235.65V164.96H237.51V162.98H235.65V153.6H232.89L226.17 163.24V164.96H233.41V168ZM228.79 162.98L233.51 155.92V162.98H228.79ZM239.999 153.38V161.8H242.159C242.539 160.72 243.439 159.98 244.779 159.98C246.679 159.98 247.619 161.06 247.619 162.96C247.619 164.76 246.739 166.1 244.779 166.1C243.239 166.1 242.199 165.3 241.899 164.06H239.679C240.019 166.34 241.759 168 244.759 168C248.139 168 249.799 165.8 249.799 162.9C249.799 160.7 248.699 158.04 245.119 158.04C243.819 158.04 242.639 158.64 242.099 159.36V155.38H248.799V153.38H239.999ZM252.133 157.02H254.353C254.493 156 255.233 155.04 256.833 155.04C258.393 155.04 259.213 155.88 259.213 157.14C259.213 158.7 257.953 159.3 255.893 159.32H255.353V161.2H255.873C258.253 161.2 259.493 161.86 259.493 163.78C259.493 165.14 258.653 166.18 256.953 166.18C255.233 166.18 254.233 165.14 254.133 163.78H251.933C252.073 166.64 254.213 168.08 256.973 168.08C260.013 168.08 261.653 166.32 261.653 164C261.653 161.98 260.673 160.72 259.153 160.26V160.18C260.293 159.8 261.393 158.62 261.393 156.88C261.393 154.76 259.813 153.08 256.913 153.08C254.253 153.08 252.293 154.5 252.133 157.02ZM272.028 154.08H264.348V168H272.028V166.14H266.628V161.88H271.428V160.02H266.628V155.94H272.028V154.08ZM281.496 168H283.736V164.96H285.596V162.98H283.736V153.6H280.976L274.256 163.24V164.96H281.496V168ZM276.876 162.98L281.596 155.92V162.98H276.876ZM295.465 154.08H287.785V168H295.465V166.14H290.065V161.88H294.865V160.02H290.065V155.94H295.465V154.08ZM300.433 160.38C298.973 160.92 297.993 162.22 297.993 163.98C297.993 166.64 300.153 168.36 303.153 168.36C306.173 168.36 308.333 166.64 308.333 163.98C308.333 162.24 307.353 160.94 305.873 160.38C307.053 159.8 307.953 158.66 307.953 157.1C307.953 155 306.373 153.16 303.153 153.16C299.933 153.16 298.353 154.98 298.353 157.1C298.353 158.72 299.193 159.76 300.433 160.38ZM303.153 159.66C301.633 159.66 300.553 158.72 300.553 157.4C300.553 155.86 301.593 155.06 303.153 155.06C304.753 155.06 305.773 155.88 305.773 157.38C305.773 158.7 304.673 159.66 303.153 159.66ZM303.153 161.38C304.873 161.38 306.093 162.26 306.093 163.9C306.093 165.36 304.993 166.46 303.153 166.46C301.293 166.46 300.173 165.38 300.173 163.9C300.173 162.2 301.473 161.38 303.153 161.38ZM320.407 168H322.807L317.827 154.08H315.187L310.207 168H312.587L313.587 165.16H319.407L320.407 168ZM318.767 163.3H314.227L316.507 156.84L318.767 163.3ZM54.88 198H57.28L52.3 184.08H49.66L44.68 198H47.06L48.06 195.16H53.88L54.88 198ZM53.24 193.3H48.7L50.98 186.84L53.24 193.3ZM59.8853 194.04C60.0653 196.12 61.4653 197.98 64.4853 197.98C68.3053 197.98 69.3453 195.36 69.3453 190.44C69.3453 185.66 68.0853 183.08 64.3253 183.08C61.2653 183.08 59.4853 185 59.4853 187.9C59.4853 190.98 61.5653 192.56 64.1253 192.56C65.4453 192.56 66.7053 192.06 67.3653 191.14C67.3653 194.86 66.4453 196.08 64.6253 196.08C63.1053 196.08 62.2453 195.34 61.9853 194.04H59.8853ZM64.5253 190.64C62.5053 190.64 61.6653 189.34 61.6653 187.84C61.6653 186.16 62.6853 184.98 64.3853 184.98C66.0453 184.98 67.1053 186.04 67.1053 187.9C67.1053 189.54 66.1453 190.64 64.5253 190.64ZM71.8006 187.02H74.0206C74.1606 186 74.9006 185.04 76.5006 185.04C78.0606 185.04 78.8806 185.88 78.8806 187.14C78.8806 188.7 77.6206 189.3 75.5606 189.32H75.0206V191.2H75.5406C77.9206 191.2 79.1606 191.86 79.1606 193.78C79.1606 195.14 78.3206 196.18 76.6206 196.18C74.9006 196.18 73.9006 195.14 73.8006 193.78H71.6006C71.7406 196.64 73.8806 198.08 76.6406 198.08C79.6806 198.08 81.3206 196.32 81.3206 194C81.3206 191.98 80.3406 190.72 78.8206 190.26V190.18C79.9606 189.8 81.0606 188.62 81.0606 186.88C81.0606 184.76 79.4806 183.08 76.5806 183.08C73.9206 183.08 71.9606 184.5 71.8006 187.02ZM83.3156 183.48V185.42H90.7156L85.0956 198H87.3956L92.9556 185.18V183.48H83.3156ZM96.467 198H98.767V183.42H94.607V185.5H96.467V198ZM101.899 190.52C101.899 194.76 103.019 197.96 107.099 197.96C111.179 197.96 112.299 194.76 112.299 190.52C112.299 186.36 111.179 183.16 107.099 183.16C103.019 183.16 101.899 186.36 101.899 190.52ZM110.059 190.52C110.059 193.38 109.759 195.88 107.099 195.88C104.439 195.88 104.139 193.38 104.139 190.52C104.139 187.8 104.439 185.24 107.099 185.24C109.759 185.24 110.059 187.8 110.059 190.52ZM122.852 194.02C122.852 195.36 121.912 196.14 120.372 196.14H117.292V191.8H120.292C121.812 191.8 122.852 192.64 122.852 194.02ZM122.492 187.96C122.492 189.24 121.592 189.94 120.112 189.94H117.292V185.96H120.112C121.592 185.96 122.492 186.7 122.492 187.96ZM125.132 194.26C125.132 192.6 123.932 191.12 122.452 190.86C123.792 190.38 124.812 189.36 124.812 187.68C124.812 185.72 123.252 184.1 120.312 184.1H115.012V198H120.572C123.412 198 125.132 196.38 125.132 194.26ZM132.149 184.1H127.609V198H132.149C136.609 198 139.529 195.38 139.529 191.1C139.529 186.8 136.609 184.1 132.149 184.1ZM129.889 196.14V185.96H132.149C135.429 185.96 137.189 187.92 137.189 191.1C137.189 194.26 135.429 196.14 132.149 196.14H129.889ZM141.449 187.02H143.669C143.809 186 144.549 185.04 146.149 185.04C147.709 185.04 148.529 185.88 148.529 187.14C148.529 188.7 147.269 189.3 145.209 189.32H144.669V191.2H145.189C147.569 191.2 148.809 191.86 148.809 193.78C148.809 195.14 147.969 196.18 146.269 196.18C144.549 196.18 143.549 195.14 143.449 193.78H141.249C141.389 196.64 143.529 198.08 146.289 198.08C149.329 198.08 150.969 196.32 150.969 194C150.969 191.98 149.989 190.72 148.469 190.26V190.18C149.609 189.8 150.709 188.62 150.709 186.88C150.709 184.76 149.129 183.08 146.229 183.08C143.569 183.08 141.609 184.5 141.449 187.02ZM152.964 183.48V185.42H160.364L154.744 198H157.044L162.604 185.18V183.48H152.964ZM174.235 198H176.635L171.655 184.08H169.015L164.035 198H166.415L167.415 195.16H173.235L174.235 198ZM172.595 193.3H168.055L170.335 186.84L172.595 193.3ZM178.321 197.8H188.041V195.9H181.701C184.041 193.76 187.641 191.06 187.641 187.52C187.641 184.9 185.961 183.12 183.001 183.12C180.421 183.12 178.381 184.66 178.301 187.82H180.501C180.561 186.18 181.421 185.06 183.021 185.06C184.721 185.06 185.381 186.1 185.381 187.62C185.381 190.48 181.761 193.12 178.321 196.14V197.8ZM191.604 198H193.904V183.42H189.744V185.5H191.604V198ZM196.636 183.48V185.42H204.036L198.416 198H200.716L206.276 185.18V183.48H196.636ZM213.067 184.1H208.527V198H213.067C217.527 198 220.447 195.38 220.447 191.1C220.447 186.8 217.527 184.1 213.067 184.1ZM210.807 196.14V185.96H213.067C216.347 185.96 218.107 187.92 218.107 191.1C218.107 194.26 216.347 196.14 213.067 196.14H210.807ZM227.247 184.1H222.707V198H227.247C231.707 198 234.627 195.38 234.627 191.1C234.627 186.8 231.707 184.1 227.247 184.1ZM224.987 196.14V185.96H227.247C230.527 185.96 232.287 187.92 232.287 191.1C232.287 194.26 230.527 196.14 227.247 196.14H224.987ZM239.247 196.68C239.247 195.86 238.607 195.22 237.807 195.22C236.987 195.22 236.347 195.86 236.347 196.68C236.347 197.5 236.987 198.14 237.807 198.14C238.607 198.14 239.247 197.5 239.247 196.68ZM242.871 185.52C243.671 185.52 244.311 184.88 244.311 184.06C244.311 183.24 243.671 182.6 242.871 182.6C242.051 182.6 241.411 183.24 241.411 184.06C241.411 184.88 242.051 185.52 242.871 185.52ZM241.711 186.98V200.16C241.711 200.98 241.391 201.32 240.431 201.32H239.651V203.24H240.831C242.791 203.24 243.991 202.4 243.991 200.16V186.98H241.711ZM255.204 194.92C255.084 190.94 248.864 192.18 248.864 189.96C248.864 189.22 249.504 188.72 250.724 188.72C251.964 188.72 252.704 189.38 252.784 190.34H255.064C254.944 188.14 253.304 186.8 250.804 186.8C248.204 186.8 246.564 188.22 246.564 189.98C246.564 194.02 252.964 192.78 252.964 194.94C252.964 195.7 252.264 196.26 250.944 196.26C249.684 196.26 248.824 195.52 248.744 194.62H246.384C246.484 196.62 248.344 198.18 250.984 198.18C253.584 198.18 255.204 196.78 255.204 194.92ZM257.108 186.16H258.668L258.908 182.06H256.848L257.108 186.16ZM260.128 186.16H261.688L261.928 182.06H259.868L260.128 186.16ZM44.74 222.44C44.74 225.84 47.04 228.18 49.94 228.18C51.74 228.18 53.06 227.34 53.76 226.34V228H56.06V213.2H53.76V218.52C52.92 217.48 51.4 216.8 49.96 216.8C47.04 216.8 44.74 219.04 44.74 222.44ZM53.76 222.48C53.76 224.86 52.14 226.2 50.42 226.2C48.72 226.2 47.08 224.82 47.08 222.44C47.08 220.06 48.72 218.78 50.42 218.78C52.14 218.78 53.76 220.12 53.76 222.48ZM58.2947 222.44C58.2947 225.84 60.5947 228.18 63.4547 228.18C65.2947 228.18 66.6147 227.3 67.3147 226.36V228H69.6147V216.98H67.3147V218.58C66.6347 217.68 65.3547 216.8 63.4947 216.8C60.5947 216.8 58.2947 219.04 58.2947 222.44ZM67.3147 222.48C67.3147 224.86 65.6947 226.2 63.9747 226.2C62.2747 226.2 60.6347 224.82 60.6347 222.44C60.6347 220.06 62.2747 218.78 63.9747 218.78C65.6947 218.78 67.3147 220.12 67.3147 222.48ZM72.9694 224.94C72.9694 227.18 74.1894 228 76.1494 228H77.9494V226.1H76.5494C75.5894 226.1 75.2694 225.76 75.2694 224.94V218.84H77.9494V216.98H75.2694V214.24H72.9694V216.98H71.6694V218.84H72.9694V224.94ZM79.2908 222.44C79.2908 225.84 81.5908 228.18 84.4508 228.18C86.2908 228.18 87.6108 227.3 88.3108 226.36V228H90.6108V216.98H88.3108V218.58C87.6308 217.68 86.3508 216.8 84.4908 216.8C81.5908 216.8 79.2908 219.04 79.2908 222.44ZM88.3108 222.48C88.3108 224.86 86.6908 226.2 84.9708 226.2C83.2708 226.2 81.6308 224.82 81.6308 222.44C81.6308 220.06 83.2708 218.78 84.9708 218.78C86.6908 218.78 88.3108 220.12 88.3108 222.48ZM93.8455 221.72H102.065V219.8H93.8455V221.72ZM105.305 228H107.585V216.98H105.305V228ZM106.465 215.52C107.265 215.52 107.905 214.88 107.905 214.06C107.905 213.24 107.265 212.6 106.465 212.6C105.645 212.6 105.005 213.24 105.005 214.06C105.005 214.88 105.645 215.52 106.465 215.52ZM118.398 228H120.658V221.5C120.658 218.42 118.718 216.8 116.138 216.8C114.818 216.8 113.598 217.34 112.858 218.24V216.98H110.578V228H112.858V221.84C112.858 219.82 113.958 218.78 115.638 218.78C117.298 218.78 118.398 219.82 118.398 221.84V228ZM122.806 222.44C122.806 225.84 125.106 228.18 128.006 228.18C129.806 228.18 131.126 227.28 131.826 226.34V228.18C131.826 230.38 130.506 231.46 128.746 231.46C127.166 231.46 125.946 230.68 125.606 229.54H123.346C123.626 231.98 125.806 233.44 128.746 233.44C132.186 233.44 134.126 231.18 134.126 228.18V216.98H131.826V218.58C131.146 217.64 129.806 216.8 128.006 216.8C125.106 216.8 122.806 219.04 122.806 222.44ZM131.826 222.48C131.826 224.86 130.206 226.2 128.486 226.2C126.786 226.2 125.146 224.82 125.146 222.44C125.146 220.06 126.786 218.78 128.486 218.78C130.206 218.78 131.826 220.12 131.826 222.48ZM147.621 222.48C147.621 219.02 145.141 216.8 142.001 216.8C138.861 216.8 136.381 219.02 136.381 222.48C136.381 225.94 138.761 228.18 141.901 228.18C145.061 228.18 147.621 225.94 147.621 222.48ZM138.701 222.48C138.701 219.98 140.241 218.78 141.961 218.78C143.661 218.78 145.281 219.98 145.281 222.48C145.281 224.98 143.601 226.2 141.901 226.2C140.181 226.2 138.701 224.98 138.701 222.48ZM150.115 221.72H158.335V219.8H150.115V221.72ZM177.194 228H179.454V221.5C179.454 218.42 177.494 216.8 174.914 216.8C173.314 216.8 171.754 217.64 171.074 218.98C170.314 217.54 168.854 216.8 167.114 216.8C165.794 216.8 164.594 217.34 163.854 218.24V216.98H161.574V228H163.854V221.84C163.854 219.82 164.954 218.78 166.634 218.78C168.294 218.78 169.394 219.82 169.394 221.84V228H171.654V221.84C171.654 219.82 172.754 218.78 174.434 218.78C176.094 218.78 177.194 219.82 177.194 221.84V228ZM181.595 222.44C181.595 225.84 183.895 228.18 186.755 228.18C188.595 228.18 189.915 227.3 190.615 226.36V228H192.915V216.98H190.615V218.58C189.935 217.68 188.655 216.8 186.795 216.8C183.895 216.8 181.595 219.04 181.595 222.44ZM190.615 222.48C190.615 224.86 188.995 226.2 187.275 226.2C185.575 226.2 183.935 224.82 183.935 222.44C183.935 220.06 185.575 218.78 187.275 218.78C188.995 218.78 190.615 220.12 190.615 222.48ZM203.73 228H205.99V221.5C205.99 218.42 204.05 216.8 201.47 216.8C200.15 216.8 198.93 217.34 198.19 218.24V216.98H195.91V228H198.19V221.84C198.19 219.82 199.29 218.78 200.97 218.78C202.63 218.78 203.73 219.82 203.73 221.84V228ZM218.878 216.98H216.598V223.12C216.598 225.14 215.498 226.18 213.818 226.18C212.158 226.18 211.058 225.14 211.058 223.12V216.98H208.798V223.46C208.798 226.54 210.758 228.16 213.338 228.16C214.638 228.16 215.878 227.62 216.598 226.68V228H218.878V216.98ZM221.127 222.44C221.127 225.84 223.427 228.18 226.287 228.18C228.127 228.18 229.447 227.3 230.147 226.36V228H232.447V216.98H230.147V218.58C229.467 217.68 228.187 216.8 226.327 216.8C223.427 216.8 221.127 219.04 221.127 222.44ZM230.147 222.48C230.147 224.86 228.527 226.2 226.807 226.2C225.107 226.2 223.467 224.82 223.467 222.44C223.467 220.06 225.107 218.78 226.807 218.78C228.527 218.78 230.147 220.12 230.147 222.48ZM235.441 228H237.721V213.2H235.441V228ZM241.635 224H252.275V222.08H241.635V224ZM241.635 219.46H252.275V217.54H241.635V219.46ZM255.643 216.16H257.203L257.443 212.06H255.383L255.643 216.16ZM258.663 216.16H260.223L260.463 212.06H258.403L258.663 216.16ZM262.668 228H264.948V221.84C264.948 219.82 266.048 218.78 267.728 218.78C269.388 218.78 270.488 219.82 270.488 221.84V228H272.748V221.5C272.748 218.42 270.828 216.8 268.368 216.8C266.948 216.8 265.708 217.34 264.948 218.26V213.2H262.668V228ZM276.016 224.94C276.016 227.18 277.236 228 279.196 228H280.996V226.1H279.596C278.636 226.1 278.316 225.76 278.316 224.94V218.84H280.996V216.98H278.316V214.24H276.016V216.98H274.716V218.84H276.016V224.94ZM283.458 224.94C283.458 227.18 284.678 228 286.638 228H288.438V226.1H287.038C286.078 226.1 285.758 225.76 285.758 224.94V218.84H288.438V216.98H285.758V214.24H283.458V216.98H282.158V218.84H283.458V224.94ZM292.819 218.6V216.98H290.539V233.24H292.819V226.4C293.539 227.26 294.839 228.18 296.659 228.18C299.559 228.18 301.839 225.84 301.839 222.44C301.839 219.04 299.559 216.8 296.659 216.8C294.859 216.8 293.519 217.68 292.819 218.6ZM299.519 222.44C299.519 224.82 297.879 226.2 296.159 226.2C294.459 226.2 292.819 224.86 292.819 222.48C292.819 220.12 294.459 218.78 296.159 218.78C297.879 218.78 299.519 220.06 299.519 222.44ZM306.454 226.68C306.454 225.86 305.814 225.22 305.014 225.22C304.194 225.22 303.554 225.86 303.554 226.68C303.554 227.5 304.194 228.14 305.014 228.14C305.814 228.14 306.454 227.5 306.454 226.68ZM306.454 218.28C306.454 217.46 305.814 216.82 305.014 216.82C304.194 216.82 303.554 217.46 303.554 218.28C303.554 219.1 304.194 219.74 305.014 219.74C305.814 219.74 306.454 219.1 306.454 218.28ZM308.716 231.5H310.956L316.396 209.12H314.136L308.716 231.5ZM318.99 231.5H321.23L326.67 209.12H324.41L318.99 231.5ZM47.64 258H50.04L52.26 249.86L54.48 258H56.88L60.3 246.98H58.06L55.78 255.8L53.54 246.98H51.16L48.82 255.84L46.52 246.98H44.2L47.64 258ZM64.1439 258H66.5439L68.7639 249.86L70.9839 258H73.3839L76.8039 246.98H74.5639L72.2839 255.8L70.0439 246.98H67.6639L65.3239 255.84L63.0239 246.98H60.7039L64.1439 258ZM80.6478 258H83.0478L85.2678 249.86L87.4878 258H89.8878L93.3078 246.98H91.0678L88.7878 255.8L86.5478 246.98H84.1678L81.8278 255.84L79.5278 246.98H77.2078L80.6478 258ZM97.3717 256.68C97.3717 255.86 96.7317 255.22 95.9317 255.22C95.1117 255.22 94.4717 255.86 94.4717 256.68C94.4717 257.5 95.1117 258.14 95.9317 258.14C96.7317 258.14 97.3717 257.5 97.3717 256.68ZM99.8359 258H102.116V246.98H99.8359V258ZM100.996 245.52C101.796 245.52 102.436 244.88 102.436 244.06C102.436 243.24 101.796 242.6 100.996 242.6C100.176 242.6 99.5359 243.24 99.5359 244.06C99.5359 244.88 100.176 245.52 100.996 245.52ZM112.929 258H115.189V251.5C115.189 248.42 113.249 246.8 110.669 246.8C109.349 246.8 108.129 247.34 107.389 248.24V246.98H105.109V258H107.389V251.84C107.389 249.82 108.489 248.78 110.169 248.78C111.829 248.78 112.929 249.82 112.929 251.84V258ZM126.318 254.92C126.198 250.94 119.978 252.18 119.978 249.96C119.978 249.22 120.618 248.72 121.838 248.72C123.078 248.72 123.818 249.38 123.898 250.34H126.178C126.058 248.14 124.418 246.8 121.918 246.8C119.318 246.8 117.678 248.22 117.678 249.98C117.678 254.02 124.078 252.78 124.078 254.94C124.078 255.7 123.378 256.26 122.058 256.26C120.798 256.26 119.938 255.52 119.858 254.62H117.498C117.598 256.62 119.458 258.18 122.098 258.18C124.698 258.18 126.318 256.78 126.318 254.92ZM133.421 248.72C135.121 248.72 136.461 249.8 136.501 251.5H130.401C130.641 249.76 131.881 248.72 133.421 248.72ZM138.581 254.72H136.121C135.701 255.58 134.921 256.26 133.521 256.26C131.841 256.26 130.541 255.16 130.381 253.34H138.801C138.861 252.96 138.881 252.6 138.881 252.22C138.881 248.98 136.661 246.8 133.521 246.8C130.261 246.8 128.021 249.02 128.021 252.48C128.021 255.94 130.361 258.18 133.521 258.18C136.221 258.18 137.961 256.64 138.581 254.72ZM143.405 252.2C143.405 249.86 144.445 249.16 146.125 249.16H146.705V246.8C145.145 246.8 144.045 247.48 143.405 248.58V246.98H141.125V258H143.405V252.2ZM149.161 254.94C149.161 257.18 150.381 258 152.341 258H154.141V256.1H152.741C151.781 256.1 151.461 255.76 151.461 254.94V248.84H154.141V246.98H151.461V244.24H149.161V246.98H147.861V248.84H149.161V254.94ZM157.262 260.92H168.422V258.8H157.262V260.92ZM176.539 255.38L173.439 246.98H170.899L175.239 257.82L172.999 263.18H175.359L182.119 246.98H179.759L176.539 255.38ZM194.34 252.48C194.34 249.02 191.86 246.8 188.72 246.8C185.58 246.8 183.1 249.02 183.1 252.48C183.1 255.94 185.48 258.18 188.62 258.18C191.78 258.18 194.34 255.94 194.34 252.48ZM185.42 252.48C185.42 249.98 186.96 248.78 188.68 248.78C190.38 248.78 192 249.98 192 252.48C192 254.98 190.32 256.2 188.62 256.2C186.9 256.2 185.42 254.98 185.42 252.48ZM206.574 246.98H204.294V253.12C204.294 255.14 203.194 256.18 201.514 256.18C199.854 256.18 198.754 255.14 198.754 253.12V246.98H196.494V253.46C196.494 256.54 198.454 258.16 201.034 258.16C202.334 258.16 203.574 257.62 204.294 256.68V258H206.574V246.98ZM211.862 252.2C211.862 249.86 212.902 249.16 214.582 249.16H215.162V246.8C213.602 246.8 212.502 247.48 211.862 248.58V246.98H209.582V258H211.862V252.2ZM218.278 260.92H229.438V258.8H218.278V260.92ZM241.035 258H243.295V251.5C243.295 248.42 241.355 246.8 238.775 246.8C237.455 246.8 236.235 247.34 235.495 248.24V246.98H233.215V258H235.495V251.84C235.495 249.82 236.595 248.78 238.275 248.78C239.935 248.78 241.035 249.82 241.035 251.84V258ZM250.843 248.72C252.543 248.72 253.883 249.8 253.923 251.5H247.823C248.063 249.76 249.303 248.72 250.843 248.72ZM256.003 254.72H253.543C253.123 255.58 252.343 256.26 250.943 256.26C249.263 256.26 247.963 255.16 247.803 253.34H256.223C256.283 252.96 256.303 252.6 256.303 252.22C256.303 248.98 254.083 246.8 250.943 246.8C247.683 246.8 245.443 249.02 245.443 252.48C245.443 255.94 247.783 258.18 250.943 258.18C253.643 258.18 255.383 256.64 256.003 254.72ZM264.247 258H266.827L263.267 252.42L266.827 246.98H264.447L262.207 250.72L259.827 246.98H257.247L260.807 252.58L257.247 258H259.627L261.867 254.26L264.247 258ZM268.887 254.94C268.887 257.18 270.107 258 272.067 258H273.867V256.1H272.467C271.507 256.1 271.187 255.76 271.187 254.94V248.84H273.867V246.98H271.187V244.24H268.887V246.98H267.587V248.84H268.887V254.94ZM276.989 260.92H288.149V258.8H276.989V260.92ZM294.206 248.6V246.98H291.926V263.24H294.206V256.4C294.926 257.26 296.226 258.18 298.046 258.18C300.946 258.18 303.226 255.84 303.226 252.44C303.226 249.04 300.946 246.8 298.046 246.8C296.246 246.8 294.906 247.68 294.206 248.6ZM300.906 252.44C300.906 254.82 299.266 256.2 297.546 256.2C295.846 256.2 294.206 254.86 294.206 252.48C294.206 250.12 295.846 248.78 297.546 248.78C299.266 248.78 300.906 250.06 300.906 252.44ZM304.72 252.44C304.72 255.84 307.02 258.18 309.88 258.18C311.72 258.18 313.04 257.3 313.74 256.36V258H316.04V246.98H313.74V248.58C313.06 247.68 311.78 246.8 309.92 246.8C307.02 246.8 304.72 249.04 304.72 252.44ZM313.74 252.48C313.74 254.86 312.12 256.2 310.4 256.2C308.7 256.2 307.06 254.82 307.06 252.44C307.06 250.06 308.7 248.78 310.4 248.78C312.12 248.78 313.74 250.12 313.74 252.48ZM318.275 252.44C318.275 255.84 320.575 258.18 323.475 258.18C325.275 258.18 326.595 257.28 327.295 256.34V258.18C327.295 260.38 325.975 261.46 324.215 261.46C322.635 261.46 321.415 260.68 321.075 259.54H318.815C319.095 261.98 321.275 263.44 324.215 263.44C327.655 263.44 329.595 261.18 329.595 258.18V246.98H327.295V248.58C326.615 247.64 325.275 246.8 323.475 246.8C320.575 246.8 318.275 249.04 318.275 252.44ZM327.295 252.48C327.295 254.86 325.675 256.2 323.955 256.2C322.255 256.2 320.615 254.82 320.615 252.44C320.615 250.06 322.255 248.78 323.955 248.78C325.675 248.78 327.295 250.12 327.295 252.48ZM50.14 278.72C51.84 278.72 53.18 279.8 53.22 281.5H47.12C47.36 279.76 48.6 278.72 50.14 278.72ZM55.3 284.72H52.84C52.42 285.58 51.64 286.26 50.24 286.26C48.56 286.26 47.26 285.16 47.1 283.34H55.52C55.58 282.96 55.6 282.6 55.6 282.22C55.6 278.98 53.38 276.8 50.24 276.8C46.98 276.8 44.74 279.02 44.74 282.48C44.74 285.94 47.08 288.18 50.24 288.18C52.94 288.18 54.68 286.64 55.3 284.72ZM58.8638 290.92H70.0238V288.8H58.8638V290.92ZM75.9408 288H78.3408L80.5608 279.86L82.7808 288H85.1808L88.6008 276.98H86.3608L84.0808 285.8L81.8408 276.98H79.4608L77.1208 285.84L74.8208 276.98H72.5008L75.9408 288ZM90.3047 288H92.5847V281.84C92.5847 279.82 93.6847 278.78 95.3647 278.78C97.0247 278.78 98.1247 279.82 98.1247 281.84V288H100.385V281.5C100.385 278.42 98.4647 276.8 96.0047 276.8C94.5847 276.8 93.3447 277.34 92.5847 278.26V273.2H90.3047V288ZM107.933 278.72C109.633 278.72 110.973 279.8 111.013 281.5H104.913C105.153 279.76 106.393 278.72 107.933 278.72ZM113.093 284.72H110.633C110.213 285.58 109.433 286.26 108.033 286.26C106.353 286.26 105.053 285.16 104.893 283.34H113.313C113.373 282.96 113.393 282.6 113.393 282.22C113.393 278.98 111.173 276.8 108.033 276.8C104.773 276.8 102.533 279.02 102.533 282.48C102.533 285.94 104.873 288.18 108.033 288.18C110.733 288.18 112.473 286.64 113.093 284.72ZM117.917 282.2C117.917 279.86 118.957 279.16 120.637 279.16H121.217V276.8C119.657 276.8 118.557 277.48 117.917 278.58V276.98H115.637V288H117.917V282.2ZM127.953 278.72C129.653 278.72 130.993 279.8 131.033 281.5H124.933C125.173 279.76 126.413 278.72 127.953 278.72ZM133.112 284.72H130.653C130.233 285.58 129.453 286.26 128.053 286.26C126.373 286.26 125.073 285.16 124.913 283.34H133.333C133.393 282.96 133.413 282.6 133.413 282.22C133.413 278.98 131.193 276.8 128.053 276.8C124.793 276.8 122.553 279.02 122.553 282.48C122.553 285.94 124.893 288.18 128.053 288.18C130.753 288.18 132.493 286.64 133.112 284.72ZM136.676 290.92H147.836V288.8H136.676V290.92ZM161.593 276.98H159.313V283.12C159.313 285.14 158.213 286.18 156.533 286.18C154.873 286.18 153.773 285.14 153.773 283.12V276.98H151.513V283.46C151.513 286.54 153.473 288.16 156.053 288.16C157.353 288.16 158.593 287.62 159.313 286.68V288H161.593V276.98ZM172.822 284.92C172.702 280.94 166.482 282.18 166.482 279.96C166.482 279.22 167.122 278.72 168.342 278.72C169.582 278.72 170.322 279.38 170.402 280.34H172.682C172.562 278.14 170.922 276.8 168.422 276.8C165.822 276.8 164.182 278.22 164.182 279.98C164.182 284.02 170.582 282.78 170.582 284.94C170.582 285.7 169.882 286.26 168.562 286.26C167.302 286.26 166.442 285.52 166.362 284.62H164.002C164.102 286.62 165.962 288.18 168.602 288.18C171.202 288.18 172.822 286.78 172.822 284.92ZM179.925 278.72C181.625 278.72 182.965 279.8 183.005 281.5H176.905C177.145 279.76 178.385 278.72 179.925 278.72ZM185.085 284.72H182.625C182.205 285.58 181.425 286.26 180.025 286.26C178.345 286.26 177.045 285.16 176.885 283.34H185.305C185.365 282.96 185.385 282.6 185.385 282.22C185.385 278.98 183.165 276.8 180.025 276.8C176.765 276.8 174.525 279.02 174.525 282.48C174.525 285.94 176.865 288.18 180.025 288.18C182.725 288.18 184.465 286.64 185.085 284.72ZM189.909 282.2C189.909 279.86 190.949 279.16 192.629 279.16H193.209V276.8C191.649 276.8 190.549 277.48 189.909 278.58V276.98H187.629V288H189.909V282.2ZM203.525 284.92C203.405 280.94 197.185 282.18 197.185 279.96C197.185 279.22 197.825 278.72 199.045 278.72C200.285 278.72 201.025 279.38 201.105 280.34H203.385C203.265 278.14 201.625 276.8 199.125 276.8C196.525 276.8 194.885 278.22 194.885 279.98C194.885 284.02 201.285 282.78 201.285 284.94C201.285 285.7 200.585 286.26 199.265 286.26C198.005 286.26 197.145 285.52 197.065 284.62H194.705C194.805 286.62 196.665 288.18 199.305 288.18C201.905 288.18 203.525 286.78 203.525 284.92ZM207.008 290.92H218.168V288.8H207.008V290.92ZM230.165 284.92C230.045 280.94 223.825 282.18 223.825 279.96C223.825 279.22 224.465 278.72 225.685 278.72C226.925 278.72 227.665 279.38 227.745 280.34H230.025C229.905 278.14 228.265 276.8 225.765 276.8C223.165 276.8 221.525 278.22 221.525 279.98C221.525 284.02 227.925 282.78 227.925 284.94C227.925 285.7 227.225 286.26 225.905 286.26C224.645 286.26 223.785 285.52 223.705 284.62H221.345C221.445 286.62 223.305 288.18 225.945 288.18C228.545 288.18 230.165 286.78 230.165 284.92ZM232.629 288H234.909V281.84C234.909 279.82 236.009 278.78 237.689 278.78C239.349 278.78 240.449 279.82 240.449 281.84V288H242.709V281.5C242.709 278.42 240.789 276.8 238.329 276.8C236.909 276.8 235.669 277.34 234.909 278.26V273.2H232.629V288ZM256.117 282.48C256.117 279.02 253.637 276.8 250.497 276.8C247.357 276.8 244.877 279.02 244.877 282.48C244.877 285.94 247.257 288.18 250.397 288.18C253.557 288.18 256.117 285.94 256.117 282.48ZM247.197 282.48C247.197 279.98 248.737 278.78 250.457 278.78C252.157 278.78 253.777 279.98 253.777 282.48C253.777 284.98 252.097 286.2 250.397 286.2C248.677 286.2 247.197 284.98 247.197 282.48ZM268.351 276.98H266.071V283.12C266.071 285.14 264.971 286.18 263.291 286.18C261.631 286.18 260.531 285.14 260.531 283.12V276.98H258.271V283.46C258.271 286.54 260.231 288.16 262.811 288.16C264.111 288.16 265.351 287.62 266.071 286.68V288H268.351V276.98ZM271.359 288H273.639V273.2H271.359V288ZM275.873 282.44C275.873 285.84 278.173 288.18 281.073 288.18C282.873 288.18 284.193 287.34 284.893 286.34V288H287.193V273.2H284.893V278.52C284.053 277.48 282.533 276.8 281.093 276.8C278.173 276.8 275.873 279.04 275.873 282.44ZM284.893 282.48C284.893 284.86 283.273 286.2 281.553 286.2C279.853 286.2 278.213 284.82 278.213 282.44C278.213 280.06 279.853 278.78 281.553 278.78C283.273 278.78 284.893 280.12 284.893 282.48ZM291.208 290.92H302.368V288.8H291.208V290.92ZM306.145 288H308.425V273.2H306.145V288ZM310.658 282.44C310.658 285.84 312.958 288.18 315.818 288.18C317.658 288.18 318.978 287.3 319.678 286.36V288H321.978V276.98H319.678V278.58C318.998 277.68 317.718 276.8 315.858 276.8C312.958 276.8 310.658 279.04 310.658 282.44ZM319.678 282.48C319.678 284.86 318.058 286.2 316.338 286.2C314.638 286.2 312.998 284.82 312.998 282.44C312.998 280.06 314.638 278.78 316.338 278.78C318.058 278.78 319.678 280.12 319.678 282.48ZM53.32 318H55.58V311.5C55.58 308.42 53.64 306.8 51.06 306.8C49.74 306.8 48.52 307.34 47.78 308.24V306.98H45.5V318H47.78V311.84C47.78 309.82 48.88 308.78 50.56 308.78C52.22 308.78 53.32 309.82 53.32 311.84V318ZM57.7283 312.44C57.7283 315.84 60.0283 318.18 62.9283 318.18C64.7283 318.18 66.0483 317.34 66.7483 316.34V318H69.0483V303.2H66.7483V308.52C65.9083 307.48 64.3883 306.8 62.9483 306.8C60.0283 306.8 57.7283 309.04 57.7283 312.44ZM66.7483 312.48C66.7483 314.86 65.1283 316.2 63.4083 316.2C61.7083 316.2 60.0683 314.82 60.0683 312.44C60.0683 310.06 61.7083 308.78 63.4083 308.78C65.1283 308.78 66.7483 310.12 66.7483 312.48ZM74.403 316.68C74.403 315.86 73.763 315.22 72.963 315.22C72.143 315.22 71.503 315.86 71.503 316.68C71.503 317.5 72.143 318.14 72.963 318.14C73.763 318.14 74.403 317.5 74.403 316.68ZM76.1072 312.48C76.1072 315.94 78.3472 318.18 81.5072 318.18C84.2072 318.18 85.9672 316.68 86.5872 314.52H84.1272C83.7072 315.66 82.8672 316.26 81.5072 316.26C79.6672 316.26 78.4472 314.9 78.4472 312.48C78.4472 310.08 79.6672 308.72 81.5072 308.72C82.8672 308.72 83.7472 309.4 84.1272 310.46H86.5872C85.9672 308.14 84.2072 306.8 81.5072 306.8C78.3472 306.8 76.1072 309.04 76.1072 312.48ZM99.3594 312.48C99.3594 309.02 96.8794 306.8 93.7394 306.8C90.5994 306.8 88.1194 309.02 88.1194 312.48C88.1194 315.94 90.4994 318.18 93.6394 318.18C96.7994 318.18 99.3594 315.94 99.3594 312.48ZM90.4394 312.48C90.4394 309.98 91.9794 308.78 93.6994 308.78C95.3994 308.78 97.0194 309.98 97.0194 312.48C97.0194 314.98 95.3394 316.2 93.6394 316.2C91.9194 316.2 90.4394 314.98 90.4394 312.48ZM117.233 318H119.493V311.5C119.493 308.42 117.533 306.8 114.953 306.8C113.353 306.8 111.793 307.64 111.113 308.98C110.353 307.54 108.893 306.8 107.153 306.8C105.833 306.8 104.633 307.34 103.893 308.24V306.98H101.613V318H103.893V311.84C103.893 309.82 104.993 308.78 106.673 308.78C108.333 308.78 109.433 309.82 109.433 311.84V318H111.693V311.84C111.693 309.82 112.793 308.78 114.473 308.78C116.133 308.78 117.233 309.82 117.233 311.84V318ZM121.835 306.16H123.395L123.635 302.06H121.575L121.835 306.16ZM124.855 306.16H126.415L126.655 302.06H124.595L124.855 306.16ZM129.599 315.32H132.479L137.079 310.78L132.479 306.24H129.599L134.219 310.78L129.599 315.32ZM143.976 310.78L148.596 306.24H145.716L141.116 310.78L145.716 315.32H148.596L143.976 310.78ZM152.622 321.5H154.862L160.302 299.12H158.042L152.622 321.5ZM171.396 314.92C171.276 310.94 165.056 312.18 165.056 309.96C165.056 309.22 165.696 308.72 166.916 308.72C168.156 308.72 168.896 309.38 168.976 310.34H171.256C171.136 308.14 169.496 306.8 166.996 306.8C164.396 306.8 162.756 308.22 162.756 309.98C162.756 314.02 169.156 312.78 169.156 314.94C169.156 315.7 168.456 316.26 167.136 316.26C165.876 316.26 165.016 315.52 164.936 314.62H162.576C162.676 316.62 164.536 318.18 167.176 318.18C169.776 318.18 171.396 316.78 171.396 314.92ZM173.099 312.48C173.099 315.94 175.339 318.18 178.499 318.18C181.199 318.18 182.959 316.68 183.579 314.52H181.119C180.699 315.66 179.859 316.26 178.499 316.26C176.659 316.26 175.439 314.9 175.439 312.48C175.439 310.08 176.659 308.72 178.499 308.72C179.859 308.72 180.739 309.4 181.119 310.46H183.579C182.959 308.14 181.199 306.8 178.499 306.8C175.339 306.8 173.099 309.04 173.099 312.48ZM188.132 312.2C188.132 309.86 189.172 309.16 190.852 309.16H191.432V306.8C189.872 306.8 188.772 307.48 188.132 308.58V306.98H185.852V318H188.132V312.2ZM193.527 318H195.807V306.98H193.527V318ZM194.687 305.52C195.487 305.52 196.127 304.88 196.127 304.06C196.127 303.24 195.487 302.6 194.687 302.6C193.867 302.6 193.227 303.24 193.227 304.06C193.227 304.88 193.867 305.52 194.687 305.52ZM201.081 308.6V306.98H198.801V323.24H201.081V316.4C201.801 317.26 203.101 318.18 204.921 318.18C207.821 318.18 210.101 315.84 210.101 312.44C210.101 309.04 207.821 306.8 204.921 306.8C203.121 306.8 201.781 307.68 201.081 308.6ZM207.781 312.44C207.781 314.82 206.141 316.2 204.421 316.2C202.721 316.2 201.081 314.86 201.081 312.48C201.081 310.12 202.721 308.78 204.421 308.78C206.141 308.78 207.781 310.06 207.781 312.44ZM212.715 314.94C212.715 317.18 213.935 318 215.895 318H217.695V316.1H216.295C215.335 316.1 215.015 315.76 215.015 314.94V308.84H217.695V306.98H215.015V304.24H212.715V306.98H211.415V308.84H212.715V314.94ZM220.537 315.32H223.417L228.017 310.78L223.417 306.24H220.537L225.157 310.78L220.537 315.32Z" fill="black"/>
<defs>
<filter id="filter0_d_276_5303" x="0" y="0" width="387" height="499" filterUnits="userSpaceOnUse" color-interpolation-filters="sRGB">
<feFlood flood-opacity="0" result="BackgroundImageFix"/>
<feColorMatrix in="SourceAlpha" type="matrix" values="0 0 0 0 0 0 0 0 0 0 0 0 0 0 0 0 0 0 127 0" result="hardAlpha"/>
<feOffset dy="4"/>
<feGaussianBlur stdDeviation="6"/>
<feComposite in2="hardAlpha" operator="out"/>
<feColorMatrix type="matrix" values="0 0 0 0 0 0 0 0 0 0 0 0 0 0 0 0 0 0 0.25 0"/>
<feBlend mode="normal" in2="BackgroundImageFix" result="effect1_dropShadow_276_5303"/>
<feBlend mode="normal" in="SourceGraphic" in2="effect1_dropShadow_276_5303" result="shape"/>
</filter>
</defs>
</svg>
