<svg width="127" height="60" viewBox="0 0 127 60" fill="none" xmlns="http://www.w3.org/2000/svg">
<path d="M76.864 22.728V17.64H85.728V41H80.032V22.728H76.864ZM104.383 21.736L96.3513 41H90.7513L98.8793 22.344H88.9273V17.672H104.383V21.736ZM106.596 29C106.596 25.3307 107.3 22.44 108.708 20.328C110.138 18.216 112.431 17.16 115.588 17.16C118.746 17.16 121.028 18.216 122.436 20.328C123.866 22.44 124.58 25.3307 124.58 29C124.58 32.712 123.866 35.624 122.436 37.736C121.028 39.848 118.746 40.904 115.588 40.904C112.431 40.904 110.138 39.848 108.708 37.736C107.3 35.624 106.596 32.712 106.596 29ZM119.204 29C119.204 26.8453 118.97 25.192 118.5 24.04C118.031 22.8667 117.06 22.28 115.588 22.28C114.116 22.28 113.146 22.8667 112.676 24.04C112.207 25.192 111.972 26.8453 111.972 29C111.972 30.4507 112.058 31.656 112.228 32.616C112.399 33.5547 112.74 34.3227 113.252 34.92C113.786 35.496 114.564 35.784 115.588 35.784C116.612 35.784 117.38 35.496 117.892 34.92C118.426 34.3227 118.778 33.5547 118.948 32.616C119.119 31.656 119.204 30.4507 119.204 29Z" fill="#8A62CC"/>
<rect opacity="0.1" width="60" height="60" rx="30" fill="#0500A3"/>
<path d="M27.3747 27.9924C27.2932 27.7947 27.1025 27.667 26.8889 27.667C26.8887 27.667 26.8884 27.667 26.8883 27.667C26.6743 27.6672 26.4837 27.7953 26.4026 27.9934C26.4013 27.9967 26.3999 28 26.3987 28.0034L24.9762 31.7384C24.8897 31.9651 25.0037 32.2191 25.2305 32.3054C25.4569 32.3919 25.7112 32.278 25.7975 32.0512L26.044 31.404H27.7229L27.9666 32.05C28.033 32.2259 28.2003 32.3344 28.3778 32.3344C28.4294 32.3344 28.4818 32.3253 28.533 32.306C28.76 32.2203 28.8747 31.9668 28.7889 31.7396L27.3793 28.0046C27.3779 28.0004 27.3763 27.9963 27.3747 27.9924ZM26.3788 30.5251L26.8873 29.1899L27.3912 30.5251H26.3788Z" fill="#0500A3"/>
<path d="M30.1699 27.667C29.9272 27.667 29.7305 27.8637 29.7305 28.1064V31.8915C29.7305 32.1343 29.9272 32.331 30.1699 32.331H31.4965C31.7392 32.331 31.9359 32.1342 31.9359 31.8915C31.9359 31.6488 31.7392 31.4521 31.4965 31.4521H30.6094V28.1064C30.6094 27.8637 30.4126 27.667 30.1699 27.667Z" fill="#0500A3"/>
<path d="M33.2861 27.667C33.0434 27.667 32.8467 27.8637 32.8467 28.1064V31.8915C32.8467 32.1343 33.0434 32.331 33.2861 32.331H34.6127C34.8554 32.331 35.0521 32.1342 35.0521 31.8915C35.0521 31.6488 34.8554 31.4521 34.6127 31.4521H33.7256V28.1064C33.7256 27.8637 33.5289 27.667 33.2861 27.667Z" fill="#0500A3"/>
<path d="M35.6036 25.2393C35.7788 25.0713 35.7847 24.7931 35.6168 24.6179C34.1353 23.0721 32.1405 22.2207 30 22.2207C25.7105 22.2207 22.2207 25.7105 22.2207 30C22.2207 34.2896 25.7104 37.7793 30 37.7793C34.2895 37.7793 37.7793 34.2895 37.7793 30C37.7793 28.7383 37.4701 27.4851 36.8854 26.3759C36.7722 26.1612 36.5064 26.0789 36.2916 26.1921C36.077 26.3053 35.9946 26.5711 36.1078 26.7858C36.6263 27.7691 36.9003 28.8805 36.9003 29.9999C36.9003 33.8047 33.8048 36.9003 30 36.9003C26.1951 36.9003 23.0996 33.8048 23.0996 30C23.0996 26.1951 26.1951 23.0996 30 23.0996C31.8986 23.0996 33.668 23.8548 34.9822 25.226C35.1502 25.4013 35.4284 25.4071 35.6036 25.2393Z" fill="#0500A3"/>
<path d="M20.5071 29.9953C20.3586 29.7273 20.0759 29.5609 19.7696 29.5609H19.2018C19.4333 23.805 24.1883 19.1933 30 19.1933C32.7208 19.1933 35.3223 20.212 37.325 22.0614C37.6849 22.3942 38.2395 22.3822 38.5875 22.0343L39.2614 21.3604C39.4382 21.1836 39.533 20.9485 39.5284 20.6983C39.5238 20.4512 39.4173 20.2131 39.2361 20.0449C36.7179 17.7073 33.4378 16.4199 30 16.4199C26.9172 16.4199 23.8984 17.4815 21.4994 19.4091C21.3102 19.5611 21.2801 19.8378 21.4321 20.027C21.5841 20.2162 21.8607 20.2461 22.05 20.0942C24.3259 18.2655 27.0749 17.2989 30 17.2989C33.2153 17.2989 36.283 18.5029 38.6381 20.689C38.6409 20.6916 38.6492 20.6994 38.6495 20.7146C38.6498 20.729 38.6423 20.7365 38.6398 20.7389L37.966 21.4128C37.9536 21.4252 37.9333 21.4267 37.9215 21.4159C35.7557 19.4159 32.9424 18.3144 30 18.3144C23.5563 18.3144 18.314 23.5567 18.314 30.0003C18.314 30.2431 18.5108 30.4398 18.7535 30.4398H19.7048L17.8063 33.4781L15.9077 30.4398H16.8591C17.1018 30.4398 17.2985 30.243 17.2985 30.0003C17.2985 26.8299 18.4732 23.7938 20.606 21.4516C20.7694 21.2721 20.7564 20.9942 20.577 20.8308C20.3975 20.6673 20.1195 20.6803 19.9562 20.8598C17.7743 23.2559 16.5302 26.3306 16.4267 29.5609H15.8431C15.5367 29.5609 15.2541 29.7273 15.1056 29.9953C14.9571 30.2632 14.9657 30.5911 15.1281 30.8508L17.0912 33.9922C17.2463 34.2404 17.5136 34.3886 17.8063 34.3886C18.099 34.3886 18.3663 34.2404 18.5216 33.9922L20.4845 30.8509C20.6469 30.5912 20.6555 30.2633 20.5071 29.9953Z" fill="#0500A3"/>
<path d="M44.8722 29.1501L42.9091 26.0086C42.7539 25.7604 42.4866 25.6123 42.194 25.6123C41.9013 25.6123 41.6339 25.7604 41.4787 26.0087L39.5157 29.15C39.3533 29.4098 39.3447 29.7377 39.4931 30.0056C39.6415 30.2736 39.9242 30.44 40.2306 30.44H40.7984C40.7143 32.5446 40.0265 34.5524 38.7962 36.2719C38.6549 36.4693 38.7005 36.7438 38.8978 36.885C39.0954 37.0264 39.3699 36.9806 39.5109 36.7833C40.9339 34.7945 41.6861 32.449 41.6861 30.0005C41.6861 29.7578 41.4893 29.5611 41.2466 29.5611H40.2953L42.1938 26.5227L44.0924 29.5611H43.1411C42.8983 29.5611 42.7016 29.7578 42.7016 30.0005C42.7016 37.0041 37.0038 42.7019 30.0002 42.7019C26.7848 42.7019 23.7171 41.4979 21.3621 39.3118C21.3592 39.3092 21.3509 39.3014 21.3506 39.2863C21.3503 39.2719 21.3578 39.2644 21.3603 39.262L22.0342 38.5881C22.0466 38.5756 22.0669 38.5742 22.0787 38.5849C24.2445 40.585 27.0578 41.6865 30.0002 41.6865C33.0453 41.6865 35.9299 40.5174 38.1227 38.3945C38.2971 38.2257 38.3016 37.9474 38.1328 37.773C37.9639 37.5987 37.6857 37.5941 37.5114 37.7629C35.4834 39.7263 32.8159 40.8075 30.0002 40.8075C27.2794 40.8075 24.6779 39.7889 22.6752 37.9394C22.3152 37.6067 21.7607 37.6186 21.4127 37.9666L20.7388 38.6405C20.562 38.8173 20.4672 39.0524 20.4718 39.3026C20.4764 39.5496 20.5829 39.7878 20.7641 39.956C23.2823 42.2936 26.5624 43.5809 30.0002 43.5809C33.6275 43.5809 37.0378 42.1682 39.6029 39.6032C42.0642 37.1419 43.4644 33.9027 43.5737 30.44H44.1572C44.4636 30.44 44.7461 30.2736 44.8947 30.0056C45.0431 29.7377 45.0345 29.4098 44.8722 29.1501Z" fill="#0500A3"/>
</svg>
