<svg width="224" height="64" viewBox="0 0 224 64" fill="none" xmlns="http://www.w3.org/2000/svg">
<path d="M83.7661 33.5291C83.7681 29.2541 83.7661 24.9792 83.7681 20.7063C83.7681 19.5941 83.9523 19.3787 85.0325 19.389C89.5313 19.4325 94.0426 19.3165 98.5269 19.6024C103.193 19.8985 106.8 22.0795 108.373 26.7335C108.77 27.9079 108.688 29.2666 108.706 30.5424C108.748 33.3303 107.442 35.5154 105.441 37.3277C104.973 37.7502 104.4 38.0774 103.835 38.3695C103.177 38.7133 103.127 39.1876 103.491 39.7137C104.855 41.6855 106.252 43.6345 107.63 45.5959C108.034 46.1717 108.421 46.7599 108.808 47.346C109.159 47.8804 108.95 48.2408 108.375 48.2491C106.482 48.276 104.565 48.4044 102.707 48.1414C102.026 48.0461 101.405 47.025 100.894 46.327C99.665 44.6473 98.5103 42.9137 97.3411 41.1925C96.8321 40.4448 96.2113 40.0513 95.249 40.1155C94.0322 40.1963 92.8071 40.1652 91.5862 40.1321C90.6923 40.1093 90.386 40.5649 90.3881 41.3748C90.3922 43.2057 90.3943 45.0387 90.3798 46.8697C90.3715 48.1435 90.266 48.247 88.9954 48.2636C87.6772 48.2802 86.359 48.247 85.0408 48.2822C84.2669 48.3029 83.9213 47.9094 83.8178 47.2176C83.7743 46.9339 83.7702 46.6418 83.7702 46.3539C83.764 42.079 83.764 37.804 83.7661 33.5291ZM90.3363 29.6477C90.3343 29.6477 90.3322 29.6477 90.3301 29.6477C90.3301 30.996 90.328 32.3444 90.3301 33.6927C90.3301 34.3286 90.5577 34.7283 91.2882 34.7221C93.3431 34.7035 95.4001 34.7325 97.455 34.7055C99.4291 34.6807 100.958 33.6161 101.633 31.9405C102.339 30.1862 102.388 28.2103 100.932 26.5926C99.9051 25.4535 98.4959 24.975 97.0825 24.828C95.1745 24.6292 93.2334 24.7534 91.3069 24.7203C90.6116 24.7079 90.3177 25.004 90.3301 25.6979C90.3508 27.0152 90.3363 28.3325 90.3363 29.6477Z" fill="#313131"/>
<path d="M160.983 25.9735C160.983 28.2891 160.968 30.6026 160.999 32.9161C161.003 33.2517 161.235 33.5851 161.361 33.9186C161.678 33.7632 162.055 33.6721 162.303 33.4422C164.819 31.1183 167.296 28.7551 169.833 26.4561C170.142 26.1765 170.727 26.1226 171.189 26.1122C172.892 26.077 174.599 26.0853 176.302 26.1205C176.617 26.1267 176.927 26.3297 177.24 26.4416C177.111 26.7522 177.062 27.1396 176.844 27.3653C175.381 28.8711 173.879 30.3375 172.397 31.8246C171.425 32.8022 170.471 33.7964 169.51 34.7843C169.053 35.2566 169.204 35.7185 169.554 36.1638C172.027 39.3099 174.504 42.454 176.977 45.6001C177.432 46.178 177.92 46.7372 178.322 47.3503C178.686 47.9054 178.618 48.33 177.802 48.3279C175.808 48.3238 173.806 48.4294 171.826 48.2741C171.234 48.2264 170.618 47.5305 170.152 47.0086C168.606 45.275 167.114 43.4896 165.618 41.7125C165.254 41.2796 165.02 40.7059 164.592 40.3662C164.343 40.1695 163.735 40.1653 163.447 40.3372C162.851 40.6935 162.268 41.1554 161.85 41.7042C161.444 42.2344 161.082 42.9055 161.005 43.5517C160.869 44.693 160.983 45.8632 160.954 47.0189C160.929 48.0069 160.583 48.3238 159.586 48.33C158.299 48.3383 157.011 48.3403 155.726 48.33C154.493 48.3196 154.437 48.2596 154.437 47.0148C154.435 42.8993 154.435 38.7838 154.435 34.6684C154.435 29.6706 154.437 24.6728 154.437 19.675C154.437 17.7094 154.435 17.7053 156.449 17.6845C157.51 17.6742 158.572 17.6763 159.633 17.6866C160.627 17.697 160.954 18.0076 160.962 19.0225C160.981 21.3381 160.968 23.6517 160.968 25.9673C160.972 25.9735 160.978 25.9735 160.983 25.9735Z" fill="#313131"/>
<path d="M148.622 39.5351C148.622 42.006 148.639 44.479 148.616 46.9499C148.606 48.1222 148.345 48.3314 147.172 48.3397C145.887 48.348 144.601 48.377 143.316 48.3853C142.344 48.3915 142.193 48.1616 142.184 47.1529C142.162 43.8452 142.114 40.5396 142.048 37.234C142.031 36.4179 141.94 35.5977 141.835 34.7858C141.514 32.3169 140.051 31.5257 137.924 31.4553C135.382 31.3704 133.615 32.5924 133.015 35.0841C132.742 36.217 132.583 37.4017 132.556 38.5678C132.485 41.4592 132.508 44.3527 132.52 47.2461C132.525 48.0725 132.191 48.3894 131.36 48.3604C129.946 48.3128 128.529 48.3066 127.115 48.3604C126.35 48.3894 126.047 48.0435 126.014 47.3663C125.985 46.7573 126.004 46.1442 126.004 45.5353C126.002 40.3283 126.002 35.1193 126.002 29.9123C126.002 28.9844 125.981 28.0565 125.998 27.1286C126.012 26.3436 126.302 25.8942 127.227 25.9439C128.541 26.0164 129.863 25.9749 131.179 25.9522C131.887 25.9397 132.231 26.2297 132.326 26.9422C132.444 27.8349 132.603 27.8514 133.429 27.3688C136.078 25.8155 138.878 25.3764 141.936 25.9356C144.308 26.3685 145.87 27.7707 147.277 29.5105C148.51 31.0369 148.51 32.9114 148.618 34.7195C148.713 36.3206 148.639 37.932 148.639 39.5413C148.631 39.5351 148.626 39.5351 148.622 39.5351Z" fill="#313131"/>
<path d="M203.862 37.2C203.862 40.284 203.868 43.3701 203.86 46.4541C203.856 47.9682 203.55 48.2664 202.06 48.2705C200.998 48.2726 199.936 48.2353 198.877 48.2768C198.086 48.3078 197.689 48.0469 197.629 47.2101C197.559 46.2242 197.114 46.0378 196.336 46.6322C192.6 49.4781 187.276 48.952 184.052 46.1559C182.233 44.5776 181.289 42.3531 181.244 39.9215C181.161 35.6487 181.221 31.3737 181.207 27.1008C181.204 26.4505 181.5 26.1377 182.123 26.1294C183.634 26.1108 185.145 26.088 186.655 26.1129C187.373 26.1253 187.717 26.4981 187.709 27.2872C187.673 30.6612 187.64 34.0373 187.717 37.4092C187.746 38.6623 187.818 39.9257 188.611 41.0814C189.6 42.525 190.995 42.9269 192.534 42.8419C195.14 42.7011 197.112 40.7107 197.197 38.0865C197.31 34.5551 197.257 31.0195 197.267 27.484C197.271 26.349 197.453 26.1253 198.581 26.1067C199.835 26.086 201.089 26.0984 202.343 26.1129C203.589 26.1274 203.874 26.4236 203.874 27.6538C203.874 30.8352 203.874 34.0166 203.874 37.1979C203.868 37.2 203.864 37.2 203.862 37.2Z" fill="#313131"/>
<path d="M61.9445 20.438C61.8245 20.6679 61.7086 20.9662 61.5307 21.2168C59.7282 23.7478 57.9113 26.2705 56.1089 28.8015C55.5709 29.5575 55.4033 29.5927 54.9749 28.7663C54.3334 27.5319 53.7747 26.254 53.1828 24.9926C52.3696 23.2569 51.5998 21.5006 50.712 19.8042C50.5423 19.4811 49.9277 19.2637 49.4952 19.2222C46.2711 18.9116 43.0408 18.6485 39.8126 18.3875C38.8048 18.3068 38.6869 18.1784 39.2415 17.3437C41.0522 14.6262 42.8877 11.9233 44.7605 9.24735C44.9281 9.00709 45.4289 8.86832 45.7621 8.8911C48.5764 9.0858 51.4094 9.64916 54.1968 9.47104C57.1436 9.28256 57.6899 11.3103 58.6087 13.1598C59.6993 15.3553 60.7298 17.5818 61.779 19.798C61.8556 19.9679 61.8742 20.1646 61.9445 20.438Z" fill="#8960CF"/>
<path d="M27.6944 17.9416C30.2811 18.1487 32.8657 18.36 35.4525 18.5567C35.8994 18.5899 36.3526 18.5401 36.7996 18.565C37.3811 18.5981 37.5342 18.7887 37.1431 19.3376C35.3283 21.8893 33.5569 24.4721 31.7504 27.0279C31.1523 27.875 31.0944 28.7843 31.502 29.6625C32.7105 32.268 33.9873 34.8446 35.2352 37.4336C35.3035 37.5765 35.3862 37.7132 35.4463 37.8603C35.8312 38.8047 35.6035 39.1071 34.5813 38.9932C33.499 38.8752 32.4208 38.7136 31.3365 38.6308C29.5154 38.492 27.6923 38.3802 25.8671 38.3014C24.909 38.26 24.3027 37.9742 23.953 36.9469C23.535 35.7228 22.8169 34.6023 22.2499 33.4258C21.6291 32.1396 21.0331 30.841 20.4288 29.5486C20.3874 29.4616 20.3854 29.3477 20.3274 29.2793C19.0361 27.8005 19.866 26.6592 20.8034 25.3958C22.403 23.2418 23.8743 20.9945 25.3829 18.7721C25.9665 17.9167 26.7963 17.8691 27.6944 17.9416Z" fill="#8960CF"/>
<path d="M52.1026 50.7811C48.9965 50.6299 45.8883 50.4994 42.7842 50.315C41.7992 50.257 41.4598 49.3975 41.1101 48.6457C39.8851 46.0173 38.6724 43.3827 37.4742 40.7399C37.3252 40.4085 37.288 40.0274 37.199 39.6691C37.5363 39.6794 37.8736 39.6732 38.2089 39.7064C40.1189 39.8886 42.0269 40.0792 43.9348 40.2697C45.0812 40.3836 46.236 40.4499 47.372 40.6301C48.1191 40.7482 48.7627 40.6281 49.1786 40.0295C50.6561 37.9106 52.084 35.7566 53.5326 33.615C53.9795 32.9543 54.4162 32.2853 54.888 31.6432C55.008 31.4796 55.2522 31.3284 55.4426 31.3242C55.5502 31.3222 55.6847 31.6204 55.7758 31.7985C56.4504 33.1303 57.1271 34.4621 57.7789 35.8063C58.0003 36.2599 58.1183 36.7653 58.348 37.2147C58.915 38.3249 59.5544 39.3978 60.0821 40.5245C60.2435 40.8662 60.3077 41.4524 60.1214 41.7279C58.7329 43.7908 57.2719 45.804 55.8296 47.8296C55.3495 48.5048 54.7866 49.1324 54.3851 49.8511C53.8512 50.808 53.0525 50.9571 52.1026 50.7811Z" fill="#8960CF"/>
<path d="M72.9681 32.0533C72.9681 23.986 72.9971 15.9187 72.9391 7.85139C72.9308 6.59004 74.009 7.17204 74.4125 6.68945C74.7064 7.05191 75.1037 7.37709 75.263 7.79133C75.4017 8.15172 75.261 8.6136 75.261 9.03198C75.2589 24.5245 75.2589 40.0171 75.2589 55.5096C75.2589 55.7354 75.2444 55.9611 75.2713 56.1848C75.3603 56.9574 75.2506 57.5104 74.2573 57.4814C73.0716 57.4462 72.9639 57.3696 72.9639 56.16C72.966 48.1237 72.966 40.0896 72.966 32.0533C72.9639 32.0533 72.966 32.0533 72.9681 32.0533Z" fill="#313131"/>
<path d="M120.092 37.2011C120.094 40.3162 120.1 43.4292 120.09 46.5443C120.084 48.0728 120.009 48.1267 118.525 48.1184C117.373 48.1122 116.218 48.0894 115.067 48.1412C114.124 48.1847 113.811 47.7248 113.815 46.8674C113.826 44.8127 113.815 42.7581 113.815 40.7035C113.817 36.3043 113.822 31.9071 113.826 27.5079C113.828 26.3377 113.993 26.1844 115.161 26.1823C116.348 26.1802 117.536 26.1533 118.724 26.143C119.868 26.1326 120.081 26.3232 120.084 27.4727C120.096 30.7162 120.09 33.9576 120.092 37.2011Z" fill="#313131"/>
<path d="M116.975 15.9046C119.475 16.0247 120.992 17.4352 120.874 19.5312C120.768 21.4223 118.873 23.102 116.775 22.8824C114.37 22.6298 112.863 21.8241 112.921 18.972C112.961 17.1162 114.74 15.7969 116.975 15.9046Z" fill="#313131"/>
</svg>
