<svg width="27" height="24" viewBox="0 0 27 24" fill="none" xmlns="http://www.w3.org/2000/svg">
<path d="M18.8719 3.9002L23.1 8.12832C23.2781 8.30645 23.2781 8.59707 23.1 8.7752L12.8625 19.0127L8.5125 19.4955C7.93125 19.5611 7.43906 19.0689 7.50469 18.4877L7.9875 14.1377L18.225 3.9002C18.4031 3.72207 18.6938 3.72207 18.8719 3.9002ZM26.4656 2.82676L24.1781 0.539258C23.4656 -0.173242 22.3078 -0.173242 21.5906 0.539258L19.9313 2.19863C19.7531 2.37676 19.7531 2.66738 19.9313 2.84551L24.1594 7.07363C24.3375 7.25176 24.6281 7.25176 24.8063 7.07363L26.4656 5.41426C27.1781 4.69707 27.1781 3.53926 26.4656 2.82676ZM18 16.2283V21.0002H3V6.0002H13.7719C13.9219 6.0002 14.0625 5.93926 14.1703 5.83613L16.0453 3.96113C16.4016 3.60488 16.1484 3.0002 15.6469 3.0002H2.25C1.00781 3.0002 0 4.00801 0 5.2502V21.7502C0 22.9924 1.00781 24.0002 2.25 24.0002H18.75C19.9922 24.0002 21 22.9924 21 21.7502V14.3533C21 13.8518 20.3953 13.6033 20.0391 13.9549L18.1641 15.8299C18.0609 15.9377 18 16.0783 18 16.2283Z" fill="#8A62CC"/>
</svg>
