<svg width="24" height="24" viewBox="0 0 24 24" fill="none" xmlns="http://www.w3.org/2000/svg">
<path d="M23.1246 13.0467L12.7527 1.0936C12.659 0.985436 12.5431 0.898692 12.4129 0.839242C12.2826 0.779791 12.1412 0.749023 11.998 0.749023C11.8549 0.749023 11.7134 0.779791 11.5832 0.839242C11.453 0.898692 11.3371 0.985436 11.2434 1.0936L0.874603 13.0467C0.843271 13.0827 0.822955 13.127 0.816075 13.1743C0.809196 13.2215 0.816043 13.2698 0.835801 13.3132C0.855559 13.3567 0.887395 13.3936 0.927517 13.4194C0.967639 13.4453 1.01436 13.4591 1.0621 13.4592H3.59335C3.7371 13.4592 3.8746 13.3967 3.97148 13.2873L10.8121 5.40297V22.9998C10.8121 23.1373 10.9246 23.2498 11.0621 23.2498H12.9371C13.0746 23.2498 13.1871 23.1373 13.1871 22.9998V5.40297L20.0277 13.2873C20.1215 13.3967 20.259 13.4592 20.4059 13.4592H22.9371C23.1496 13.4592 23.2652 13.2092 23.1246 13.0467Z" fill="#0500A3"/>
</svg>
