<svg width="30" height="21" viewBox="0 0 30 21" fill="none" xmlns="http://www.w3.org/2000/svg">
<path d="M29.0536 0.569336L16.1114 13.4582C15.7783 13.7893 15.3277 13.9752 14.858 13.9752C14.3884 13.9752 13.9378 13.7893 13.6047 13.4582L0.778043 0.667114C0.738611 0.812039 0.717704 0.961377 0.71582 1.11156V18.8893C0.71582 19.3608 0.903121 19.813 1.23652 20.1464C1.56992 20.4798 2.0221 20.6671 2.4936 20.6671H27.3825C27.854 20.6671 28.3062 20.4798 28.6396 20.1464C28.973 19.813 29.1603 19.3608 29.1603 18.8893V1.11156C29.1532 0.926363 29.1172 0.743412 29.0536 0.569336ZM3.71138 18.8893H2.47582V17.6182L8.93804 11.2093L10.1914 12.4627L3.71138 18.8893ZM27.3647 18.8893H26.1203L19.6403 12.4627L20.8936 11.2093L27.3558 17.6182L27.3647 18.8893Z" fill="#8A62CC"/>
</svg>
