<svg width="28" height="20" viewBox="0 0 28 20" fill="none" xmlns="http://www.w3.org/2000/svg">
<path d="M0.666992 2.00033C0.666992 1.6467 0.807468 1.30757 1.05752 1.05752C1.30756 0.807468 1.6467 0.666992 2.00033 0.666992H26.0003C26.3539 0.666992 26.6931 0.807468 26.9431 1.05752C27.1932 1.30757 27.3337 1.6467 27.3337 2.00033C27.3337 2.35395 27.1932 2.69309 26.9431 2.94313C26.6931 3.19318 26.3539 3.33366 26.0003 3.33366H2.00033C1.6467 3.33366 1.30756 3.19318 1.05752 2.94313C0.807468 2.69309 0.666992 2.35395 0.666992 2.00033ZM0.666992 10.043C0.666992 9.68937 0.807468 9.35023 1.05752 9.10018C1.30756 8.85013 1.6467 8.70966 2.00033 8.70966H26.0003C26.3539 8.70966 26.6931 8.85013 26.9431 9.10018C27.1932 9.35023 27.3337 9.68937 27.3337 10.043C27.3337 10.3966 27.1932 10.7358 26.9431 10.9858C26.6931 11.2359 26.3539 11.3763 26.0003 11.3763H2.00033C1.6467 11.3763 1.30756 11.2359 1.05752 10.9858C0.807468 10.7358 0.666992 10.3966 0.666992 10.043ZM2.00033 16.7523C1.6467 16.7523 1.30756 16.8928 1.05752 17.1429C0.807468 17.3929 0.666992 17.732 0.666992 18.0857C0.666992 18.4393 0.807468 18.7784 1.05752 19.0285C1.30756 19.2785 1.6467 19.419 2.00033 19.419H26.0003C26.3539 19.419 26.6931 19.2785 26.9431 19.0285C27.1932 18.7784 27.3337 18.4393 27.3337 18.0857C27.3337 17.732 27.1932 17.3929 26.9431 17.1429C26.6931 16.8928 26.3539 16.7523 26.0003 16.7523H2.00033Z" fill="#8A62CC"/>
</svg>
