<svg width="32" height="32" viewBox="0 0 32 32" fill="none" xmlns="http://www.w3.org/2000/svg">
<path d="M31.5 15C31.5 13.793 30.6395 12.783 29.5 12.5505V9C29.5 8.173 28.827 7.5 28 7.5C27.173 7.5 26.5 8.173 26.5 9V9.212C24.017 10.705 21.1845 11.5 18.283 11.5H18C16.07 11.5 14.5 13.0705 14.5 15C14.5 16.4005 15.3285 17.608 16.52 18.167C16.2005 18.5215 16 18.986 16 19.5V19.781C16 19.9675 16.023 20.1535 16.068 20.334L16.4795 21.98L14.5 27.919V27.246C14.5 23.865 12.971 20.7875 10.5 18.7375V15.8605L10.578 15.8865C10.8045 15.962 11.0405 16 11.2785 16C12.5035 16 13.5 15.0035 13.5 13.779V11.8095L13.6235 11.748C14.164 11.477 14.5 10.933 14.5 10.3285C14.5 10.0145 14.408 9.7105 14.2335 9.449L13.598 8.496C13.534 8.3995 13.5 8.287 13.5 8.1715V6.5C14.327 6.5 15 5.827 15 5C15 2.5185 12.981 0.5 10.5 0.5H7.0115C3.9725 0.5 1.5 2.9725 1.5 6.0115C1.5 6.581 1.3655 7.1505 1.111 7.66L0.995 7.8925C0.671 8.54 0.5 9.2645 0.5 9.9885C0.5 11.4195 1.141 12.753 2.2585 13.6475L5.499 16.24L5.4995 16.7035C3.6425 17.756 2.5 19.7005 2.5 21.854V31.5H19.4475L20.225 24.5H21.4335L21.9335 21H22C22.827 21 23.5 20.327 23.5 19.5C23.5 19.459 23.491 19.4205 23.488 19.38C24.534 19.7415 25.543 20.2125 26.5 20.788V21C26.5 21.827 27.173 22.5 28 22.5C28.827 22.5 29.5 21.827 29.5 21V17.4495C30.6395 17.217 31.5 16.207 31.5 15ZM15.5 15C15.5 13.6215 16.6215 12.5 18 12.5H18.283C18.3555 12.5 18.4275 12.4935 18.5 12.4925V17.5H18.283H18C16.6215 17.5 15.5 16.3785 15.5 15ZM18.283 18.5C18.371 18.5 18.458 18.508 18.5455 18.509C18.799 18.5335 19 18.74 19 19C19 19.276 18.7755 19.5 18.5 19.5H18V20.5H18.3475L18.41 21.943L17.418 21.6125L17.038 20.0915C17.013 19.9895 17 19.8855 17 19.781V19.5C17 18.9485 17.4485 18.5 18 18.5H18.283ZM10.9205 20.514L10.7465 20.723L8.31 20.9665L6.903 17.801C8.4745 18.375 9.8435 19.317 10.9205 20.514ZM11.559 21.31C12.5095 22.6105 13.148 24.1395 13.388 25.787L10.194 22.948L11.559 21.31ZM12 13C11.348 13 10.792 12.582 10.5855 12H12.5V13H12ZM12.7665 9.051L13.402 10.004C13.466 10.1005 13.5 10.213 13.5 10.3285C13.5 10.552 13.3755 10.753 13.1765 10.853L12.882 11H9.5V11.5C9.5 12.8785 10.6215 14 12 14H12.4775C12.373 14.568 11.876 15 11.2785 15C11.1475 15 11.018 14.979 10.893 14.9375L8.149 14.0255L7.8335 14.9745L9.5 15.5285V17.99C8.592 17.3965 7.582 16.9385 6.4995 16.627L6.4955 12.75L4.9665 11.6005C4.6745 11.3815 4.5 11.032 4.5 10.6665C4.5 10.0235 5.0235 9.5 5.6665 9.5H6.4955V7.5C6.4955 6.9485 6.944 6.5 7.4955 6.5H8.5H9H12.5V8.1715C12.5 8.4855 12.592 8.7895 12.7665 9.051ZM2.883 12.866C2.004 12.163 1.5 11.1145 1.5 9.9885C1.5 9.419 1.6345 8.8495 1.889 8.34L2.005 8.1075C2.329 7.46 2.5 6.7355 2.5 6.0115C2.5 3.524 4.524 1.5 7.0115 1.5H10.5C12.43 1.5 14 3.0705 14 5C14 5.276 13.7755 5.5 13.5 5.5H9H8.5C8.2245 5.5 8 5.276 8 5C8 4.724 8.2245 4.5 8.5 4.5H9V3.5H8.5C7.673 3.5 7 4.173 7 5C7 5.1905 7.0395 5.3715 7.1045 5.5395C6.1885 5.722 5.4955 6.531 5.4955 7.5V8.507C4.3805 8.594 3.5 9.5295 3.5 10.6665C3.5 11.3445 3.8235 11.993 4.3655 12.4005L5.496 13.25L5.498 14.958L2.883 12.866ZM13.5 30.5H7.5V25.081C7.5 23.92 6.76 22.893 5.658 22.526L5.3415 23.474C6.0345 23.7055 6.5 24.351 6.5 25.081V30.5H3.5V21.854C3.5 20.1535 4.363 18.617 5.7715 17.7165L7.69 22.0335L9.833 21.819L8.806 23.0515L13.499 27.2235C13.499 27.231 13.5 27.2385 13.5 27.246V30.5ZM18.5525 30.5H14.694L17.3165 22.632L18.457 23.012L18.521 24.5H19.219L18.5525 30.5ZM22 20H21.5V19H22C22.2755 19 22.5 19.224 22.5 19.5C22.5 19.776 22.2755 20 22 20ZM20.9475 20.8325L20.5665 23.5H19.479L19.3375 20.244C19.737 19.974 20 19.517 20 19C20 18.859 19.974 18.725 19.9375 18.5955C20.146 18.617 20.355 18.635 20.562 18.665C20.524 18.7705 20.5 18.882 20.5 19V20C20.5 20.347 20.678 20.653 20.9475 20.8325ZM19.5 17.5445V12.4555C21.9585 12.279 24.3425 11.563 26.5 10.3655V19.6345C24.3425 18.437 21.9585 17.721 19.5 17.5445ZM28.5 21C28.5 21.276 28.2755 21.5 28 21.5C27.7245 21.5 27.5 21.276 27.5 21V9C27.5 8.724 27.7245 8.5 28 8.5C28.2755 8.5 28.5 8.724 28.5 9V21ZM29.5 16.408V13.5925C30.0805 13.7995 30.5 14.3495 30.5 15.0005C30.5 15.6515 30.0805 16.201 29.5 16.408Z" fill="#5B93FF"/>
</svg>
